SeanSlab-CondensedExtrabold.ufo
<glyph name="exclam" format="1">
  <advance width="266"/>
  <unicode hex="0021"/>
  <outline>
    <contour>
      <point x="197" y="229" type="line"/>
      <point x="206" y="722" type="line"/>
      <point x="61" y="722" type="line"/>
      <point x="70" y="229" type="line"/>
    </contour>
    <contour>
      <point x="200" y="55" type="curve"/>
      <point x="200" y="99"/>
      <point x="171" y="120"/>
      <point x="132" y="120" type="curve"/>
      <point x="93" y="120"/>
      <point x="67" y="97"/>
      <point x="67" y="55" type="curve"/>
      <point x="200" y="55"/>
      <point x="67" y="55"/>
      <point x="200" y="55" type="curve"/>
      <point x="200" y="11"/>
      <point x="172" y="-8"/>
      <point x="132" y="-8" type="curve"/>
      <point x="92" y="-8"/>
      <point x="67" y="13"/>
      <point x="67" y="55" type="curve"/>
      <point x="200" y="55"/>
      <point x="67" y="55"/>
    </contour>
  </outline>
</glyph>
<glyph name="numbersign" format="1">
  <advance width="572"/>
  <unicode hex="0023"/>
  <outline>
    <contour>
      <point x="42" y="221" type="line"/>
      <point x="456" y="221" type="line"/>
      <point x="481" y="320" type="line"/>
      <point x="67" y="320" type="line"/>
    </contour>
    <contour>
      <point x="90" y="437" type="line"/>
      <point x="506" y="437" type="line"/>
      <point x="531" y="536" type="line"/>
      <point x="114" y="536" type="line"/>
    </contour>
    <contour>
      <point x="372" y="39" type="line"/>
      <point x="533" y="722" type="line"/>
      <point x="405" y="722" type="line"/>
      <point x="245" y="39" type="line"/>
    </contour>
    <contour>
      <point x="164" y="46" type="line"/>
      <point x="324" y="722" type="line"/>
      <point x="197" y="722" type="line"/>
      <point x="42" y="46" type="line"/>
    </contour>
  </outline>
</glyph>
<glyph name="percent" format="1">
  <advance width="981"/>
  <unicode hex="0025"/>
  <outline>
    <contour>
      <point x="394" y="-43" type="line"/>
      <point x="712" y="714" type="line"/>
      <point x="595" y="714" type="line"/>
      <point x="278" y="-43" type="line"/>
    </contour>
    <contour>
      <point x="142" y="501" type="curve"/>
      <point x="142" y="570"/>
      <point x="156" y="628"/>
      <point x="216" y="628" type="curve"/>
      <point x="277" y="629"/>
      <point x="292" y="570"/>
      <point x="292" y="500" type="curve"/>
      <point x="292" y="430"/>
      <point x="282" y="370"/>
      <point x="222" y="370" type="curve"/>
      <point x="158" y="370"/>
      <point x="142" y="429"/>
      <point x="142" y="501" type="curve"/>
      <point x="102" y="501"/>
      <point x="75" y="501"/>
      <point x="35" y="501" type="curve"/>
      <point x="35" y="373"/>
      <point x="96" y="281"/>
      <point x="217" y="281" type="curve"/>
      <point x="340" y="281"/>
      <point x="403" y="374"/>
      <point x="403" y="504" type="curve"/>
      <point x="403" y="630"/>
      <point x="341" y="717"/>
      <point x="221" y="716" type="curve"/>
      <point x="99" y="716"/>
      <point x="35" y="628"/>
      <point x="35" y="501" type="curve"/>
      <point x="75" y="501"/>
      <point x="102" y="501"/>
    </contour>
    <contour>
      <point x="685" y="177" type="curve"/>
      <point x="685" y="246"/>
      <point x="699" y="303"/>
      <point x="759" y="303" type="curve"/>
      <point x="820" y="304"/>
      <point x="835" y="246"/>
      <point x="835" y="175" type="curve"/>
      <point x="835" y="105"/>
      <point x="826" y="45"/>
      <point x="766" y="45" type="curve"/>
      <point x="702" y="45"/>
      <point x="685" y="104"/>
      <point x="685" y="177" type="curve"/>
      <point x="646" y="177"/>
      <point x="618" y="177"/>
      <point x="579" y="177" type="curve"/>
      <point x="579" y="48"/>
      <point x="639" y="-43"/>
      <point x="760" y="-43" type="curve"/>
      <point x="884" y="-43"/>
      <point x="947" y="49"/>
      <point x="947" y="180" type="curve"/>
      <point x="947" y="306"/>
      <point x="884" y="393"/>
      <point x="765" y="392" type="curve"/>
      <point x="643" y="392"/>
      <point x="579" y="304"/>
      <point x="579" y="177" type="curve"/>
      <point x="618" y="177"/>
      <point x="646" y="177"/>
    </contour>
  </outline>
</glyph>
<glyph name="ampersand" format="1">
  <advance width="590"/>
  <unicode hex="0026"/>
  <outline>
    <contour>
      <point x="568" y="40" type="line"/>
      <point x="492" y="139"/>
      <point x="403" y="270"/>
      <point x="321" y="374" type="curve"/>
      <point x="278" y="431"/>
      <point x="220" y="480"/>
      <point x="220" y="553" type="curve"/>
      <point x="220" y="590"/>
      <point x="227" y="628"/>
      <point x="259" y="628" type="curve"/>
      <point x="293" y="628"/>
      <point x="302" y="594"/>
      <point x="302" y="555" type="curve"/>
      <point x="302" y="492"/>
      <point x="267" y="452"/>
      <point x="215" y="416" type="curve"/>
      <point x="128" y="355"/>
      <point x="51" y="302"/>
      <point x="51" y="198" type="curve"/>
      <point x="51" y="77"/>
      <point x="132" y="-5"/>
      <point x="253" y="-5" type="curve"/>
      <point x="425" y="-5"/>
      <point x="504" y="137"/>
      <point x="549" y="313" type="curve"/>
      <point x="439" y="338"/>
      <point x="549" y="313"/>
      <point x="439" y="338" type="curve"/>
      <point x="407" y="213"/>
      <point x="377" y="94"/>
      <point x="259" y="94" type="curve"/>
      <point x="205" y="94"/>
      <point x="178" y="139"/>
      <point x="178" y="198" type="curve"/>
      <point x="178" y="261"/>
      <point x="216" y="299"/>
      <point x="269" y="337" type="curve"/>
      <point x="354" y="397"/>
      <point x="428" y="452"/>
      <point x="429" y="555" type="curve"/>
      <point x="429" y="658"/>
      <point x="364" y="727"/>
      <point x="264" y="727" type="curve"/>
      <point x="164" y="727"/>
      <point x="101" y="656"/>
      <point x="101" y="553" type="curve"/>
      <point x="101" y="454"/>
      <point x="169" y="391"/>
      <point x="230" y="314" type="curve"/>
      <point x="306" y="215"/>
      <point x="404" y="75"/>
      <point x="475" y="-19" type="curve"/>
    </contour>
  </outline>
</glyph>
<glyph name="parenleft" format="1">
  <advance width="327"/>
  <unicode hex="0028"/>
  <outline>
    <contour>
      <point x="322" y="-208" type="curve"/>
      <point x="195" y="-39"/>
      <point x="164" y="114"/>
      <point x="164" y="326" type="curve"/>
      <point x="164" y="538"/>
      <point x="196" y="692"/>
      <point x="321" y="864" type="curve"/>
      <point x="246" y="927"/>
      <point x="321" y="864"/>
      <point x="246" y="927" type="curve"/>
      <point x="100" y="734"/>
      <point x="40" y="569"/>
      <point x="40" y="326" type="curve"/>
      <point x="40" y="82"/>
      <point x="101" y="-83"/>
      <point x="246" y="-278" type="curve"/>
      <point x="322" y="-208"/>
      <point x="246" y="-278"/>
    </contour>
  </outline>
</glyph>
<glyph name="parenright" format="1">
  <advance width="329"/>
  <unicode hex="0029"/>
  <outline>
    <contour>
      <point x="73" y="-291" type="curve"/>
      <point x="221" y="-89"/>
      <point x="291" y="78"/>
      <point x="291" y="329" type="curve"/>
      <point x="291" y="573"/>
      <point x="228" y="738"/>
      <point x="76" y="930" type="curve"/>
      <point x="1" y="860"/>
      <point x="76" y="930"/>
      <point x="1" y="860" type="curve"/>
      <point x="130" y="690"/>
      <point x="166" y="538"/>
      <point x="166" y="324" type="curve"/>
      <point x="166" y="107"/>
      <point x="122" y="-48"/>
      <point x="-2" y="-228" type="curve"/>
      <point x="73" y="-291"/>
      <point x="-2" y="-228"/>
    </contour>
  </outline>
</glyph>
<glyph name="asterisk" format="1">
  <advance width="528"/>
  <unicode hex="002A"/>
  <outline>
    <contour>
      <point x="303" y="539" type="line"/>
      <point x="310" y="753" type="line"/>
      <point x="219" y="753" type="line"/>
      <point x="225" y="539" type="line"/>
    </contour>
    <contour>
      <point x="277" y="502" type="line"/>
      <point x="480" y="569" type="line"/>
      <point x="450" y="654" type="line"/>
      <point x="251" y="575" type="line"/>
    </contour>
    <contour>
      <point x="235" y="514" type="line"/>
      <point x="366" y="344" type="line"/>
      <point x="435" y="403" type="line"/>
      <point x="294" y="564" type="line"/>
    </contour>
    <contour>
      <point x="234" y="565" type="line"/>
      <point x="93" y="403" type="line"/>
      <point x="163" y="345" type="line"/>
      <point x="294" y="515" type="line"/>
    </contour>
    <contour>
      <point x="278" y="575" type="line"/>
      <point x="78" y="654" type="line"/>
      <point x="47" y="569" type="line"/>
      <point x="251" y="502" type="line"/>
    </contour>
  </outline>
</glyph>
<glyph name="plus" format="1">
  <advance width="595"/>
  <unicode hex="002B"/>
  <outline>
    <contour>
      <point x="40" y="261" type="curve"/>
      <point x="555" y="261" type="line"/>
      <point x="555" y="369"/>
      <point x="555" y="261"/>
      <point x="555" y="369" type="curve"/>
      <point x="40" y="369" type="line"/>
      <point x="40" y="261"/>
      <point x="40" y="369"/>
    </contour>
    <contour>
      <point x="357" y="53" type="curve"/>
      <point x="357" y="579" type="line"/>
      <point x="229" y="579"/>
      <point x="365" y="579"/>
      <point x="238" y="579" type="curve"/>
      <point x="238" y="53" type="line"/>
      <point x="365" y="53"/>
      <point x="229" y="53"/>
    </contour>
  </outline>
</glyph>
<glyph name="hyphen" format="1">
  <advance width="347"/>
  <unicode hex="002D"/>
  <outline>
    <contour>
      <point x="65" y="228" type="curve"/>
      <point x="137" y="228"/>
      <point x="210" y="228"/>
      <point x="282" y="228" type="curve"/>
      <point x="282" y="336"/>
      <point x="282" y="228"/>
      <point x="282" y="336" type="curve"/>
      <point x="210" y="336"/>
      <point x="137" y="336"/>
      <point x="65" y="336" type="curve"/>
      <point x="65" y="228"/>
      <point x="65" y="336"/>
    </contour>
  </outline>
</glyph>
<glyph name="period" format="1">
  <advance width="252"/>
  <unicode hex="002E"/>
  <outline>
    <contour>
      <point x="193" y="55" type="curve"/>
      <point x="193" y="99"/>
      <point x="164" y="120"/>
      <point x="125" y="120" type="curve"/>
      <point x="86" y="120"/>
      <point x="60" y="97"/>
      <point x="60" y="55" type="curve"/>
      <point x="193" y="55"/>
      <point x="60" y="55"/>
      <point x="193" y="55" type="curve"/>
      <point x="193" y="11"/>
      <point x="165" y="-8"/>
      <point x="125" y="-8" type="curve"/>
      <point x="85" y="-8"/>
      <point x="60" y="13"/>
      <point x="60" y="55" type="curve"/>
      <point x="193" y="55"/>
      <point x="60" y="55"/>
    </contour>
  </outline>
</glyph>
<glyph name="slash" format="1">
  <advance width="494"/>
  <unicode hex="002F"/>
  <outline>
    <contour>
      <point x="153" y="-20" type="curve"/>
      <point x="258" y="250"/>
      <point x="364" y="520"/>
      <point x="469" y="790" type="curve"/>
      <point x="342" y="790"/>
      <point x="469" y="790"/>
      <point x="342" y="790" type="curve"/>
      <point x="236" y="520"/>
      <point x="130" y="250"/>
      <point x="25" y="-20" type="curve"/>
      <point x="153" y="-20"/>
      <point x="25" y="-20"/>
    </contour>
  </outline>
</glyph>
<glyph name="two" format="1">
  <advance width="525"/>
  <unicode hex="0032"/>
  <outline>
    <contour>
      <point x="469" y="98" type="curve"/>
      <point x="469" y="198"/>
      <point x="469" y="84"/>
      <point x="469" y="184" type="curve"/>
      <point x="369" y="184"/>
      <point x="469" y="184"/>
      <point x="369" y="184" type="curve"/>
      <point x="369" y="84"/>
      <point x="369" y="198"/>
      <point x="369" y="98" type="curve"/>
      <point x="469" y="98"/>
      <point x="369" y="98"/>
    </contour>
    <contour>
      <point x="47" y="0" type="curve"/>
      <point x="214" y="0"/>
      <point x="363" y="0"/>
      <point x="469" y="0" type="curve"/>
      <point x="469" y="98"/>
      <point x="469" y="0"/>
      <point x="469" y="98" type="curve"/>
      <point x="343" y="98"/>
      <point x="174" y="99"/>
      <point x="47" y="99" type="curve"/>
      <point x="47" y="0"/>
      <point x="47" y="98"/>
    </contour>
    <contour>
      <point x="134" y="524" type="curve"/>
      <point x="165" y="579"/>
      <point x="184" y="624"/>
      <point x="241" y="624" type="curve"/>
      <point x="298" y="624"/>
      <point x="316" y="573"/>
      <point x="316" y="505" type="curve"/>
      <point x="316" y="409"/>
      <point x="270" y="341"/>
      <point x="209" y="276" type="curve"/>
      <point x="155" y="215"/>
      <point x="105" y="161"/>
      <point x="47" y="99" type="curve"/>
      <point x="48" y="0"/>
      <point x="47" y="98"/>
      <point x="48" y="0" type="curve"/>
      <point x="168" y="57"/>
      <point x="227" y="135"/>
      <point x="288" y="204" type="curve"/>
      <point x="375" y="294"/>
      <point x="434" y="378"/>
      <point x="434" y="511" type="curve"/>
      <point x="434" y="643"/>
      <point x="370" y="727"/>
      <point x="246" y="727" type="curve"/>
      <point x="146" y="727"/>
      <point x="82" y="667"/>
      <point x="46" y="576" type="curve"/>
      <point x="134" y="524"/>
      <point x="46" y="576"/>
    </contour>
  </outline>
</glyph>
<glyph name="three" format="1">
  <advance width="476"/>
  <unicode hex="0033"/>
  <outline>
    <contour>
      <point x="41" y="59" type="curve"/>
      <point x="93" y="20"/>
      <point x="137" y="-5"/>
      <point x="203" y="-5" type="curve"/>
      <point x="342" y="-5"/>
      <point x="426" y="70"/>
      <point x="426" y="207" type="curve"/>
      <point x="426" y="330"/>
      <point x="315" y="405"/>
      <point x="138" y="405" type="curve"/>
      <point x="138" y="323"/>
      <point x="138" y="403"/>
      <point x="138" y="322" type="curve"/>
      <point x="236" y="322"/>
      <point x="304" y="273"/>
      <point x="304" y="203" type="curve"/>
      <point x="304" y="139"/>
      <point x="265" y="99"/>
      <point x="208" y="99" type="curve"/>
      <point x="170" y="99"/>
      <point x="142" y="111"/>
      <point x="110" y="134" type="curve"/>
      <point x="41" y="59"/>
      <point x="110" y="134"/>
    </contour>
    <contour>
      <point x="123" y="571" type="curve"/>
      <point x="137" y="593"/>
      <point x="164" y="624"/>
      <point x="200" y="624" type="curve"/>
      <point x="253" y="624"/>
      <point x="280" y="586"/>
      <point x="280" y="528" type="curve"/>
      <point x="280" y="468"/>
      <point x="223" y="424"/>
      <point x="138" y="424" type="curve"/>
      <point x="138" y="342"/>
      <point x="138" y="422"/>
      <point x="138" y="340" type="curve"/>
      <point x="291" y="340"/>
      <point x="400" y="411"/>
      <point x="400" y="532" type="curve"/>
      <point x="400" y="654"/>
      <point x="329" y="727"/>
      <point x="212" y="727" type="curve"/>
      <point x="136" y="727"/>
      <point x="72" y="683"/>
      <point x="42" y="634" type="curve"/>
      <point x="123" y="571"/>
      <point x="42" y="634"/>
    </contour>
  </outline>
</glyph>
<glyph name="four" format="1">
  <advance width="508"/>
  <unicode hex="0034"/>
  <outline>
    <contour>
      <point x="325" y="98" type="line"/>
      <point x="202" y="98" type="line"/>
      <point x="202" y="0" type="line"/>
      <point x="325" y="0" type="line"/>
    </contour>
    <contour>
      <point x="325" y="0" type="line"/>
      <point x="451" y="0" type="line"/>
      <point x="451" y="98" type="line"/>
      <point x="325" y="98" type="line"/>
    </contour>
    <contour>
      <point x="83" y="252" type="line"/>
      <point x="368" y="697" type="line"/>
      <point x="263" y="699" type="line"/>
      <point x="31" y="340" type="line"/>
    </contour>
    <contour>
      <point x="472" y="340" type="line"/>
      <point x="31" y="340" type="line"/>
      <point x="31" y="231" type="line"/>
      <point x="472" y="231" type="line"/>
    </contour>
    <contour>
      <point x="390" y="41" type="line"/>
      <point x="390" y="699" type="line"/>
      <point x="265" y="699" type="line"/>
      <point x="265" y="41" type="line"/>
    </contour>
  </outline>
</glyph>
<glyph name="five" format="1">
  <advance width="467"/>
  <unicode hex="0035"/>
  <outline>
    <contour>
      <point x="58" y="722" type="curve"/>
      <point x="58" y="624"/>
      <point x="58" y="517"/>
      <point x="58" y="382" type="curve"/>
      <point x="179" y="343"/>
      <point x="58" y="382"/>
      <point x="179" y="343" type="curve"/>
      <point x="179" y="434"/>
      <point x="179" y="533"/>
      <point x="179" y="624" type="curve"/>
      <point x="58" y="722"/>
      <point x="179" y="624"/>
    </contour>
    <contour>
      <point x="179" y="343" type="curve"/>
      <point x="189" y="359"/>
      <point x="203" y="373"/>
      <point x="226" y="373" type="curve"/>
      <point x="281" y="373"/>
      <point x="295" y="313"/>
      <point x="295" y="241" type="curve"/>
      <point x="295" y="167"/>
      <point x="266" y="98"/>
      <point x="201" y="98" type="curve"/>
      <point x="163" y="98"/>
      <point x="139" y="110"/>
      <point x="108" y="131" type="curve"/>
      <point x="44" y="43"/>
      <point x="108" y="131"/>
      <point x="44" y="43" type="curve"/>
      <point x="93" y="10"/>
      <point x="137" y="-5"/>
      <point x="195" y="-5" type="curve"/>
      <point x="331" y="-5"/>
      <point x="422" y="100"/>
      <point x="422" y="240" type="curve"/>
      <point x="422" y="374"/>
      <point x="362" y="478"/>
      <point x="244" y="478" type="curve"/>
      <point x="180" y="478"/>
      <point x="121" y="460"/>
      <point x="58" y="382" type="curve"/>
      <point x="179" y="343"/>
      <point x="58" y="382"/>
    </contour>
    <contour>
      <point x="396" y="722" type="curve"/>
      <point x="294" y="722"/>
      <point x="160" y="722"/>
      <point x="58" y="722" type="curve"/>
      <point x="179" y="624"/>
      <point x="58" y="722"/>
      <point x="179" y="624" type="curve"/>
      <point x="241" y="624"/>
      <point x="335" y="624"/>
      <point x="396" y="624" type="curve"/>
      <point x="396" y="722"/>
      <point x="396" y="624"/>
    </contour>
  </outline>
</glyph>
<glyph name="seven" format="1">
  <advance width="463"/>
  <unicode hex="0037"/>
  <outline>
    <contour>
      <point x="158" y="538" type="line"/>
      <point x="158" y="627" type="line"/>
      <point x="58" y="627" type="line"/>
      <point x="58" y="538" type="line"/>
    </contour>
    <contour>
      <point x="58" y="624" type="line"/>
      <point x="444" y="624" type="line"/>
      <point x="444" y="722" type="line"/>
      <point x="58" y="722" type="line"/>
    </contour>
    <contour>
      <point x="371" y="722" type="line"/>
      <point x="50" y="0" type="line"/>
      <point x="177" y="0" type="line"/>
      <point x="444" y="624" type="line"/>
    </contour>
  </outline>
</glyph>
<glyph name="nine" format="1">
  <advance width="525"/>
  <unicode hex="0039"/>
  <outline>
    <contour>
      <point x="382" y="477" type="curve"/>
      <point x="358" y="410"/>
      <point x="326" y="380"/>
      <point x="261" y="380" type="curve"/>
      <point x="197" y="380"/>
      <point x="170" y="434"/>
      <point x="170" y="504" type="curve"/>
      <point x="170" y="566"/>
      <point x="195" y="615"/>
      <point x="250" y="615" type="curve"/>
      <point x="327" y="615"/>
      <point x="354" y="550"/>
      <point x="354" y="464" type="curve"/>
      <point x="354" y="274"/>
      <point x="265" y="150"/>
      <point x="85" y="83" type="curve"/>
      <point x="134" y="-15"/>
      <point x="85" y="83"/>
      <point x="134" y="-15" type="curve"/>
      <point x="340" y="61"/>
      <point x="476" y="223"/>
      <point x="476" y="470" type="curve"/>
      <point x="476" y="625"/>
      <point x="402" y="733"/>
      <point x="255" y="733" type="curve"/>
      <point x="120" y="733"/>
      <point x="47" y="639"/>
      <point x="47" y="499" type="curve"/>
      <point x="47" y="365"/>
      <point x="120" y="277"/>
      <point x="249" y="277" type="curve"/>
      <point x="360" y="277"/>
      <point x="416" y="377"/>
      <point x="443" y="452" type="curve"/>
      <point x="382" y="477"/>
      <point x="443" y="452"/>
    </contour>
  </outline>
</glyph>
<glyph name="colon" format="1">
  <advance width="265"/>
  <unicode hex="003A"/>
  <outline>
    <contour>
      <point x="198" y="367" type="curve"/>
      <point x="198" y="410"/>
      <point x="171" y="432"/>
      <point x="131" y="432" type="curve"/>
      <point x="91" y="432"/>
      <point x="65" y="409"/>
      <point x="65" y="367" type="curve"/>
      <point x="198" y="367"/>
      <point x="65" y="367"/>
      <point x="198" y="367" type="curve"/>
      <point x="198" y="323"/>
      <point x="171" y="303"/>
      <point x="131" y="303" type="curve"/>
      <point x="91" y="303"/>
      <point x="65" y="325"/>
      <point x="65" y="367" type="curve"/>
      <point x="198" y="367"/>
      <point x="65" y="367"/>
    </contour>
    <contour>
      <point x="198" y="59" type="curve"/>
      <point x="198" y="102"/>
      <point x="171" y="124"/>
      <point x="131" y="124" type="curve"/>
      <point x="91" y="124"/>
      <point x="65" y="100"/>
      <point x="65" y="59" type="curve"/>
      <point x="198" y="59"/>
      <point x="65" y="59"/>
      <point x="198" y="59" type="curve"/>
      <point x="198" y="15"/>
      <point x="171" y="-5"/>
      <point x="131" y="-5" type="curve"/>
      <point x="91" y="-5"/>
      <point x="65" y="17"/>
      <point x="65" y="59" type="curve"/>
      <point x="198" y="59"/>
      <point x="65" y="59"/>
    </contour>
  </outline>
</glyph>
<glyph name="semicolon" format="1">
  <advance width="286"/>
  <unicode hex="003B"/>
  <outline>
    <contour>
      <point x="65" y="-201" type="line"/>
      <point x="161" y="-198"/>
      <point x="223" y="-133"/>
      <point x="223" y="-34" type="curve"/>
      <point x="223" y="46"/>
      <point x="190" y="88"/>
      <point x="144" y="88" type="curve"/>
      <point x="101" y="88"/>
      <point x="72" y="65"/>
      <point x="72" y="23" type="curve"/>
      <point x="72" y="-11"/>
      <point x="92" y="-38"/>
      <point x="131" y="-39" type="curve"/>
      <point x="131" y="-65"/>
      <point x="128" y="-118"/>
      <point x="63" y="-131" type="curve"/>
    </contour>
    <contour>
      <point x="210" y="383" type="curve"/>
      <point x="210" y="426"/>
      <point x="182" y="448"/>
      <point x="143" y="448" type="curve"/>
      <point x="103" y="448"/>
      <point x="77" y="424"/>
      <point x="77" y="383" type="curve"/>
      <point x="210" y="383"/>
      <point x="77" y="383"/>
      <point x="210" y="383" type="curve"/>
      <point x="210" y="339"/>
      <point x="183" y="319"/>
      <point x="143" y="319" type="curve"/>
      <point x="102" y="319"/>
      <point x="77" y="341"/>
      <point x="77" y="383" type="curve"/>
      <point x="210" y="383"/>
      <point x="77" y="383"/>
    </contour>
  </outline>
</glyph>
<glyph name="greater" format="1">
  <advance width="554"/>
  <unicode hex="003E"/>
  <outline>
    <contour>
      <point x="66" y="-19" type="curve"/>
      <point x="217" y="71"/>
      <point x="368" y="161"/>
      <point x="519" y="251" type="curve"/>
      <point x="519" y="361"/>
      <point x="519" y="251"/>
      <point x="519" y="361" type="curve"/>
      <point x="368" y="271"/>
      <point x="217" y="181"/>
      <point x="66" y="91" type="curve"/>
      <point x="66" y="-19"/>
      <point x="66" y="91"/>
    </contour>
    <contour>
      <point x="59" y="515" type="curve"/>
      <point x="212" y="427"/>
      <point x="365" y="339"/>
      <point x="519" y="251" type="curve"/>
      <point x="519" y="361"/>
      <point x="519" y="251"/>
      <point x="519" y="361" type="curve"/>
      <point x="365" y="449"/>
      <point x="212" y="537"/>
      <point x="59" y="625" type="curve"/>
      <point x="59" y="515"/>
      <point x="59" y="625"/>
    </contour>
  </outline>
</glyph>
<glyph name="A" format="1">
  <advance width="664"/>
  <unicode hex="0041"/>
  <outline>
    <contour>
      <point x="120" y="98" type="curve"/>
      <point x="-17" y="98"/>
      <point x="132" y="98"/>
      <point x="-6" y="98" type="curve"/>
      <point x="-6" y="0"/>
      <point x="-6" y="98"/>
      <point x="-6" y="0" type="curve"/>
      <point x="40" y="0"/>
      <point x="75" y="0"/>
      <point x="119" y="0" type="curve"/>
      <point x="120" y="98"/>
      <point x="119" y="0"/>
    </contour>
    <contour>
      <point x="120" y="0" type="curve"/>
      <point x="175" y="0"/>
      <point x="118" y="0"/>
      <point x="282" y="0" type="curve"/>
      <point x="282" y="98"/>
      <point x="282" y="0"/>
      <point x="282" y="98" type="curve"/>
      <point x="118" y="98"/>
      <point x="285" y="98"/>
      <point x="120" y="98" type="curve"/>
      <point x="120" y="0"/>
      <point x="120" y="98"/>
    </contour>
    <contour>
      <point x="527" y="0" type="curve"/>
      <point x="572" y="0"/>
      <point x="606" y="0"/>
      <point x="652" y="0" type="curve"/>
      <point x="652" y="98"/>
      <point x="652" y="0"/>
      <point x="652" y="98" type="curve"/>
      <point x="515" y="98"/>
      <point x="663" y="98"/>
      <point x="527" y="98" type="curve"/>
      <point x="527" y="0"/>
      <point x="527" y="98"/>
    </contour>
    <contour>
      <point x="527" y="98" type="curve"/>
      <point x="361" y="98"/>
      <point x="529" y="98"/>
      <point x="364" y="98" type="curve"/>
      <point x="364" y="0"/>
      <point x="364" y="98"/>
      <point x="364" y="0" type="curve"/>
      <point x="419" y="0"/>
      <point x="471" y="0"/>
      <point x="527" y="0" type="curve"/>
      <point x="527" y="98"/>
      <point x="527" y="0"/>
    </contour>
    <contour>
      <point x="442" y="292" type="curve"/>
      <point x="369" y="292"/>
      <point x="295" y="292"/>
      <point x="221" y="292" type="curve"/>
      <point x="169" y="187"/>
      <point x="221" y="292"/>
      <point x="169" y="187" type="curve"/>
      <point x="273" y="187"/>
      <point x="378" y="187"/>
      <point x="483" y="187" type="curve"/>
      <point x="442" y="292"/>
      <point x="483" y="187"/>
    </contour>
    <contour>
      <point x="601" y="0" type="curve"/>
      <point x="534" y="241"/>
      <point x="461" y="481"/>
      <point x="393" y="722" type="curve"/>
      <point x="278" y="722"/>
      <point x="393" y="722"/>
      <point x="278" y="722" type="curve"/>
      <point x="343" y="482"/>
      <point x="402" y="240"/>
      <point x="469" y="0" type="curve"/>
      <point x="601" y="0"/>
      <point x="469" y="0"/>
    </contour>
    <contour>
      <point x="181" y="0" type="curve"/>
      <point x="254" y="240"/>
      <point x="318" y="482"/>
      <point x="392" y="722" type="curve"/>
      <point x="276" y="722"/>
      <point x="392" y="722"/>
      <point x="276" y="722" type="curve"/>
      <point x="201" y="480"/>
      <point x="116" y="242"/>
      <point x="42" y="0" type="curve"/>
      <point x="181" y="0"/>
      <point x="42" y="0"/>
    </contour>
    <contour>
      <point x="332" y="786" type="move" name="top"/>
    </contour>
    <contour>
      <point x="591" y="4" type="move" name="bottom"/>
    </contour>
  </outline>
</glyph>
<glyph name="B" format="1">
  <advance width="597"/>
  <unicode hex="0042"/>
  <outline>
    <contour>
      <point x="191" y="722" type="curve"/>
      <point x="146" y="722"/>
      <point x="104" y="722"/>
      <point x="60" y="722" type="curve"/>
      <point x="60" y="624"/>
      <point x="60" y="722"/>
      <point x="60" y="624" type="curve"/>
      <point x="193" y="624"/>
      <point x="58" y="624"/>
      <point x="191" y="624" type="curve"/>
      <point x="191" y="722"/>
      <point x="191" y="624"/>
    </contour>
    <contour>
      <point x="190" y="98" type="curve"/>
      <point x="57" y="98"/>
      <point x="192" y="98"/>
      <point x="59" y="98" type="curve"/>
      <point x="59" y="0"/>
      <point x="59" y="98"/>
      <point x="59" y="0" type="curve"/>
      <point x="104" y="0"/>
      <point x="146" y="0"/>
      <point x="190" y="0" type="curve"/>
      <point x="190" y="98"/>
      <point x="190" y="0"/>
    </contour>
    <contour>
      <point x="183" y="624" type="curve"/>
      <point x="232" y="624"/>
      <point x="264" y="624"/>
      <point x="313" y="624" type="curve"/>
      <point x="367" y="624"/>
      <point x="389" y="588"/>
      <point x="389" y="539" type="curve"/>
      <point x="389" y="490"/>
      <point x="367" y="454"/>
      <point x="318" y="454" type="curve"/>
      <point x="267" y="454"/>
      <point x="233" y="454"/>
      <point x="183" y="454" type="curve"/>
      <point x="183" y="416"/>
      <point x="183" y="392"/>
      <point x="183" y="355" type="curve"/>
      <point x="218" y="355"/>
      <point x="241" y="355"/>
      <point x="276" y="355" type="curve"/>
      <point x="391" y="355"/>
      <point x="515" y="406"/>
      <point x="515" y="533" type="curve"/>
      <point x="515" y="653"/>
      <point x="443" y="722"/>
      <point x="322" y="722" type="curve"/>
      <point x="269" y="722"/>
      <point x="235" y="722"/>
      <point x="183" y="722" type="curve"/>
      <point x="183" y="684"/>
      <point x="183" y="661"/>
    </contour>
    <contour>
      <point x="257" y="0" type="curve"/>
      <point x="257" y="241"/>
      <point x="257" y="481"/>
      <point x="257" y="722" type="curve"/>
      <point x="125" y="722"/>
      <point x="257" y="722"/>
      <point x="125" y="722" type="curve"/>
      <point x="125" y="481"/>
      <point x="125" y="241"/>
      <point x="125" y="0" type="curve"/>
      <point x="257" y="0"/>
      <point x="125" y="0"/>
    </contour>
    <contour>
      <point x="183" y="355" type="curve"/>
      <point x="233" y="355"/>
      <point x="267" y="355"/>
      <point x="318" y="355" type="curve"/>
      <point x="393" y="355"/>
      <point x="424" y="300"/>
      <point x="424" y="225" type="curve"/>
      <point x="424" y="151"/>
      <point x="391" y="98"/>
      <point x="318" y="98" type="curve"/>
      <point x="267" y="98"/>
      <point x="234" y="98"/>
      <point x="183" y="98" type="curve"/>
      <point x="183" y="61"/>
      <point x="183" y="38"/>
      <point x="183" y="0" type="curve"/>
      <point x="237" y="0"/>
      <point x="272" y="0"/>
      <point x="327" y="0" type="curve"/>
      <point x="466" y="0"/>
      <point x="551" y="82"/>
      <point x="551" y="221" type="curve"/>
      <point x="551" y="377"/>
      <point x="428" y="454"/>
      <point x="276" y="454" type="curve"/>
      <point x="241" y="454"/>
      <point x="218" y="454"/>
      <point x="183" y="454" type="curve"/>
      <point x="183" y="416"/>
      <point x="183" y="392"/>
    </contour>
  </outline>
</glyph>
<glyph name="C" format="1">
  <advance width="598"/>
  <unicode hex="0043"/>
  <outline>
    <contour>
      <point x="441" y="654" type="curve"/>
      <point x="441" y="534"/>
      <point x="441" y="654"/>
      <point x="441" y="534" type="curve"/>
      <point x="541" y="534"/>
      <point x="441" y="534"/>
      <point x="541" y="534" type="curve"/>
      <point x="541" y="654"/>
      <point x="541" y="534"/>
      <point x="541" y="654" type="curve"/>
      <point x="441" y="654"/>
      <point x="541" y="654"/>
    </contour>
    <contour>
      <point x="541" y="654" type="curve"/>
      <point x="485" y="697"/>
      <point x="417" y="727"/>
      <point x="339" y="727" type="curve"/>
      <point x="139" y="727"/>
      <point x="50" y="569"/>
      <point x="50" y="345" type="curve"/>
      <point x="50" y="139"/>
      <point x="136" y="-5"/>
      <point x="325" y="-5" type="curve"/>
      <point x="426" y="-5"/>
      <point x="493" y="30"/>
      <point x="553" y="99" type="curve"/>
      <point x="479" y="172"/>
      <point x="553" y="99"/>
      <point x="479" y="172" type="curve"/>
      <point x="435" y="127"/>
      <point x="395" y="98"/>
      <point x="331" y="98" type="curve"/>
      <point x="209" y="98"/>
      <point x="177" y="209"/>
      <point x="177" y="349" type="curve"/>
      <point x="177" y="502"/>
      <point x="207" y="624"/>
      <point x="335" y="624" type="curve"/>
      <point x="388" y="624"/>
      <point x="434" y="605"/>
      <point x="472" y="576" type="curve"/>
      <point x="541" y="654"/>
      <point x="472" y="576"/>
    </contour>
    <contour>
      <point x="332" y="786" type="move" name="top"/>
    </contour>
    <contour>
      <point x="363" y="4" type="move" name="bottom"/>
    </contour>
  </outline>
</glyph>
<glyph name="F" format="1">
  <advance width="517"/>
  <unicode hex="0046"/>
  <outline>
    <contour>
      <point x="192" y="0" type="curve"/>
      <point x="238" y="0"/>
      <point x="192" y="0"/>
      <point x="330" y="0" type="curve"/>
      <point x="330" y="98"/>
      <point x="330" y="0"/>
      <point x="330" y="98" type="curve"/>
      <point x="192" y="98"/>
      <point x="330" y="98"/>
      <point x="192" y="98" type="curve"/>
      <point x="192" y="0"/>
      <point x="192" y="98"/>
    </contour>
    <contour>
      <point x="192" y="722" type="curve"/>
      <point x="148" y="722"/>
      <point x="104" y="722"/>
      <point x="59" y="722" type="curve"/>
      <point x="59" y="624"/>
      <point x="59" y="722"/>
      <point x="59" y="624" type="curve"/>
      <point x="195" y="624"/>
      <point x="56" y="624"/>
      <point x="192" y="624" type="curve"/>
      <point x="192" y="722"/>
      <point x="192" y="624"/>
    </contour>
    <contour>
      <point x="192" y="98" type="curve"/>
      <point x="56" y="98"/>
      <point x="195" y="98"/>
      <point x="59" y="98" type="curve"/>
      <point x="59" y="0"/>
      <point x="59" y="98"/>
      <point x="59" y="0" type="curve"/>
      <point x="104" y="0"/>
      <point x="148" y="0"/>
      <point x="192" y="0" type="curve"/>
      <point x="192" y="98"/>
      <point x="192" y="0"/>
    </contour>
    <contour>
      <point x="390" y="673" type="curve"/>
      <point x="390" y="553"/>
      <point x="390" y="674"/>
      <point x="390" y="554" type="curve"/>
      <point x="490" y="554"/>
      <point x="390" y="554"/>
      <point x="490" y="554" type="curve"/>
      <point x="490" y="674"/>
      <point x="490" y="553"/>
      <point x="490" y="673" type="curve"/>
      <point x="390" y="673"/>
      <point x="490" y="673"/>
    </contour>
    <contour>
      <point x="195" y="323" type="curve"/>
      <point x="276" y="323"/>
      <point x="355" y="323"/>
      <point x="435" y="323" type="curve"/>
      <point x="435" y="422"/>
      <point x="435" y="323"/>
      <point x="435" y="422" type="curve"/>
      <point x="355" y="422"/>
      <point x="276" y="422"/>
      <point x="195" y="422" type="curve"/>
      <point x="195" y="323"/>
      <point x="195" y="422"/>
    </contour>
    <contour>
      <point x="257" y="0" type="curve"/>
      <point x="257" y="722" type="line"/>
      <point x="129" y="722"/>
      <point x="257" y="722"/>
      <point x="129" y="722" type="curve"/>
      <point x="129" y="481"/>
      <point x="129" y="241"/>
      <point x="129" y="0" type="curve"/>
      <point x="257" y="0"/>
      <point x="129" y="0"/>
    </contour>
    <contour>
      <point x="184" y="624" type="curve"/>
      <point x="286" y="624"/>
      <point x="388" y="624"/>
      <point x="490" y="624" type="curve"/>
      <point x="490" y="722"/>
      <point x="490" y="624"/>
      <point x="490" y="722" type="curve"/>
      <point x="388" y="722"/>
      <point x="286" y="722"/>
      <point x="184" y="722" type="curve"/>
      <point x="184" y="624"/>
      <point x="184" y="722"/>
    </contour>
  </outline>
</glyph>
<glyph name="H" format="1">
  <advance width="711"/>
  <unicode hex="0048"/>
  <outline>
    <contour>
      <point x="540" y="624" type="curve"/>
      <point x="676" y="624"/>
      <point x="537" y="624"/>
      <point x="674" y="624" type="curve"/>
      <point x="674" y="722"/>
      <point x="674" y="624"/>
      <point x="674" y="722" type="curve"/>
      <point x="628" y="722"/>
      <point x="585" y="722"/>
      <point x="540" y="722" type="curve"/>
      <point x="540" y="624"/>
      <point x="540" y="722"/>
    </contour>
    <contour>
      <point x="540" y="0" type="curve"/>
      <point x="585" y="0"/>
      <point x="628" y="0"/>
      <point x="674" y="0" type="curve"/>
      <point x="674" y="98"/>
      <point x="674" y="0"/>
      <point x="674" y="98" type="curve"/>
      <point x="537" y="98"/>
      <point x="676" y="98"/>
      <point x="540" y="98" type="curve"/>
      <point x="540" y="0"/>
      <point x="540" y="98"/>
    </contour>
    <contour>
      <point x="540" y="98" type="curve"/>
      <point x="404" y="98"/>
      <point x="542" y="98"/>
      <point x="406" y="98" type="curve"/>
      <point x="406" y="0"/>
      <point x="406" y="98"/>
      <point x="406" y="0" type="curve"/>
      <point x="451" y="0"/>
      <point x="494" y="0"/>
      <point x="540" y="0" type="curve"/>
      <point x="540" y="98"/>
      <point x="540" y="0"/>
    </contour>
    <contour>
      <point x="540" y="722" type="curve"/>
      <point x="494" y="722"/>
      <point x="451" y="722"/>
      <point x="406" y="722" type="curve"/>
      <point x="406" y="624"/>
      <point x="406" y="722"/>
      <point x="406" y="624" type="curve"/>
      <point x="542" y="624"/>
      <point x="404" y="624"/>
      <point x="540" y="624" type="curve"/>
      <point x="540" y="722"/>
      <point x="540" y="624"/>
    </contour>
    <contour>
      <point x="172" y="624" type="curve"/>
      <point x="309" y="624"/>
      <point x="169" y="624"/>
      <point x="307" y="624" type="curve"/>
      <point x="307" y="722"/>
      <point x="307" y="624"/>
      <point x="307" y="722" type="curve"/>
      <point x="261" y="722"/>
      <point x="218" y="722"/>
      <point x="172" y="722" type="curve"/>
      <point x="172" y="624"/>
      <point x="172" y="722"/>
    </contour>
    <contour>
      <point x="172" y="722" type="curve"/>
      <point x="127" y="722"/>
      <point x="84" y="722"/>
      <point x="38" y="722" type="curve"/>
      <point x="38" y="624"/>
      <point x="38" y="722"/>
      <point x="38" y="624" type="curve"/>
      <point x="175" y="624"/>
      <point x="36" y="624"/>
      <point x="172" y="624" type="curve"/>
      <point x="172" y="722"/>
      <point x="172" y="624"/>
    </contour>
    <contour>
      <point x="172" y="0" type="curve"/>
      <point x="218" y="0"/>
      <point x="169" y="0"/>
      <point x="307" y="0" type="curve"/>
      <point x="307" y="98"/>
      <point x="307" y="0"/>
      <point x="307" y="98" type="curve"/>
      <point x="169" y="98"/>
      <point x="309" y="98"/>
      <point x="172" y="98" type="curve"/>
      <point x="172" y="0"/>
      <point x="172" y="98"/>
    </contour>
    <contour>
      <point x="172" y="98" type="curve"/>
      <point x="36" y="98"/>
      <point x="175" y="98"/>
      <point x="38" y="98" type="curve"/>
      <point x="38" y="0"/>
      <point x="38" y="98"/>
      <point x="38" y="0" type="curve"/>
      <point x="84" y="0"/>
      <point x="127" y="0"/>
      <point x="172" y="0" type="curve"/>
      <point x="172" y="98"/>
      <point x="172" y="0"/>
    </contour>
    <contour>
      <point x="236" y="0" type="curve"/>
      <point x="236" y="722" type="line"/>
      <point x="109" y="722"/>
      <point x="236" y="722"/>
      <point x="109" y="722" type="curve"/>
      <point x="109" y="481"/>
      <point x="109" y="241"/>
      <point x="109" y="0" type="curve"/>
      <point x="236" y="0"/>
      <point x="109" y="0"/>
    </contour>
    <contour>
      <point x="538" y="412" type="curve"/>
      <point x="416" y="412"/>
      <point x="293" y="412"/>
      <point x="172" y="412" type="curve"/>
      <point x="172" y="313"/>
      <point x="172" y="412"/>
      <point x="172" y="313" type="curve"/>
      <point x="293" y="313"/>
      <point x="416" y="313"/>
      <point x="538" y="313" type="curve"/>
      <point x="538" y="412"/>
      <point x="538" y="313"/>
    </contour>
    <contour>
      <point x="603" y="41" type="curve"/>
      <point x="603" y="254"/>
      <point x="603" y="468"/>
      <point x="603" y="681" type="curve"/>
      <point x="476" y="681"/>
      <point x="603" y="681"/>
      <point x="476" y="681" type="curve"/>
      <point x="476" y="41" type="line"/>
      <point x="603" y="41"/>
      <point x="476" y="41"/>
    </contour>
  </outline>
</glyph>
<glyph name="I" format="1">
  <advance width="345"/>
  <unicode hex="0049"/>
  <outline>
    <contour>
      <point x="174" y="722" type="curve"/>
      <point x="128" y="722"/>
      <point x="85" y="722"/>
      <point x="39" y="722" type="curve"/>
      <point x="39" y="624"/>
      <point x="39" y="722"/>
      <point x="39" y="624" type="curve"/>
      <point x="177" y="624"/>
      <point x="37" y="624"/>
      <point x="174" y="624" type="curve"/>
      <point x="174" y="722"/>
      <point x="174" y="624"/>
    </contour>
    <contour>
      <point x="174" y="624" type="curve"/>
      <point x="310" y="624"/>
      <point x="171" y="624"/>
      <point x="308" y="624" type="curve"/>
      <point x="308" y="722"/>
      <point x="308" y="624"/>
      <point x="308" y="722" type="curve"/>
      <point x="262" y="722"/>
      <point x="219" y="722"/>
      <point x="174" y="722" type="curve"/>
      <point x="174" y="624"/>
      <point x="174" y="722"/>
    </contour>
    <contour>
      <point x="174" y="0" type="curve"/>
      <point x="219" y="0"/>
      <point x="262" y="0"/>
      <point x="308" y="0" type="curve"/>
      <point x="308" y="98"/>
      <point x="308" y="0"/>
      <point x="308" y="98" type="curve"/>
      <point x="171" y="98"/>
      <point x="310" y="98"/>
      <point x="174" y="98" type="curve"/>
      <point x="174" y="0"/>
      <point x="174" y="98"/>
    </contour>
    <contour>
      <point x="174" y="98" type="curve"/>
      <point x="37" y="98"/>
      <point x="177" y="98"/>
      <point x="39" y="98" type="curve"/>
      <point x="39" y="0"/>
      <point x="39" y="98"/>
      <point x="39" y="0" type="curve"/>
      <point x="85" y="0"/>
      <point x="128" y="0"/>
      <point x="174" y="0" type="curve"/>
      <point x="174" y="98"/>
      <point x="174" y="0"/>
    </contour>
    <contour>
      <point x="236" y="0" type="curve"/>
      <point x="236" y="241"/>
      <point x="236" y="481"/>
      <point x="236" y="722" type="curve"/>
      <point x="109" y="722"/>
      <point x="236" y="722"/>
      <point x="109" y="722" type="curve"/>
      <point x="109" y="481"/>
      <point x="109" y="241"/>
      <point x="109" y="0" type="curve"/>
      <point x="236" y="0"/>
      <point x="109" y="0"/>
    </contour>
    <contour>
      <point x="175" y="786" type="move" name="top"/>
    </contour>
    <contour>
      <point x="227" y="4" type="move" name="bottom"/>
    </contour>
  </outline>
</glyph>
<glyph name="K" format="1">
  <advance width="638"/>
  <unicode hex="004B"/>
  <outline>
    <contour>
      <point x="477" y="722" type="curve"/>
      <point x="431" y="722"/>
      <point x="384" y="722"/>
      <point x="339" y="722" type="curve"/>
      <point x="339" y="624"/>
      <point x="339" y="722"/>
      <point x="339" y="624" type="curve"/>
      <point x="477" y="624"/>
      <point x="339" y="624"/>
      <point x="477" y="624" type="curve"/>
      <point x="477" y="722"/>
      <point x="477" y="624"/>
    </contour>
    <contour>
      <point x="476" y="0" type="curve"/>
      <point x="539" y="0"/>
      <point x="547" y="0"/>
      <point x="610" y="0" type="curve"/>
      <point x="610" y="98"/>
      <point x="610" y="0"/>
      <point x="610" y="98" type="curve"/>
      <point x="423" y="98"/>
      <point x="664" y="98"/>
      <point x="476" y="98" type="curve"/>
      <point x="476" y="0"/>
      <point x="476" y="98"/>
    </contour>
    <contour>
      <point x="451" y="624" type="curve"/>
      <point x="588" y="624"/>
      <point x="447" y="624"/>
      <point x="584" y="624" type="curve"/>
      <point x="584" y="722"/>
      <point x="584" y="624"/>
      <point x="584" y="722" type="curve"/>
      <point x="539" y="722"/>
      <point x="497" y="722"/>
      <point x="451" y="722" type="curve"/>
      <point x="451" y="624"/>
      <point x="451" y="722"/>
    </contour>
    <contour>
      <point x="168" y="722" type="curve"/>
      <point x="124" y="722"/>
      <point x="82" y="722"/>
      <point x="38" y="722" type="curve"/>
      <point x="38" y="624"/>
      <point x="38" y="722"/>
      <point x="38" y="624" type="curve"/>
      <point x="171" y="624"/>
      <point x="36" y="624"/>
      <point x="168" y="624" type="curve"/>
      <point x="168" y="722"/>
      <point x="168" y="624"/>
    </contour>
    <contour>
      <point x="168" y="624" type="curve"/>
      <point x="306" y="624"/>
      <point x="133" y="624"/>
      <point x="270" y="624" type="curve"/>
      <point x="270" y="722"/>
      <point x="270" y="624"/>
      <point x="270" y="722" type="curve"/>
      <point x="225" y="722"/>
      <point x="214" y="722"/>
      <point x="168" y="722" type="curve"/>
      <point x="168" y="624"/>
      <point x="168" y="722"/>
    </contour>
    <contour>
      <point x="168" y="0" type="curve"/>
      <point x="218" y="0"/>
      <point x="132" y="0"/>
      <point x="282" y="0" type="curve"/>
      <point x="282" y="98"/>
      <point x="282" y="0"/>
      <point x="282" y="98" type="curve"/>
      <point x="132" y="98"/>
      <point x="317" y="98"/>
      <point x="168" y="98" type="curve"/>
      <point x="168" y="0"/>
      <point x="168" y="98"/>
    </contour>
    <contour>
      <point x="168" y="98" type="curve"/>
      <point x="36" y="98"/>
      <point x="171" y="98"/>
      <point x="38" y="98" type="curve"/>
      <point x="38" y="0"/>
      <point x="38" y="98"/>
      <point x="38" y="0" type="curve"/>
      <point x="82" y="0"/>
      <point x="124" y="0"/>
      <point x="168" y="0" type="curve"/>
      <point x="168" y="98"/>
      <point x="168" y="0"/>
    </contour>
    <contour>
      <point x="455" y="722" type="curve"/>
      <point x="219" y="380" type="line"/>
      <point x="356" y="380"/>
      <point x="219" y="380"/>
      <point x="355" y="380" type="curve"/>
      <point x="545" y="666" type="line"/>
      <point x="454" y="666"/>
      <point x="546" y="722"/>
    </contour>
    <contour>
      <point x="233" y="0" type="curve"/>
      <point x="233" y="722" type="line"/>
      <point x="105" y="722"/>
      <point x="233" y="722"/>
      <point x="105" y="722" type="curve"/>
      <point x="105" y="481"/>
      <point x="105" y="241"/>
      <point x="105" y="0" type="curve"/>
      <point x="233" y="0"/>
      <point x="105" y="0"/>
    </contour>
    <contour>
      <point x="575" y="45" type="curve"/>
      <point x="355" y="380" type="line"/>
      <point x="219" y="380"/>
      <point x="356" y="380"/>
      <point x="219" y="380" type="curve"/>
      <point x="472" y="0" type="line"/>
      <point x="576" y="0"/>
      <point x="471" y="45"/>
    </contour>
    <contour>
      <point x="349" y="-11" type="move" name="bottom"/>
    </contour>
  </outline>
</glyph>
<glyph name="M" format="1">
  <advance width="800"/>
  <unicode hex="004D"/>
  <outline>
    <contour>
      <point x="656" y="0" type="curve"/>
      <point x="699" y="0"/>
      <point x="739" y="0"/>
      <point x="782" y="0" type="curve"/>
      <point x="782" y="98"/>
      <point x="782" y="0"/>
      <point x="782" y="98" type="curve"/>
      <point x="653" y="98"/>
      <point x="784" y="98"/>
      <point x="656" y="98" type="curve"/>
      <point x="656" y="0"/>
      <point x="656" y="98"/>
    </contour>
    <contour>
      <point x="656" y="98" type="curve"/>
      <point x="537" y="98"/>
      <point x="658" y="98"/>
      <point x="539" y="98" type="curve"/>
      <point x="539" y="0"/>
      <point x="539" y="98"/>
      <point x="539" y="0" type="curve"/>
      <point x="580" y="0"/>
      <point x="617" y="0"/>
      <point x="656" y="0" type="curve"/>
      <point x="656" y="98"/>
      <point x="656" y="0"/>
    </contour>
    <contour>
      <point x="145" y="98" type="curve"/>
      <point x="16" y="98"/>
      <point x="148" y="98"/>
      <point x="19" y="98" type="curve"/>
      <point x="19" y="0"/>
      <point x="19" y="98"/>
      <point x="19" y="0" type="curve"/>
      <point x="62" y="0"/>
      <point x="103" y="0"/>
      <point x="145" y="0" type="curve"/>
      <point x="145" y="98"/>
      <point x="145" y="0"/>
    </contour>
    <contour>
      <point x="188" y="722" type="curve"/>
      <point x="145" y="722"/>
      <point x="105" y="722"/>
      <point x="63" y="722" type="curve"/>
      <point x="62" y="624"/>
      <point x="63" y="722"/>
      <point x="62" y="624" type="curve"/>
      <point x="190" y="624"/>
      <point x="59" y="624"/>
      <point x="188" y="624" type="curve"/>
      <point x="188" y="722"/>
      <point x="188" y="624"/>
    </contour>
    <contour>
      <point x="611" y="624" type="curve"/>
      <point x="739" y="624"/>
      <point x="608" y="624"/>
      <point x="736" y="624" type="curve"/>
      <point x="736" y="722"/>
      <point x="736" y="624"/>
      <point x="736" y="722" type="curve"/>
      <point x="694" y="722"/>
      <point x="653" y="722"/>
      <point x="611" y="722" type="curve"/>
      <point x="611" y="624"/>
      <point x="611" y="722"/>
    </contour>
    <contour>
      <point x="145" y="0" type="curve"/>
      <point x="185" y="0"/>
      <point x="142" y="0"/>
      <point x="261" y="0" type="curve"/>
      <point x="261" y="98"/>
      <point x="261" y="0"/>
      <point x="261" y="98" type="curve"/>
      <point x="142" y="98"/>
      <point x="264" y="98"/>
      <point x="145" y="98" type="curve"/>
      <point x="145" y="0"/>
      <point x="145" y="98"/>
    </contour>
    <contour>
      <point x="727" y="0" type="curve"/>
      <point x="711" y="241"/>
      <point x="691" y="481"/>
      <point x="676" y="722" type="curve"/>
      <point x="560" y="722"/>
      <point x="676" y="722"/>
      <point x="560" y="722" type="curve"/>
      <point x="575" y="481"/>
      <point x="584" y="241"/>
      <point x="599" y="0" type="curve"/>
      <point x="727" y="0"/>
      <point x="599" y="0"/>
    </contour>
    <contour>
      <point x="198" y="0" type="curve"/>
      <point x="212" y="241"/>
      <point x="225" y="481"/>
      <point x="239" y="722" type="curve"/>
      <point x="132" y="722"/>
      <point x="239" y="722"/>
      <point x="132" y="722" type="curve"/>
      <point x="117" y="481"/>
      <point x="103" y="241"/>
      <point x="89" y="0" type="curve"/>
      <point x="198" y="0"/>
      <point x="89" y="0"/>
    </contour>
    <contour>
      <point x="450" y="0" type="curve"/>
      <point x="381" y="241"/>
      <point x="311" y="481"/>
      <point x="241" y="722" type="curve"/>
      <point x="134" y="722"/>
      <point x="241" y="722"/>
      <point x="134" y="722" type="curve"/>
      <point x="204" y="481"/>
      <point x="273" y="241"/>
      <point x="342" y="0" type="curve"/>
      <point x="450" y="0"/>
      <point x="342" y="0"/>
    </contour>
    <contour>
      <point x="457" y="0" type="curve"/>
      <point x="526" y="241"/>
      <point x="594" y="481"/>
      <point x="662" y="722" type="curve"/>
      <point x="555" y="722"/>
      <point x="662" y="722"/>
      <point x="555" y="722" type="curve"/>
      <point x="486" y="481"/>
      <point x="417" y="241"/>
      <point x="348" y="0" type="curve"/>
      <point x="457" y="0"/>
      <point x="348" y="0"/>
    </contour>
  </outline>
</glyph>
<glyph name="P" format="1">
  <advance width="560"/>
  <unicode hex="0050"/>
  <outline>
    <contour>
      <point x="193" y="722" type="curve"/>
      <point x="148" y="722"/>
      <point x="105" y="722"/>
      <point x="60" y="722" type="curve"/>
      <point x="60" y="624"/>
      <point x="60" y="722"/>
      <point x="60" y="624" type="curve"/>
      <point x="196" y="624"/>
      <point x="57" y="624"/>
      <point x="193" y="624" type="curve"/>
      <point x="193" y="722"/>
      <point x="193" y="624"/>
    </contour>
    <contour>
      <point x="193" y="98" type="curve"/>
      <point x="57" y="98"/>
      <point x="196" y="98"/>
      <point x="60" y="98" type="curve"/>
      <point x="60" y="0"/>
      <point x="60" y="98"/>
      <point x="60" y="0" type="curve"/>
      <point x="105" y="0"/>
      <point x="148" y="0"/>
      <point x="193" y="0" type="curve"/>
      <point x="193" y="98"/>
      <point x="193" y="0"/>
    </contour>
    <contour>
      <point x="193" y="0" type="curve"/>
      <point x="239" y="0"/>
      <point x="191" y="0"/>
      <point x="328" y="0" type="curve"/>
      <point x="328" y="98"/>
      <point x="328" y="0"/>
      <point x="328" y="98" type="curve"/>
      <point x="191" y="98"/>
      <point x="330" y="98"/>
      <point x="193" y="98" type="curve"/>
      <point x="193" y="0"/>
      <point x="193" y="98"/>
    </contour>
    <contour>
      <point x="175" y="302" type="curve"/>
      <point x="222" y="272"/>
      <point x="273" y="256"/>
      <point x="333" y="256" type="curve"/>
      <point x="452" y="258"/>
      <point x="526" y="341"/>
      <point x="526" y="478" type="curve"/>
      <point x="526" y="622"/>
      <point x="439" y="722"/>
      <point x="298" y="722" type="curve"/>
      <point x="264" y="722"/>
      <point x="230" y="722"/>
      <point x="196" y="722" type="curve"/>
      <point x="196" y="624"/>
      <point x="196" y="722"/>
      <point x="196" y="624" type="curve"/>
      <point x="224" y="624"/>
      <point x="252" y="624"/>
      <point x="281" y="624" type="curve"/>
      <point x="359" y="624"/>
      <point x="399" y="562"/>
      <point x="399" y="482" type="curve"/>
      <point x="399" y="409"/>
      <point x="376" y="350"/>
      <point x="315" y="350" type="curve"/>
      <point x="275" y="350"/>
      <point x="249" y="363"/>
      <point x="215" y="383" type="curve"/>
      <point x="176" y="304"/>
      <point x="215" y="383"/>
    </contour>
    <contour>
      <point x="256" y="0" type="curve"/>
      <point x="256" y="241"/>
      <point x="256" y="481"/>
      <point x="256" y="722" type="curve"/>
      <point x="129" y="722"/>
      <point x="256" y="722"/>
      <point x="129" y="722" type="curve"/>
      <point x="129" y="481"/>
      <point x="129" y="241"/>
      <point x="129" y="0" type="curve"/>
      <point x="256" y="0"/>
      <point x="129" y="0"/>
    </contour>
  </outline>
</glyph>
<glyph name="Q" format="1">
  <advance width="636"/>
  <unicode hex="0051"/>
  <outline>
    <contour>
      <point x="280" y="24" type="curve"/>
      <point x="356" y="-142"/>
      <point x="458" y="-215"/>
      <point x="630" y="-215" type="curve"/>
      <point x="630" y="-111"/>
      <point x="630" y="-215"/>
      <point x="630" y="-111" type="curve"/>
      <point x="509" y="-111"/>
      <point x="445" y="-47"/>
      <point x="390" y="73" type="curve"/>
      <point x="280" y="24"/>
      <point x="390" y="73"/>
    </contour>
    <contour>
      <point x="176" y="360" type="curve"/>
      <point x="176" y="500"/>
      <point x="204" y="618"/>
      <point x="325" y="618" type="curve"/>
      <point x="447" y="618"/>
      <point x="480" y="502"/>
      <point x="480" y="360" type="curve"/>
      <point x="480" y="220"/>
      <point x="454" y="98"/>
      <point x="333" y="98" type="curve"/>
      <point x="209" y="99"/>
      <point x="176" y="218"/>
      <point x="176" y="360" type="curve"/>
      <point x="49" y="360"/>
      <point x="176" y="360"/>
      <point x="49" y="360" type="curve"/>
      <point x="49" y="152"/>
      <point x="137" y="-5"/>
      <point x="327" y="-5" type="curve"/>
      <point x="520" y="-5"/>
      <point x="608" y="155"/>
      <point x="608" y="366" type="curve"/>
      <point x="608" y="572"/>
      <point x="524" y="731"/>
      <point x="335" y="731" type="curve"/>
      <point x="141" y="731"/>
      <point x="49" y="570"/>
      <point x="49" y="360" type="curve"/>
      <point x="176" y="360"/>
      <point x="49" y="360"/>
    </contour>
  </outline>
</glyph>
<glyph name="T" format="1">
  <advance width="510"/>
  <unicode hex="0054"/>
  <outline>
    <contour>
      <point x="25" y="672" type="curve"/>
      <point x="25" y="552"/>
      <point x="25" y="673"/>
      <point x="25" y="553" type="curve"/>
      <point x="124" y="553"/>
      <point x="25" y="553"/>
      <point x="124" y="553" type="curve"/>
      <point x="124" y="673"/>
      <point x="124" y="552"/>
      <point x="124" y="672" type="curve"/>
      <point x="25" y="672"/>
      <point x="124" y="672"/>
    </contour>
    <contour>
      <point x="385" y="672" type="curve"/>
      <point x="385" y="552"/>
      <point x="385" y="673"/>
      <point x="385" y="553" type="curve"/>
      <point x="485" y="553"/>
      <point x="385" y="553"/>
      <point x="485" y="553" type="curve"/>
      <point x="485" y="673"/>
      <point x="485" y="552"/>
      <point x="485" y="672" type="curve"/>
      <point x="385" y="672"/>
      <point x="485" y="672"/>
    </contour>
    <contour>
      <point x="254" y="0" type="curve"/>
      <point x="299" y="0"/>
      <point x="343" y="0"/>
      <point x="388" y="0" type="curve"/>
      <point x="388" y="98"/>
      <point x="388" y="0"/>
      <point x="388" y="98" type="curve"/>
      <point x="253" y="98"/>
      <point x="389" y="98"/>
      <point x="254" y="98" type="curve"/>
      <point x="254" y="0"/>
      <point x="254" y="98"/>
    </contour>
    <contour>
      <point x="254" y="98" type="curve"/>
      <point x="119" y="98"/>
      <point x="255" y="98"/>
      <point x="120" y="98" type="curve"/>
      <point x="120" y="0"/>
      <point x="120" y="98"/>
      <point x="120" y="0" type="curve"/>
      <point x="165" y="0"/>
      <point x="209" y="0"/>
      <point x="254" y="0" type="curve"/>
      <point x="254" y="98"/>
      <point x="254" y="0"/>
    </contour>
    <contour>
      <point x="319" y="0" type="curve"/>
      <point x="319" y="237"/>
      <point x="319" y="473"/>
      <point x="319" y="710" type="curve"/>
      <point x="191" y="710"/>
      <point x="319" y="710"/>
      <point x="191" y="710" type="curve"/>
      <point x="191" y="473"/>
      <point x="191" y="237"/>
      <point x="191" y="0" type="curve"/>
      <point x="319" y="0"/>
      <point x="191" y="0"/>
    </contour>
    <contour>
      <point x="25" y="617" type="curve"/>
      <point x="177" y="617"/>
      <point x="332" y="617"/>
      <point x="485" y="617" type="curve"/>
      <point x="485" y="726"/>
      <point x="485" y="613"/>
      <point x="485" y="722" type="curve"/>
      <point x="332" y="722"/>
      <point x="177" y="722"/>
      <point x="25" y="722" type="curve"/>
      <point x="25" y="613"/>
      <point x="25" y="726"/>
    </contour>
    <contour>
      <point x="255" y="786" type="move" name="top"/>
    </contour>
    <contour>
      <point x="310" y="-10" type="move" name="bottom"/>
    </contour>
  </outline>
</glyph>
<glyph name="V" format="1">
  <advance width="643"/>
  <unicode hex="0056"/>
  <outline>
    <contour>
      <point x="511" y="722" type="curve"/>
      <point x="465" y="722"/>
      <point x="421" y="722"/>
      <point x="374" y="722" type="curve"/>
      <point x="374" y="624"/>
      <point x="374" y="722"/>
      <point x="374" y="624" type="curve"/>
      <point x="512" y="624"/>
      <point x="373" y="624"/>
      <point x="511" y="624" type="curve"/>
      <point x="511" y="722"/>
      <point x="511" y="624"/>
    </contour>
    <contour>
      <point x="117" y="722" type="curve"/>
      <point x="78" y="722"/>
      <point x="39" y="722"/>
      <point x="0" y="722" type="curve"/>
      <point x="0" y="624"/>
      <point x="0" y="722"/>
      <point x="0" y="624" type="curve"/>
      <point x="119" y="624"/>
      <point x="-1" y="624"/>
      <point x="117" y="624" type="curve"/>
      <point x="117" y="722"/>
      <point x="117" y="624"/>
    </contour>
    <contour>
      <point x="520" y="624" type="curve"/>
      <point x="638" y="624"/>
      <point x="519" y="624"/>
      <point x="636" y="624" type="curve"/>
      <point x="636" y="722"/>
      <point x="636" y="624"/>
      <point x="636" y="722" type="curve"/>
      <point x="598" y="722"/>
      <point x="559" y="722"/>
      <point x="520" y="722" type="curve"/>
      <point x="520" y="624"/>
      <point x="520" y="722"/>
    </contour>
    <contour>
      <point x="126" y="624" type="curve"/>
      <point x="264" y="624"/>
      <point x="125" y="624"/>
      <point x="262" y="624" type="curve"/>
      <point x="262" y="722"/>
      <point x="262" y="624"/>
      <point x="262" y="722" type="curve"/>
      <point x="217" y="722"/>
      <point x="172" y="722"/>
      <point x="126" y="722" type="curve"/>
      <point x="126" y="624"/>
      <point x="126" y="722"/>
    </contour>
    <contour>
      <point x="465" y="722" type="curve"/>
      <point x="399" y="480"/>
      <point x="335" y="242"/>
      <point x="271" y="0" type="curve"/>
      <point x="402" y="0"/>
      <point x="258" y="0"/>
      <point x="388" y="0" type="curve"/>
      <point x="456" y="241"/>
      <point x="525" y="481"/>
      <point x="594" y="722" type="curve"/>
      <point x="465" y="722"/>
      <point x="594" y="722"/>
    </contour>
    <contour>
      <point x="43" y="722" type="curve"/>
      <point x="113" y="481"/>
      <point x="183" y="241"/>
      <point x="253" y="0" type="curve"/>
      <point x="383" y="0"/>
      <point x="241" y="0"/>
      <point x="372" y="0" type="curve"/>
      <point x="307" y="242"/>
      <point x="241" y="482"/>
      <point x="174" y="722" type="curve"/>
      <point x="43" y="722"/>
      <point x="174" y="722"/>
    </contour>
  </outline>
</glyph>
<glyph name="W" format="1">
  <advance width="797"/>
  <unicode hex="0057"/>
  <outline>
    <contour>
      <point x="134" y="624" type="curve"/>
      <point x="243" y="624"/>
      <point x="132" y="624"/>
      <point x="241" y="624" type="curve"/>
      <point x="241" y="722"/>
      <point x="241" y="624"/>
      <point x="241" y="722" type="curve"/>
      <point x="206" y="722"/>
      <point x="170" y="722"/>
      <point x="134" y="722" type="curve"/>
      <point x="134" y="624"/>
      <point x="134" y="722"/>
    </contour>
    <contour>
      <point x="125" y="722" type="curve"/>
      <point x="86" y="722"/>
      <point x="47" y="722"/>
      <point x="9" y="722" type="curve"/>
      <point x="9" y="624"/>
      <point x="9" y="722"/>
      <point x="9" y="624" type="curve"/>
      <point x="126" y="624"/>
      <point x="7" y="624"/>
      <point x="125" y="624" type="curve"/>
      <point x="125" y="722"/>
      <point x="125" y="624"/>
    </contour>
    <contour>
      <point x="668" y="722" type="curve"/>
      <point x="631" y="722"/>
      <point x="596" y="722"/>
      <point x="560" y="722" type="curve"/>
      <point x="560" y="624"/>
      <point x="560" y="722"/>
      <point x="560" y="624" type="curve"/>
      <point x="669" y="624"/>
      <point x="559" y="624"/>
      <point x="668" y="624" type="curve"/>
      <point x="668" y="722"/>
      <point x="668" y="624"/>
    </contour>
    <contour>
      <point x="672" y="624" type="curve"/>
      <point x="790" y="624"/>
      <point x="671" y="624"/>
      <point x="789" y="624" type="curve"/>
      <point x="789" y="722"/>
      <point x="789" y="624"/>
      <point x="789" y="722" type="curve"/>
      <point x="750" y="722"/>
      <point x="711" y="722"/>
      <point x="672" y="722" type="curve"/>
      <point x="672" y="624"/>
      <point x="672" y="722"/>
    </contour>
    <contour>
      <point x="304" y="0" type="curve"/>
      <point x="355" y="241"/>
      <point x="404" y="481"/>
      <point x="454" y="722" type="curve"/>
      <point x="347" y="722"/>
      <point x="454" y="722"/>
      <point x="347" y="722" type="curve"/>
      <point x="301" y="482"/>
      <point x="257" y="243"/>
      <point x="210" y="0" type="curve"/>
      <point x="313" y="0"/>
      <point x="201" y="0"/>
    </contour>
    <contour>
      <point x="352" y="722" type="curve"/>
      <point x="397" y="481"/>
      <point x="441" y="241"/>
      <point x="487" y="0" type="curve"/>
      <point x="590" y="0"/>
      <point x="475" y="0"/>
      <point x="578" y="0" type="curve"/>
      <point x="537" y="244"/>
      <point x="499" y="481"/>
      <point x="459" y="722" type="curve"/>
      <point x="352" y="722"/>
      <point x="459" y="722"/>
    </contour>
    <contour>
      <point x="61" y="722" type="curve"/>
      <point x="106" y="481"/>
      <point x="152" y="241"/>
      <point x="197" y="0" type="curve"/>
      <point x="300" y="0"/>
      <point x="197" y="0"/>
      <point x="301" y="0" type="curve"/>
      <point x="257" y="241"/>
      <point x="213" y="481"/>
      <point x="171" y="722" type="curve"/>
      <point x="61" y="722"/>
      <point x="171" y="722"/>
    </contour>
    <contour>
      <point x="627" y="722" type="curve"/>
      <point x="582" y="481"/>
      <point x="536" y="241"/>
      <point x="491" y="0" type="curve"/>
      <point x="595" y="0"/>
      <point x="491" y="0"/>
      <point x="595" y="0" type="curve"/>
      <point x="642" y="241"/>
      <point x="689" y="481"/>
      <point x="737" y="722" type="curve"/>
      <point x="627" y="722"/>
      <point x="737" y="722"/>
    </contour>
  </outline>
</glyph>
<glyph name="X" format="1">
  <advance width="599"/>
  <unicode hex="0058"/>
  <outline>
    <contour>
      <point x="147" y="0" type="curve"/>
      <point x="189" y="0"/>
      <point x="146" y="0"/>
      <point x="272" y="0" type="curve"/>
      <point x="272" y="98"/>
      <point x="272" y="0"/>
      <point x="272" y="98" type="curve"/>
      <point x="146" y="98"/>
      <point x="274" y="98"/>
      <point x="147" y="98" type="curve"/>
      <point x="147" y="0"/>
      <point x="147" y="98"/>
    </contour>
    <contour>
      <point x="130" y="98" type="curve"/>
      <point x="12" y="98"/>
      <point x="131" y="98"/>
      <point x="14" y="98" type="curve"/>
      <point x="13" y="0"/>
      <point x="14" y="98"/>
      <point x="13" y="0" type="curve"/>
      <point x="52" y="0"/>
      <point x="91" y="0"/>
      <point x="130" y="0" type="curve"/>
      <point x="130" y="98"/>
      <point x="130" y="0"/>
    </contour>
    <contour>
      <point x="466" y="0" type="curve"/>
      <point x="505" y="0"/>
      <point x="544" y="0"/>
      <point x="582" y="0" type="curve"/>
      <point x="582" y="98"/>
      <point x="582" y="0"/>
      <point x="582" y="98" type="curve"/>
      <point x="465" y="98"/>
      <point x="583" y="98"/>
      <point x="466" y="98" type="curve"/>
      <point x="466" y="0"/>
      <point x="466" y="98"/>
    </contour>
    <contour>
      <point x="449" y="98" type="curve"/>
      <point x="322" y="98"/>
      <point x="450" y="98"/>
      <point x="324" y="98" type="curve"/>
      <point x="324" y="0"/>
      <point x="324" y="98"/>
      <point x="324" y="0" type="curve"/>
      <point x="365" y="0"/>
      <point x="407" y="0"/>
      <point x="449" y="0" type="curve"/>
      <point x="449" y="98"/>
      <point x="449" y="0"/>
    </contour>
    <contour>
      <point x="451" y="624" type="curve"/>
      <point x="569" y="624"/>
      <point x="450" y="624"/>
      <point x="568" y="624" type="curve"/>
      <point x="568" y="722"/>
      <point x="568" y="624"/>
      <point x="568" y="722" type="curve"/>
      <point x="529" y="722"/>
      <point x="490" y="722"/>
      <point x="451" y="722" type="curve"/>
      <point x="451" y="624"/>
      <point x="451" y="722"/>
    </contour>
    <contour>
      <point x="464" y="722" type="curve"/>
      <point x="419" y="722"/>
      <point x="375" y="722"/>
      <point x="330" y="722" type="curve"/>
      <point x="330" y="624"/>
      <point x="330" y="722"/>
      <point x="330" y="624" type="curve"/>
      <point x="466" y="624"/>
      <point x="329" y="624"/>
      <point x="464" y="624" type="curve"/>
      <point x="464" y="722"/>
      <point x="464" y="624"/>
    </contour>
    <contour>
      <point x="147" y="722" type="curve"/>
      <point x="109" y="722"/>
      <point x="70" y="722"/>
      <point x="31" y="722" type="curve"/>
      <point x="31" y="624"/>
      <point x="31" y="722"/>
      <point x="31" y="624" type="curve"/>
      <point x="149" y="624"/>
      <point x="30" y="624"/>
      <point x="147" y="624" type="curve"/>
      <point x="147" y="722"/>
      <point x="147" y="624"/>
    </contour>
    <contour>
      <point x="134" y="624" type="curve"/>
      <point x="270" y="624"/>
      <point x="133" y="624"/>
      <point x="269" y="624" type="curve"/>
      <point x="269" y="722"/>
      <point x="269" y="624"/>
      <point x="269" y="722" type="curve"/>
      <point x="224" y="722"/>
      <point x="180" y="722"/>
      <point x="134" y="722" type="curve"/>
      <point x="134" y="624"/>
      <point x="134" y="722"/>
    </contour>
    <contour>
      <point x="417" y="722" type="curve"/>
      <point x="293" y="481"/>
      <point x="169" y="241"/>
      <point x="45" y="0" type="curve"/>
      <point x="171" y="0"/>
      <point x="45" y="0"/>
      <point x="171" y="0" type="curve"/>
      <point x="294" y="241"/>
      <point x="417" y="481"/>
      <point x="540" y="722" type="curve"/>
      <point x="417" y="722"/>
      <point x="540" y="722"/>
    </contour>
    <contour>
      <point x="61" y="722" type="curve"/>
      <point x="183" y="481"/>
      <point x="305" y="241"/>
      <point x="427" y="0" type="curve"/>
      <point x="552" y="0"/>
      <point x="427" y="0"/>
      <point x="552" y="0" type="curve"/>
      <point x="429" y="241"/>
      <point x="307" y="481"/>
      <point x="184" y="722" type="curve"/>
      <point x="61" y="722"/>
      <point x="184" y="722"/>
    </contour>
  </outline>
</glyph>
<glyph name="Y" format="1">
  <advance width="570"/>
  <unicode hex="0059"/>
  <outline>
    <contour>
      <point x="279" y="98" type="curve"/>
      <point x="144" y="98"/>
      <point x="280" y="98"/>
      <point x="146" y="98" type="curve"/>
      <point x="146" y="0"/>
      <point x="146" y="98"/>
      <point x="146" y="0" type="curve"/>
      <point x="190" y="0"/>
      <point x="234" y="0"/>
      <point x="279" y="0" type="curve"/>
      <point x="279" y="98"/>
      <point x="279" y="0"/>
    </contour>
    <contour>
      <point x="279" y="0" type="curve"/>
      <point x="325" y="0"/>
      <point x="369" y="0"/>
      <point x="413" y="0" type="curve"/>
      <point x="413" y="98"/>
      <point x="413" y="0"/>
      <point x="413" y="98" type="curve"/>
      <point x="278" y="98"/>
      <point x="414" y="98"/>
      <point x="279" y="98" type="curve"/>
      <point x="279" y="0"/>
      <point x="279" y="98"/>
    </contour>
    <contour>
      <point x="437" y="722" type="curve"/>
      <point x="395" y="722"/>
      <point x="354" y="722"/>
      <point x="312" y="722" type="curve"/>
      <point x="312" y="624"/>
      <point x="312" y="722"/>
      <point x="312" y="624" type="curve"/>
      <point x="439" y="624"/>
      <point x="311" y="624"/>
      <point x="437" y="624" type="curve"/>
      <point x="437" y="722"/>
      <point x="437" y="624"/>
    </contour>
    <contour>
      <point x="114" y="722" type="curve"/>
      <point x="79" y="722"/>
      <point x="46" y="722"/>
      <point x="12" y="722" type="curve"/>
      <point x="11" y="624"/>
      <point x="12" y="722"/>
      <point x="11" y="624" type="curve"/>
      <point x="115" y="624"/>
      <point x="10" y="624"/>
      <point x="114" y="624" type="curve"/>
      <point x="114" y="722"/>
      <point x="114" y="624"/>
    </contour>
    <contour>
      <point x="131" y="624" type="curve"/>
      <point x="257" y="624"/>
      <point x="130" y="624"/>
      <point x="256" y="624" type="curve"/>
      <point x="256" y="722"/>
      <point x="256" y="624"/>
      <point x="256" y="722" type="curve"/>
      <point x="214" y="722"/>
      <point x="173" y="722"/>
      <point x="131" y="722" type="curve"/>
      <point x="131" y="624"/>
      <point x="131" y="722"/>
    </contour>
    <contour>
      <point x="455" y="624" type="curve"/>
      <point x="564" y="624"/>
      <point x="454" y="624"/>
      <point x="562" y="624" type="curve"/>
      <point x="562" y="722"/>
      <point x="562" y="624"/>
      <point x="562" y="722" type="curve"/>
      <point x="527" y="722"/>
      <point x="491" y="722"/>
      <point x="455" y="722" type="curve"/>
      <point x="455" y="624"/>
      <point x="455" y="722"/>
    </contour>
    <contour>
      <point x="40" y="722" type="curve"/>
      <point x="98" y="594"/>
      <point x="153" y="468"/>
      <point x="210" y="337" type="curve"/>
      <point x="339" y="337"/>
      <point x="191" y="337"/>
      <point x="320" y="337" type="curve"/>
      <point x="270" y="469"/>
      <point x="222" y="591"/>
      <point x="169" y="722" type="curve"/>
      <point x="40" y="722"/>
      <point x="169" y="722"/>
    </contour>
    <contour>
      <point x="399" y="722" type="curve"/>
      <point x="341" y="590"/>
      <point x="290" y="468"/>
      <point x="230" y="337" type="curve"/>
      <point x="359" y="337"/>
      <point x="219" y="337"/>
      <point x="349" y="337" type="curve"/>
      <point x="409" y="468"/>
      <point x="467" y="594"/>
      <point x="529" y="722" type="curve"/>
      <point x="399" y="722"/>
      <point x="529" y="722"/>
    </contour>
    <contour>
      <point x="349" y="0" type="curve"/>
      <point x="349" y="115"/>
      <point x="349" y="223"/>
      <point x="349" y="338" type="curve"/>
      <point x="210" y="338"/>
      <point x="349" y="338"/>
      <point x="210" y="338" type="curve"/>
      <point x="210" y="223"/>
      <point x="210" y="115"/>
      <point x="210" y="0" type="curve"/>
      <point x="349" y="0"/>
      <point x="210" y="0"/>
    </contour>
    <contour>
      <point x="285" y="786" type="move" name="top"/>
    </contour>
  </outline>
</glyph>
<glyph name="Z" format="1">
  <advance width="582"/>
  <unicode hex="005A"/>
  <outline>
    <contour>
      <point x="58" y="673" type="curve"/>
      <point x="58" y="553"/>
      <point x="58" y="674"/>
      <point x="58" y="554" type="curve"/>
      <point x="158" y="554"/>
      <point x="58" y="554"/>
      <point x="158" y="554" type="curve"/>
      <point x="158" y="674"/>
      <point x="158" y="553"/>
      <point x="158" y="673" type="curve"/>
      <point x="58" y="673"/>
      <point x="158" y="673"/>
    </contour>
    <contour>
      <point x="536" y="49" type="curve"/>
      <point x="536" y="169"/>
      <point x="536" y="48"/>
      <point x="536" y="168" type="curve"/>
      <point x="436" y="168"/>
      <point x="536" y="168"/>
      <point x="436" y="168" type="curve"/>
      <point x="436" y="48"/>
      <point x="436" y="169"/>
      <point x="436" y="49" type="curve"/>
      <point x="536" y="49"/>
      <point x="436" y="49"/>
    </contour>
    <contour>
      <point x="58" y="624" type="curve"/>
      <point x="178" y="624"/>
      <point x="345" y="624"/>
      <point x="466" y="624" type="curve"/>
      <point x="455" y="633"/>
      <point x="438" y="631"/>
      <point x="428" y="641" type="curve"/>
      <point x="419" y="649"/>
      <point x="421" y="665"/>
      <point x="412" y="674" type="curve"/>
      <point x="406" y="665"/>
      <point x="392" y="673"/>
      <point x="386" y="664" type="curve"/>
      <point x="32" y="98" type="line"/>
      <point x="32" y="48"/>
      <point x="32" y="98"/>
      <point x="32" y="48" type="curve"/>
      <point x="32" y="0"/>
      <point x="32" y="48"/>
      <point x="32" y="0" type="curve"/>
      <point x="79" y="0"/>
      <point x="32" y="0"/>
      <point x="79" y="0" type="curve"/>
      <point x="509" y="0"/>
      <point x="393" y="0"/>
      <point x="536" y="0" type="curve"/>
      <point x="536" y="98"/>
      <point x="536" y="0"/>
      <point x="536" y="98" type="curve"/>
      <point x="393" y="98"/>
      <point x="222" y="98"/>
      <point x="79" y="98" type="curve"/>
      <point x="88" y="91"/>
      <point x="102" y="92"/>
      <point x="111" y="85" type="curve"/>
      <point x="121" y="75"/>
      <point x="120" y="58"/>
      <point x="130" y="48" type="curve"/>
      <point x="137" y="57"/>
      <point x="151" y="50"/>
      <point x="157" y="58" type="curve"/>
      <point x="516" y="624" type="line"/>
      <point x="516" y="674"/>
      <point x="516" y="624"/>
      <point x="516" y="674" type="curve"/>
      <point x="516" y="722"/>
      <point x="516" y="674"/>
      <point x="516" y="722" type="curve"/>
      <point x="466" y="722"/>
      <point x="516" y="722"/>
      <point x="466" y="722" type="curve"/>
      <point x="345" y="722"/>
      <point x="178" y="722"/>
      <point x="58" y="722" type="curve"/>
      <point x="58" y="624"/>
      <point x="58" y="722"/>
    </contour>
    <contour>
      <point x="289" y="786" type="move" name="top"/>
    </contour>
  </outline>
</glyph>
<glyph name="bracketleft" format="1">
  <advance width="284"/>
  <unicode hex="005B"/>
  <outline>
    <contour>
      <point x="241" y="769" type="curve"/>
      <point x="203" y="769"/>
      <point x="166" y="769"/>
      <point x="128" y="769" type="curve"/>
      <point x="114" y="769"/>
      <point x="82" y="769"/>
      <point x="69" y="769" type="curve"/>
      <point x="69" y="754"/>
      <point x="69" y="736"/>
      <point x="69" y="721" type="curve"/>
      <point x="69" y="458"/>
      <point x="69" y="196"/>
      <point x="69" y="-67" type="curve"/>
      <point x="69" y="-83"/>
      <point x="69" y="-93"/>
      <point x="69" y="-114" type="curve"/>
      <point x="82" y="-114"/>
      <point x="112" y="-114"/>
      <point x="127" y="-114" type="curve"/>
      <point x="165" y="-114"/>
      <point x="203" y="-114"/>
      <point x="241" y="-114" type="curve"/>
      <point x="241" y="-5"/>
      <point x="241" y="-114"/>
      <point x="241" y="-5" type="curve"/>
      <point x="203" y="-5"/>
      <point x="165" y="-5"/>
      <point x="127" y="-5" type="curve"/>
      <point x="196" y="-5"/>
      <point x="127" y="-5"/>
      <point x="196" y="-5" type="curve"/>
      <point x="196" y="-67"/>
      <point x="196" y="-5"/>
      <point x="196" y="-67" type="curve"/>
      <point x="196" y="196"/>
      <point x="196" y="458"/>
      <point x="196" y="721" type="curve"/>
      <point x="196" y="661"/>
      <point x="196" y="721"/>
      <point x="196" y="661" type="curve"/>
      <point x="128" y="661"/>
      <point x="196" y="661"/>
      <point x="128" y="661" type="curve"/>
      <point x="166" y="661"/>
      <point x="203" y="661"/>
      <point x="241" y="661" type="curve"/>
      <point x="241" y="769"/>
      <point x="241" y="661"/>
    </contour>
  </outline>
</glyph>
<glyph name="asciicircum" format="1">
  <advance width="477"/>
  <unicode hex="005E"/>
  <outline>
    <contour>
      <point x="172" y="455" type="curve"/>
      <point x="215" y="558"/>
      <point x="259" y="659"/>
      <point x="302" y="761" type="curve"/>
      <point x="175" y="761"/>
      <point x="302" y="761"/>
      <point x="175" y="761" type="curve"/>
      <point x="131" y="659"/>
      <point x="88" y="558"/>
      <point x="45" y="455" type="curve"/>
      <point x="172" y="455"/>
      <point x="45" y="455"/>
    </contour>
    <contour>
      <point x="432" y="455" type="curve"/>
      <point x="390" y="555"/>
      <point x="345" y="660"/>
      <point x="302" y="761" type="curve"/>
      <point x="175" y="761"/>
      <point x="302" y="761"/>
      <point x="175" y="761" type="curve"/>
      <point x="218" y="660"/>
      <point x="262" y="555"/>
      <point x="305" y="455" type="curve"/>
      <point x="432" y="455"/>
      <point x="305" y="455"/>
    </contour>
  </outline>
</glyph>
<glyph name="underscore" format="1">
  <advance width="507"/>
  <unicode hex="005F"/>
  <outline>
    <contour>
      <point x="0" y="-187" type="curve"/>
      <point x="169" y="-187"/>
      <point x="339" y="-187"/>
      <point x="507" y="-187" type="curve"/>
      <point x="507" y="-87"/>
      <point x="507" y="-187"/>
      <point x="507" y="-87" type="curve"/>
      <point x="339" y="-87"/>
      <point x="169" y="-87"/>
      <point x="0" y="-87" type="curve"/>
      <point x="0" y="-187"/>
      <point x="0" y="-87"/>
    </contour>
  </outline>
</glyph>
<glyph name="grave" format="1">
  <advance width="331"/>
  <unicode hex="0060"/>
  <outline>
    <contour>
      <point x="290" y="591" type="line"/>
      <point x="209" y="757" type="line"/>
      <point x="53" y="757" type="line"/>
      <point x="170" y="591" type="line"/>
    </contour>
    <contour>
      <point x="229" y="590" type="move" name="_top"/>
    </contour>
  </outline>
</glyph>
<glyph name="b" format="1">
  <advance width="578"/>
  <unicode hex="0062"/>
  <outline>
    <contour>
      <point x="163" y="800" type="curve"/>
      <point x="117" y="800"/>
      <point x="74" y="800"/>
      <point x="30" y="800" type="curve"/>
      <point x="29" y="702"/>
      <point x="30" y="800"/>
      <point x="29" y="702" type="curve"/>
      <point x="164" y="701"/>
      <point x="28" y="702"/>
      <point x="163" y="701" type="curve"/>
      <point x="163" y="800"/>
      <point x="163" y="701"/>
    </contour>
    <contour>
      <point x="196" y="356" type="curve"/>
      <point x="218" y="389"/>
      <point x="260" y="435"/>
      <point x="317" y="435" type="curve"/>
      <point x="394" y="435"/>
      <point x="411" y="353"/>
      <point x="411" y="262" type="curve"/>
      <point x="412" y="175"/>
      <point x="391" y="98"/>
      <point x="318" y="98" type="curve"/>
      <point x="270" y="98"/>
      <point x="235" y="122"/>
      <point x="205" y="161" type="curve"/>
      <point x="140" y="118"/>
      <point x="205" y="161"/>
      <point x="141" y="117" type="curve"/>
      <point x="185" y="47"/>
      <point x="239" y="-5"/>
      <point x="331" y="-5" type="curve"/>
      <point x="466" y="-5"/>
      <point x="538" y="113"/>
      <point x="538" y="267" type="curve"/>
      <point x="538" y="420"/>
      <point x="468" y="538"/>
      <point x="334" y="538" type="curve"/>
      <point x="239" y="538"/>
      <point x="179" y="466"/>
      <point x="142" y="400" type="curve"/>
      <point x="196" y="357"/>
      <point x="142" y="399"/>
    </contour>
    <contour>
      <point x="225" y="0" type="curve"/>
      <point x="225" y="267"/>
      <point x="225" y="533"/>
      <point x="225" y="800" type="curve"/>
      <point x="98" y="800"/>
      <point x="225" y="800"/>
      <point x="98" y="800" type="curve"/>
      <point x="98" y="533"/>
      <point x="98" y="267"/>
      <point x="98" y="0" type="curve"/>
      <point x="225" y="0"/>
      <point x="98" y="0"/>
    </contour>
    <contour>
      <point x="163" y="98" type="curve"/>
      <point x="28" y="98"/>
      <point x="164" y="98"/>
      <point x="30" y="98" type="curve"/>
      <point x="30" y="0"/>
      <point x="30" y="98"/>
      <point x="30" y="0" type="curve"/>
      <point x="74" y="0"/>
      <point x="118" y="0"/>
      <point x="163" y="0" type="curve"/>
      <point x="163" y="98"/>
      <point x="163" y="0"/>
    </contour>
  </outline>
</glyph>
<glyph name="f" format="1">
  <advance width="396"/>
  <unicode hex="0066"/>
  <outline>
    <contour>
      <point x="275" y="770" type="curve"/>
      <point x="275" y="654"/>
      <point x="275" y="771"/>
      <point x="275" y="656" type="curve"/>
      <point x="375" y="656"/>
      <point x="275" y="656"/>
      <point x="375" y="656" type="curve"/>
      <point x="375" y="771"/>
      <point x="375" y="654"/>
      <point x="375" y="770" type="curve"/>
      <point x="275" y="770"/>
      <point x="375" y="770"/>
    </contour>
    <contour>
      <point x="163" y="-1" type="curve"/>
      <point x="206" y="-1"/>
      <point x="251" y="0"/>
      <point x="295" y="0" type="curve"/>
      <point x="295" y="99"/>
      <point x="295" y="0"/>
      <point x="295" y="99" type="curve"/>
      <point x="162" y="98"/>
      <point x="296" y="99"/>
      <point x="163" y="98" type="curve"/>
      <point x="163" y="-1"/>
      <point x="163" y="98"/>
    </contour>
    <contour>
      <point x="163" y="98" type="curve"/>
      <point x="29" y="99"/>
      <point x="164" y="98"/>
      <point x="30" y="99" type="curve"/>
      <point x="30" y="0"/>
      <point x="30" y="99"/>
      <point x="30" y="0" type="curve"/>
      <point x="74" y="0"/>
      <point x="119" y="-1"/>
      <point x="163" y="-1" type="curve"/>
      <point x="163" y="98"/>
      <point x="163" y="-1"/>
    </contour>
    <contour>
      <point x="25" y="435" type="curve"/>
      <point x="334" y="435" type="line"/>
      <point x="334" y="533"/>
      <point x="334" y="435"/>
      <point x="334" y="533" type="curve"/>
      <point x="25" y="533" type="line"/>
      <point x="25" y="435"/>
      <point x="25" y="533"/>
    </contour>
    <contour>
      <point x="226" y="0" type="curve"/>
      <point x="226" y="609" type="line"/>
      <point x="226" y="662"/>
      <point x="226" y="710"/>
      <point x="273" y="710" type="curve"/>
      <point x="292" y="710"/>
      <point x="308" y="701"/>
      <point x="323" y="691" type="curve"/>
      <point x="375" y="770"/>
      <point x="323" y="691"/>
      <point x="375" y="770" type="curve"/>
      <point x="345" y="790"/>
      <point x="309" y="805"/>
      <point x="273" y="805" type="curve"/>
      <point x="161" y="805"/>
      <point x="98" y="724"/>
      <point x="99" y="609" type="curve"/>
      <point x="99" y="0" type="line"/>
      <point x="226" y="0"/>
      <point x="99" y="0"/>
    </contour>
  </outline>
</glyph>
<glyph name="g" format="1">
  <advance width="492"/>
  <unicode hex="0067"/>
  <outline>
    <contour>
      <point x="353" y="436" type="curve"/>
      <point x="463" y="495" type="line"/>
      <point x="462" y="498"/>
      <point x="413" y="583"/>
      <point x="411" y="585" type="curve"/>
      <point x="284" y="514" type="line"/>
      <point x="353" y="436"/>
      <point x="284" y="514"/>
    </contour>
    <contour>
      <point x="189" y="339" type="curve"/>
      <point x="189" y="392"/>
      <point x="209" y="439"/>
      <point x="256" y="439" type="curve"/>
      <point x="304" y="439"/>
      <point x="320" y="391"/>
      <point x="320" y="338" type="curve"/>
      <point x="320" y="289"/>
      <point x="303" y="245"/>
      <point x="256" y="245" type="curve"/>
      <point x="211" y="245"/>
      <point x="189" y="287"/>
      <point x="189" y="339" type="curve"/>
      <point x="62" y="334"/>
      <point x="189" y="339"/>
      <point x="62" y="334" type="curve"/>
      <point x="62" y="222"/>
      <point x="137" y="146"/>
      <point x="250" y="146" type="curve"/>
      <point x="367" y="146"/>
      <point x="447" y="224"/>
      <point x="447" y="342" type="curve"/>
      <point x="447" y="457"/>
      <point x="371" y="537"/>
      <point x="256" y="537" type="curve"/>
      <point x="137" y="537"/>
      <point x="62" y="454"/>
      <point x="62" y="334" type="curve"/>
      <point x="189" y="339"/>
      <point x="62" y="334"/>
    </contour>
    <contour>
      <point x="152" y="244" type="curve"/>
      <point x="100" y="211"/>
      <point x="65" y="172"/>
      <point x="65" y="112" type="curve"/>
      <point x="65" y="21"/>
      <point x="143" y="-21"/>
      <point x="240" y="-31" type="curve"/>
      <point x="307" y="-38"/>
      <point x="367" y="-57"/>
      <point x="367" y="-122" type="curve"/>
      <point x="367" y="-180"/>
      <point x="317" y="-207"/>
      <point x="255" y="-207" type="curve"/>
      <point x="197" y="-207"/>
      <point x="157" y="-168"/>
      <point x="157" y="-108" type="curve"/>
      <point x="157" y="-59"/>
      <point x="171" y="-16"/>
      <point x="212" y="4" type="curve"/>
      <point x="148" y="63"/>
      <point x="212" y="4"/>
      <point x="148" y="63" type="curve"/>
      <point x="75" y="28"/>
      <point x="29" y="-28"/>
      <point x="29" y="-112" type="curve"/>
      <point x="29" y="-235"/>
      <point x="123" y="-305"/>
      <point x="249" y="-305" type="curve"/>
      <point x="381" y="-305"/>
      <point x="484" y="-238"/>
      <point x="482" y="-112" type="curve"/>
      <point x="482" y="3"/>
      <point x="383" y="52"/>
      <point x="264" y="63" type="curve"/>
      <point x="224" y="66"/>
      <point x="192" y="84"/>
      <point x="192" y="122" type="curve"/>
      <point x="192" y="147"/>
      <point x="199" y="163"/>
      <point x="218" y="179" type="curve"/>
      <point x="152" y="244"/>
      <point x="218" y="179"/>
    </contour>
    <contour>
      <point x="254" y="618" type="move" name="top"/>
    </contour>
  </outline>
</glyph>
<glyph name="i" format="1">
  <advance width="307"/>
  <unicode hex="0069"/>
  <outline>
    <contour>
      <point x="161" y="98" type="curve"/>
      <point x="26" y="98"/>
      <point x="162" y="98"/>
      <point x="28" y="98" type="curve"/>
      <point x="27" y="0"/>
      <point x="28" y="98"/>
      <point x="27" y="0" type="curve"/>
      <point x="72" y="0"/>
      <point x="116" y="0"/>
      <point x="161" y="0" type="curve"/>
      <point x="161" y="98"/>
      <point x="161" y="0"/>
    </contour>
    <contour>
      <point x="161" y="0" type="curve"/>
      <point x="203" y="0"/>
      <point x="245" y="0"/>
      <point x="288" y="0" type="curve"/>
      <point x="288" y="98"/>
      <point x="288" y="0"/>
      <point x="288" y="98" type="curve"/>
      <point x="160" y="98"/>
      <point x="289" y="98"/>
      <point x="161" y="98" type="curve"/>
      <point x="161" y="0"/>
      <point x="161" y="98"/>
    </contour>
    <contour>
      <point x="161" y="533" type="curve"/>
      <point x="116" y="533"/>
      <point x="72" y="533"/>
      <point x="28" y="533" type="curve"/>
      <point x="27" y="435"/>
      <point x="28" y="533"/>
      <point x="27" y="435" type="curve"/>
      <point x="162" y="435"/>
      <point x="26" y="435"/>
      <point x="161" y="435" type="curve"/>
      <point x="161" y="533"/>
      <point x="161" y="435"/>
    </contour>
    <contour>
      <point x="228" y="0" type="curve"/>
      <point x="228" y="178"/>
      <point x="228" y="355"/>
      <point x="228" y="533" type="curve"/>
      <point x="94" y="533"/>
      <point x="228" y="533"/>
      <point x="94" y="533" type="curve"/>
      <point x="94" y="355"/>
      <point x="94" y="178"/>
      <point x="94" y="0" type="curve"/>
      <point x="228" y="0"/>
      <point x="94" y="0"/>
    </contour>
    <contour>
      <point x="224" y="679" type="curve"/>
      <point x="224" y="722"/>
      <point x="195" y="744"/>
      <point x="157" y="744" type="curve"/>
      <point x="117" y="744"/>
      <point x="91" y="720"/>
      <point x="91" y="679" type="curve"/>
      <point x="224" y="679"/>
      <point x="91" y="679"/>
      <point x="224" y="679" type="curve"/>
      <point x="224" y="635"/>
      <point x="196" y="615"/>
      <point x="157" y="615" type="curve"/>
      <point x="116" y="615"/>
      <point x="91" y="637"/>
      <point x="91" y="679" type="curve"/>
      <point x="224" y="679"/>
      <point x="91" y="679"/>
    </contour>
    <contour>
      <point x="157" y="619" type="move" name="top"/>
    </contour>
    <contour>
      <point x="219" y="3" type="move" name="bottom"/>
    </contour>
  </outline>
</glyph>
<glyph name="j" format="1">
  <advance width="258"/>
  <unicode hex="006A"/>
  <outline>
    <contour>
      <point x="124" y="533" type="curve"/>
      <point x="80" y="533"/>
      <point x="36" y="533"/>
      <point x="-9" y="533" type="curve"/>
      <point x="-9" y="435"/>
      <point x="-9" y="533"/>
      <point x="-9" y="435" type="curve"/>
      <point x="126" y="435"/>
      <point x="-11" y="435"/>
      <point x="124" y="435" type="curve"/>
      <point x="124" y="533"/>
      <point x="124" y="435"/>
    </contour>
    <contour>
      <point x="-14" y="-304" type="curve"/>
      <point x="-6" y="-305"/>
      <point x="4" y="-305"/>
      <point x="14" y="-305" type="curve"/>
      <point x="119" y="-305"/>
      <point x="189" y="-230"/>
      <point x="189" y="-123" type="curve"/>
      <point x="189" y="96"/>
      <point x="189" y="315"/>
      <point x="189" y="534" type="curve"/>
      <point x="62" y="534"/>
      <point x="189" y="534"/>
      <point x="62" y="534" type="curve"/>
      <point x="62" y="315"/>
      <point x="62" y="96"/>
      <point x="62" y="-123" type="curve"/>
      <point x="62" y="-166"/>
      <point x="57" y="-210"/>
      <point x="19" y="-210" type="curve"/>
      <point x="14" y="-210"/>
      <point x="11" y="-210"/>
      <point x="4" y="-209" type="curve"/>
      <point x="-14" y="-303"/>
      <point x="4" y="-210"/>
    </contour>
    <contour>
      <point x="190" y="672" type="curve"/>
      <point x="190" y="715"/>
      <point x="162" y="737"/>
      <point x="123" y="737" type="curve"/>
      <point x="83" y="737"/>
      <point x="57" y="713"/>
      <point x="57" y="672" type="curve"/>
      <point x="190" y="672"/>
      <point x="57" y="672"/>
      <point x="190" y="672" type="curve"/>
      <point x="190" y="628"/>
      <point x="162" y="608"/>
      <point x="123" y="608" type="curve"/>
      <point x="82" y="608"/>
      <point x="57" y="630"/>
      <point x="57" y="672" type="curve"/>
      <point x="190" y="672"/>
      <point x="57" y="672"/>
    </contour>
  </outline>
</glyph>
<glyph name="p" format="1">
  <advance width="560"/>
  <unicode hex="0070"/>
  <outline>
    <contour>
      <point x="139" y="-201" type="curve"/>
      <point x="4" y="-201"/>
      <point x="141" y="-201"/>
      <point x="6" y="-201" type="curve"/>
      <point x="6" y="-300"/>
      <point x="6" y="-201"/>
      <point x="6" y="-300" type="curve"/>
      <point x="51" y="-300"/>
      <point x="94" y="-300"/>
      <point x="139" y="-300" type="curve"/>
      <point x="139" y="-201"/>
      <point x="139" y="-300"/>
    </contour>
    <contour>
      <point x="139" y="-300" type="curve"/>
      <point x="183" y="-300"/>
      <point x="224" y="-300"/>
      <point x="266" y="-300" type="curve"/>
      <point x="266" y="-201"/>
      <point x="266" y="-300"/>
      <point x="266" y="-201" type="curve"/>
      <point x="138" y="-201"/>
      <point x="267" y="-201"/>
      <point x="139" y="-201" type="curve"/>
      <point x="139" y="-300"/>
      <point x="139" y="-201"/>
    </contour>
    <contour>
      <point x="140" y="533" type="curve"/>
      <point x="95" y="533"/>
      <point x="52" y="533"/>
      <point x="7" y="533" type="curve"/>
      <point x="7" y="435"/>
      <point x="7" y="533"/>
      <point x="7" y="435" type="curve"/>
      <point x="142" y="435"/>
      <point x="5" y="435"/>
      <point x="140" y="435" type="curve"/>
      <point x="140" y="533"/>
      <point x="140" y="435"/>
    </contour>
    <contour>
      <point x="177" y="310" type="curve"/>
      <point x="192" y="371"/>
      <point x="237" y="436"/>
      <point x="290" y="436" type="curve"/>
      <point x="380" y="436"/>
      <point x="392" y="354"/>
      <point x="392" y="263" type="curve"/>
      <point x="393" y="174"/>
      <point x="378" y="93"/>
      <point x="293" y="93" type="curve"/>
      <point x="245" y="93"/>
      <point x="210" y="118"/>
      <point x="180" y="157" type="curve"/>
      <point x="136" y="103"/>
      <point x="180" y="157"/>
      <point x="136" y="103" type="curve"/>
      <point x="184" y="34"/>
      <point x="239" y="-5"/>
      <point x="320" y="-5" type="curve"/>
      <point x="468" y="-5"/>
      <point x="519" y="120"/>
      <point x="519" y="268" type="curve"/>
      <point x="519" y="414"/>
      <point x="469" y="539"/>
      <point x="320" y="539" type="curve"/>
      <point x="238" y="539"/>
      <point x="175" y="466"/>
      <point x="142" y="392" type="curve"/>
      <point x="175" y="310"/>
      <point x="144" y="392"/>
    </contour>
    <contour>
      <point x="203" y="-300" type="curve"/>
      <point x="203" y="-22"/>
      <point x="203" y="255"/>
      <point x="203" y="533" type="curve"/>
      <point x="76" y="533"/>
      <point x="203" y="533"/>
      <point x="76" y="533" type="curve"/>
      <point x="76" y="255"/>
      <point x="76" y="-22"/>
      <point x="76" y="-300" type="curve"/>
      <point x="203" y="-300"/>
      <point x="76" y="-300"/>
    </contour>
  </outline>
</glyph>
<glyph name="q" format="1">
  <advance width="583"/>
  <unicode hex="0071"/>
  <outline>
    <contour>
      <point x="423" y="435" type="curve"/>
      <point x="548" y="435"/>
      <point x="421" y="435"/>
      <point x="548" y="435" type="curve"/>
      <point x="548" y="533"/>
      <point x="548" y="435"/>
      <point x="548" y="533" type="curve"/>
      <point x="506" y="533"/>
      <point x="465" y="533"/>
      <point x="423" y="533" type="curve"/>
      <point x="423" y="435"/>
      <point x="423" y="533"/>
    </contour>
    <contour>
      <point x="421" y="-201" type="curve"/>
      <point x="286" y="-201"/>
      <point x="422" y="-201"/>
      <point x="287" y="-201" type="curve"/>
      <point x="287" y="-300"/>
      <point x="287" y="-201"/>
      <point x="287" y="-300" type="curve"/>
      <point x="332" y="-300"/>
      <point x="376" y="-300"/>
      <point x="421" y="-300" type="curve"/>
      <point x="421" y="-201"/>
      <point x="421" y="-300"/>
    </contour>
    <contour>
      <point x="421" y="-300" type="curve"/>
      <point x="464" y="-300"/>
      <point x="505" y="-300"/>
      <point x="547" y="-300" type="curve"/>
      <point x="547" y="-201"/>
      <point x="547" y="-300"/>
      <point x="547" y="-201" type="curve"/>
      <point x="420" y="-201"/>
      <point x="549" y="-201"/>
      <point x="421" y="-201" type="curve"/>
      <point x="421" y="-300"/>
      <point x="421" y="-201"/>
    </contour>
    <contour>
      <point x="423" y="400" type="curve"/>
      <point x="387" y="483"/>
      <point x="321" y="538"/>
      <point x="241" y="538" type="curve"/>
      <point x="91" y="538"/>
      <point x="40" y="413"/>
      <point x="41" y="265" type="curve"/>
      <point x="41" y="116"/>
      <point x="98" y="-5"/>
      <point x="246" y="-5" type="curve"/>
      <point x="322" y="-5"/>
      <point x="384" y="54"/>
      <point x="421" y="124" type="curve"/>
      <point x="383" y="178"/>
      <point x="422" y="124"/>
      <point x="383" y="179" type="curve"/>
      <point x="358" y="131"/>
      <point x="318" y="93"/>
      <point x="267" y="93" type="curve"/>
      <point x="184" y="93"/>
      <point x="168" y="177"/>
      <point x="168" y="270" type="curve"/>
      <point x="168" y="357"/>
      <point x="187" y="436"/>
      <point x="265" y="436" type="curve"/>
      <point x="312" y="436"/>
      <point x="349" y="413"/>
      <point x="388" y="345" type="curve"/>
      <point x="415" y="404"/>
      <point x="396" y="342"/>
    </contour>
    <contour>
      <point x="487" y="-300" type="curve"/>
      <point x="487" y="-22"/>
      <point x="487" y="255"/>
      <point x="487" y="533" type="curve"/>
      <point x="355" y="533"/>
      <point x="487" y="533"/>
      <point x="355" y="533" type="curve"/>
      <point x="355" y="255"/>
      <point x="355" y="-22"/>
      <point x="355" y="-300" type="curve"/>
      <point x="487" y="-300"/>
      <point x="355" y="-300"/>
    </contour>
  </outline>
</glyph>
<glyph name="s" format="1">
  <advance width="438"/>
  <unicode hex="0073"/>
  <outline>
    <contour>
      <point x="50" y="47" type="curve"/>
      <point x="104" y="15"/>
      <point x="157" y="-5"/>
      <point x="216" y="-5" type="curve"/>
      <point x="326" y="-5"/>
      <point x="397" y="51"/>
      <point x="397" y="158" type="curve"/>
      <point x="396" y="253"/>
      <point x="328" y="288"/>
      <point x="236" y="322" type="curve"/>
      <point x="198" y="336"/>
      <point x="171" y="357"/>
      <point x="171" y="392" type="curve"/>
      <point x="171" y="416"/>
      <point x="186" y="435"/>
      <point x="215" y="435" type="curve"/>
      <point x="245" y="435"/>
      <point x="279" y="419"/>
      <point x="299" y="404" type="curve"/>
      <point x="356" y="491"/>
      <point x="300" y="405"/>
      <point x="357" y="493" type="curve"/>
      <point x="325" y="517"/>
      <point x="268" y="538"/>
      <point x="218" y="538" type="curve"/>
      <point x="119" y="538"/>
      <point x="56" y="487"/>
      <point x="56" y="392" type="curve"/>
      <point x="56" y="303"/>
      <point x="109" y="259"/>
      <point x="195" y="228" type="curve"/>
      <point x="239" y="212"/>
      <point x="275" y="193"/>
      <point x="275" y="150" type="curve"/>
      <point x="275" y="120"/>
      <point x="254" y="101"/>
      <point x="224" y="101" type="curve"/>
      <point x="183" y="101"/>
      <point x="150" y="114"/>
      <point x="114" y="136" type="curve"/>
      <point x="50" y="47"/>
      <point x="114" y="136"/>
    </contour>
    <contour>
      <point x="257" y="493" type="curve"/>
      <point x="257" y="362"/>
      <point x="257" y="494"/>
      <point x="257" y="364" type="curve"/>
      <point x="357" y="364"/>
      <point x="257" y="364"/>
      <point x="357" y="364" type="curve"/>
      <point x="357" y="494"/>
      <point x="357" y="362"/>
      <point x="357" y="493" type="curve"/>
      <point x="258" y="493"/>
      <point x="355" y="493"/>
    </contour>
    <contour>
      <point x="150" y="47" type="curve"/>
      <point x="150" y="181"/>
      <point x="150" y="46"/>
      <point x="150" y="180" type="curve"/>
      <point x="50" y="180"/>
      <point x="150" y="180"/>
      <point x="50" y="180" type="curve"/>
      <point x="50" y="46"/>
      <point x="50" y="181"/>
      <point x="50" y="47" type="curve"/>
      <point x="150" y="47"/>
      <point x="50" y="47"/>
    </contour>
    <contour>
      <point x="220" y="618" type="move" name="top"/>
    </contour>
    <contour>
      <point x="259" y="-8" type="move" name="bottom"/>
    </contour>
  </outline>
</glyph>
<glyph name="t" format="1">
  <advance width="328"/>
  <unicode hex="0074"/>
  <outline>
    <contour>
      <point x="13" y="433" type="curve"/>
      <point x="304" y="433" type="line"/>
      <point x="304" y="532"/>
      <point x="304" y="433"/>
      <point x="304" y="532" type="curve"/>
      <point x="13" y="532" type="line"/>
      <point x="13" y="433"/>
      <point x="13" y="532"/>
    </contour>
    <contour>
      <point x="264" y="115" type="curve"/>
      <point x="251" y="104"/>
      <point x="241" y="98"/>
      <point x="225" y="98" type="curve"/>
      <point x="191" y="98"/>
      <point x="191" y="131"/>
      <point x="191" y="171" type="curve"/>
      <point x="191" y="680" type="line"/>
      <point x="67" y="602"/>
      <point x="188" y="677"/>
      <point x="64" y="599" type="curve"/>
      <point x="64" y="166" type="line"/>
      <point x="64" y="59"/>
      <point x="110" y="-6"/>
      <point x="207" y="-6" type="curve"/>
      <point x="249" y="-6"/>
      <point x="278" y="8"/>
      <point x="316" y="30" type="curve"/>
      <point x="264" y="115"/>
      <point x="316" y="30"/>
    </contour>
    <contour>
      <point x="252" y="-4" type="move" name="bottom"/>
    </contour>
  </outline>
</glyph>
<glyph name="v" format="1">
  <advance width="560"/>
  <unicode hex="0076"/>
  <outline>
    <contour>
      <point x="124" y="533" type="curve"/>
      <point x="88" y="533"/>
      <point x="53" y="533"/>
      <point x="17" y="533" type="curve"/>
      <point x="17" y="435"/>
      <point x="17" y="533"/>
      <point x="17" y="435" type="curve"/>
      <point x="125" y="435"/>
      <point x="16" y="435"/>
      <point x="124" y="435" type="curve"/>
      <point x="124" y="533"/>
      <point x="124" y="435"/>
    </contour>
    <contour>
      <point x="124" y="435" type="curve"/>
      <point x="255" y="435"/>
      <point x="123" y="435"/>
      <point x="254" y="435" type="curve"/>
      <point x="254" y="533"/>
      <point x="254" y="435"/>
      <point x="254" y="533" type="curve"/>
      <point x="211" y="533"/>
      <point x="168" y="533"/>
      <point x="124" y="533" type="curve"/>
      <point x="124" y="435"/>
      <point x="124" y="533"/>
    </contour>
    <contour>
      <point x="446" y="533" type="curve"/>
      <point x="402" y="533"/>
      <point x="358" y="533"/>
      <point x="315" y="533" type="curve"/>
      <point x="315" y="435"/>
      <point x="315" y="533"/>
      <point x="315" y="435" type="curve"/>
      <point x="447" y="435"/>
      <point x="314" y="435"/>
      <point x="446" y="435" type="curve"/>
      <point x="446" y="533"/>
      <point x="446" y="435"/>
    </contour>
    <contour>
      <point x="446" y="435" type="curve"/>
      <point x="553" y="435"/>
      <point x="445" y="435"/>
      <point x="552" y="435" type="curve"/>
      <point x="552" y="533"/>
      <point x="552" y="435"/>
      <point x="552" y="533" type="curve"/>
      <point x="516" y="533"/>
      <point x="481" y="533"/>
      <point x="446" y="533" type="curve"/>
      <point x="446" y="435"/>
      <point x="446" y="533"/>
    </contour>
    <contour>
      <point x="52" y="533" type="curve"/>
      <point x="104" y="355"/>
      <point x="155" y="178"/>
      <point x="207" y="0" type="curve"/>
      <point x="325" y="0"/>
      <point x="207" y="0"/>
      <point x="325" y="0" type="curve"/>
      <point x="275" y="177"/>
      <point x="232" y="356"/>
      <point x="182" y="533" type="curve"/>
      <point x="52" y="533"/>
      <point x="182" y="533"/>
    </contour>
    <contour>
      <point x="390" y="533" type="curve"/>
      <point x="236" y="0" type="line"/>
      <point x="356" y="0"/>
      <point x="236" y="0"/>
      <point x="356" y="0" type="curve"/>
      <point x="410" y="178"/>
      <point x="464" y="355"/>
      <point x="518" y="533" type="curve"/>
      <point x="390" y="533"/>
      <point x="518" y="533"/>
    </contour>
  </outline>
</glyph>
<glyph name="w" format="1">
  <advance width="788"/>
  <unicode hex="0077"/>
  <outline>
    <contour>
      <point x="660" y="435" type="curve"/>
      <point x="778" y="435"/>
      <point x="659" y="435"/>
      <point x="776" y="435" type="curve"/>
      <point x="776" y="533"/>
      <point x="776" y="435"/>
      <point x="776" y="533" type="curve"/>
      <point x="737" y="533"/>
      <point x="698" y="533"/>
      <point x="660" y="533" type="curve"/>
      <point x="660" y="435"/>
      <point x="660" y="533"/>
    </contour>
    <contour>
      <point x="660" y="533" type="curve"/>
      <point x="619" y="533"/>
      <point x="581" y="533"/>
      <point x="541" y="533" type="curve"/>
      <point x="541" y="435"/>
      <point x="541" y="533"/>
      <point x="541" y="435" type="curve"/>
      <point x="664" y="435"/>
      <point x="538" y="435"/>
      <point x="660" y="435" type="curve"/>
      <point x="660" y="533"/>
      <point x="660" y="435"/>
    </contour>
    <contour>
      <point x="131" y="533" type="curve"/>
      <point x="92" y="533"/>
      <point x="53" y="533"/>
      <point x="14" y="533" type="curve"/>
      <point x="14" y="435"/>
      <point x="14" y="533"/>
      <point x="14" y="435" type="curve"/>
      <point x="132" y="435"/>
      <point x="13" y="435"/>
      <point x="131" y="435" type="curve"/>
      <point x="131" y="533"/>
      <point x="131" y="435"/>
    </contour>
    <contour>
      <point x="131" y="435" type="curve"/>
      <point x="249" y="435"/>
      <point x="129" y="435"/>
      <point x="246" y="435" type="curve"/>
      <point x="246" y="533"/>
      <point x="246" y="435"/>
      <point x="246" y="533" type="curve"/>
      <point x="207" y="533"/>
      <point x="169" y="533"/>
      <point x="131" y="533" type="curve"/>
      <point x="131" y="435"/>
      <point x="131" y="533"/>
    </contour>
    <contour>
      <point x="302" y="0" type="curve"/>
      <point x="353" y="178"/>
      <point x="403" y="355"/>
      <point x="453" y="533" type="curve"/>
      <point x="343" y="533"/>
      <point x="453" y="533"/>
      <point x="343" y="533" type="curve"/>
      <point x="293" y="355"/>
      <point x="243" y="178"/>
      <point x="194" y="0" type="curve"/>
      <point x="302" y="0"/>
      <point x="194" y="0"/>
    </contour>
    <contour>
      <point x="623" y="533" type="curve"/>
      <point x="577" y="355"/>
      <point x="530" y="178"/>
      <point x="484" y="0" type="curve"/>
      <point x="592" y="0"/>
      <point x="484" y="0"/>
      <point x="592" y="0" type="curve"/>
      <point x="639" y="178"/>
      <point x="687" y="355"/>
      <point x="733" y="533" type="curve"/>
      <point x="623" y="533"/>
      <point x="733" y="533"/>
    </contour>
    <contour>
      <point x="348" y="533" type="curve"/>
      <point x="392" y="355"/>
      <point x="438" y="178"/>
      <point x="483" y="0" type="curve"/>
      <point x="591" y="0"/>
      <point x="483" y="0"/>
      <point x="591" y="0" type="curve"/>
      <point x="547" y="178"/>
      <point x="501" y="355"/>
      <point x="457" y="533" type="curve"/>
      <point x="348" y="533"/>
      <point x="457" y="533"/>
    </contour>
    <contour>
      <point x="58" y="533" type="curve"/>
      <point x="103" y="355"/>
      <point x="148" y="178"/>
      <point x="194" y="0" type="curve"/>
      <point x="301" y="0"/>
      <point x="194" y="0"/>
      <point x="301" y="0" type="curve"/>
      <point x="256" y="178"/>
      <point x="212" y="355"/>
      <point x="167" y="533" type="curve"/>
      <point x="58" y="533"/>
      <point x="167" y="533"/>
    </contour>
  </outline>
</glyph>
<glyph name="x" format="1">
  <advance width="545"/>
  <unicode hex="0078"/>
  <outline>
    <contour>
      <point x="107" y="98" type="curve"/>
      <point x="33" y="98"/>
      <point x="100" y="98"/>
      <point x="26" y="98" type="curve"/>
      <point x="26" y="0"/>
      <point x="26" y="98"/>
      <point x="26" y="0" type="curve"/>
      <point x="50" y="0"/>
      <point x="82" y="0"/>
      <point x="107" y="0" type="curve"/>
      <point x="107" y="98"/>
      <point x="107" y="0"/>
    </contour>
    <contour>
      <point x="462" y="98" type="curve"/>
      <point x="318" y="98"/>
      <point x="448" y="98"/>
      <point x="304" y="98" type="curve"/>
      <point x="304" y="0"/>
      <point x="304" y="98"/>
      <point x="304" y="0" type="curve"/>
      <point x="352" y="0"/>
      <point x="413" y="0"/>
      <point x="462" y="0" type="curve"/>
      <point x="462" y="98"/>
      <point x="462" y="0"/>
    </contour>
    <contour>
      <point x="444" y="0" type="curve"/>
      <point x="470" y="0"/>
      <point x="511" y="0"/>
      <point x="536" y="0" type="curve"/>
      <point x="536" y="98"/>
      <point x="536" y="0"/>
      <point x="536" y="98" type="curve"/>
      <point x="460" y="98"/>
      <point x="520" y="98"/>
      <point x="444" y="98" type="curve"/>
      <point x="444" y="0"/>
      <point x="444" y="98"/>
    </contour>
    <contour>
      <point x="90" y="0" type="curve"/>
      <point x="139" y="0"/>
      <point x="101" y="0"/>
      <point x="246" y="0" type="curve"/>
      <point x="246" y="98"/>
      <point x="246" y="0"/>
      <point x="246" y="98" type="curve"/>
      <point x="101" y="98"/>
      <point x="236" y="98"/>
      <point x="90" y="98" type="curve"/>
      <point x="90" y="0"/>
      <point x="90" y="98"/>
    </contour>
    <contour>
      <point x="432" y="435" type="curve"/>
      <point x="513" y="435"/>
      <point x="453" y="435"/>
      <point x="534" y="435" type="curve"/>
      <point x="534" y="533"/>
      <point x="534" y="435"/>
      <point x="534" y="533" type="curve"/>
      <point x="507" y="533"/>
      <point x="459" y="533"/>
      <point x="432" y="533" type="curve"/>
      <point x="432" y="435"/>
      <point x="432" y="533"/>
    </contour>
    <contour>
      <point x="152" y="533" type="curve"/>
      <point x="121" y="533"/>
      <point x="78" y="533"/>
      <point x="48" y="533" type="curve"/>
      <point x="48" y="435"/>
      <point x="48" y="533"/>
      <point x="48" y="435" type="curve"/>
      <point x="140" y="435"/>
      <point x="59" y="435"/>
      <point x="152" y="435" type="curve"/>
      <point x="152" y="533"/>
      <point x="152" y="435"/>
    </contour>
    <contour>
      <point x="126" y="435" type="curve"/>
      <point x="259" y="435"/>
      <point x="127" y="435"/>
      <point x="260" y="435" type="curve"/>
      <point x="260" y="533"/>
      <point x="260" y="435"/>
      <point x="260" y="533" type="curve"/>
      <point x="217" y="533"/>
      <point x="170" y="533"/>
      <point x="126" y="533" type="curve"/>
      <point x="126" y="435"/>
      <point x="126" y="533"/>
    </contour>
    <contour>
      <point x="458" y="533" type="curve"/>
      <point x="410" y="533"/>
      <point x="361" y="533"/>
      <point x="314" y="533" type="curve"/>
      <point x="314" y="435"/>
      <point x="314" y="533"/>
      <point x="314" y="435" type="curve"/>
      <point x="457" y="435"/>
      <point x="315" y="435"/>
      <point x="458" y="435" type="curve"/>
      <point x="458" y="533"/>
      <point x="458" y="435"/>
    </contour>
    <contour>
      <point x="501" y="36" type="curve"/>
      <point x="488" y="60"/>
      <point x="180" y="510"/>
      <point x="167" y="533" type="curve"/>
      <point x="91" y="533"/>
      <point x="146" y="490"/>
      <point x="69" y="490" type="curve"/>
      <point x="82" y="466"/>
      <point x="385" y="23"/>
      <point x="397" y="0" type="curve"/>
      <point x="479" y="0"/>
      <point x="419" y="36"/>
    </contour>
    <contour>
      <point x="409" y="533" type="curve"/>
      <point x="396" y="510"/>
      <point x="70" y="68"/>
      <point x="58" y="44" type="curve"/>
      <point x="134" y="44"/>
      <point x="79" y="0"/>
      <point x="155" y="0" type="curve"/>
      <point x="168" y="23"/>
      <point x="496" y="473"/>
      <point x="509" y="497" type="curve"/>
      <point x="431" y="497"/>
      <point x="487" y="533"/>
    </contour>
  </outline>
</glyph>
<glyph name="y" format="1">
  <advance width="597"/>
  <unicode hex="0079"/>
  <outline>
    <contour>
      <point x="202" y="-200" type="curve"/>
      <point x="93" y="-202"/>
      <point x="203" y="-200"/>
      <point x="94" y="-202" type="curve"/>
      <point x="94" y="-300"/>
      <point x="94" y="-202"/>
      <point x="94" y="-300" type="curve"/>
      <point x="131" y="-300"/>
      <point x="166" y="-299"/>
      <point x="202" y="-299" type="curve"/>
      <point x="202" y="-200"/>
      <point x="202" y="-299"/>
    </contour>
    <contour>
      <point x="127" y="534" type="curve"/>
      <point x="90" y="534"/>
      <point x="54" y="533"/>
      <point x="17" y="533" type="curve"/>
      <point x="16" y="435"/>
      <point x="17" y="533"/>
      <point x="16" y="435" type="curve"/>
      <point x="128" y="435"/>
      <point x="15" y="435"/>
      <point x="127" y="435" type="curve"/>
      <point x="127" y="534"/>
      <point x="127" y="435"/>
    </contour>
    <contour>
      <point x="127" y="435" type="curve"/>
      <point x="260" y="435"/>
      <point x="125" y="435"/>
      <point x="259" y="435" type="curve"/>
      <point x="259" y="533"/>
      <point x="259" y="435"/>
      <point x="259" y="533" type="curve"/>
      <point x="214" y="533"/>
      <point x="171" y="534"/>
      <point x="127" y="534" type="curve"/>
      <point x="127" y="435"/>
      <point x="127" y="534"/>
    </contour>
    <contour>
      <point x="484" y="534" type="curve"/>
      <point x="440" y="534"/>
      <point x="396" y="533"/>
      <point x="352" y="533" type="curve"/>
      <point x="352" y="435"/>
      <point x="352" y="533"/>
      <point x="352" y="435" type="curve"/>
      <point x="485" y="435"/>
      <point x="351" y="435"/>
      <point x="484" y="435" type="curve"/>
      <point x="484" y="534"/>
      <point x="484" y="435"/>
    </contour>
    <contour>
      <point x="484" y="435" type="curve"/>
      <point x="590" y="435"/>
      <point x="483" y="435"/>
      <point x="589" y="435" type="curve"/>
      <point x="589" y="533"/>
      <point x="589" y="435"/>
      <point x="589" y="533" type="curve"/>
      <point x="553" y="533"/>
      <point x="519" y="534"/>
      <point x="484" y="534" type="curve"/>
      <point x="484" y="435"/>
      <point x="484" y="534"/>
    </contour>
    <contour>
      <point x="357" y="-20" type="curve"/>
      <point x="305" y="142"/>
      <point x="234" y="371"/>
      <point x="182" y="533" type="curve"/>
      <point x="51" y="533"/>
      <point x="182" y="533"/>
      <point x="51" y="533" type="curve"/>
      <point x="108" y="372"/>
      <point x="183" y="140"/>
      <point x="239" y="-21" type="curve"/>
      <point x="357" y="-21"/>
      <point x="239" y="-20"/>
    </contour>
    <contour>
      <point x="258" y="-300" type="curve"/>
      <point x="346" y="-59"/>
      <point x="469" y="292"/>
      <point x="557" y="533" type="curve"/>
      <point x="428" y="533"/>
      <point x="557" y="533"/>
      <point x="428" y="533" type="curve"/>
      <point x="339" y="292"/>
      <point x="216" y="-59"/>
      <point x="128" y="-300" type="curve"/>
      <point x="258" y="-300"/>
      <point x="128" y="-300"/>
    </contour>
    <contour>
      <point x="303" y="618" type="move" name="top"/>
    </contour>
  </outline>
</glyph>
<glyph name="z" format="1">
  <advance width="450"/>
  <unicode hex="007A"/>
  <outline>
    <contour>
      <point x="51" y="435" type="curve"/>
      <point x="156" y="435"/>
      <point x="260" y="435"/>
      <point x="366" y="435" type="curve"/>
      <point x="356" y="445"/>
      <point x="338" y="442"/>
      <point x="328" y="452" type="curve"/>
      <point x="319" y="460"/>
      <point x="322" y="476"/>
      <point x="312" y="485" type="curve"/>
      <point x="305" y="476"/>
      <point x="290" y="484"/>
      <point x="282" y="476" type="curve"/>
      <point x="39" y="99" type="line"/>
      <point x="39" y="48"/>
      <point x="39" y="99"/>
      <point x="39" y="48" type="curve"/>
      <point x="39" y="0"/>
      <point x="39" y="48"/>
      <point x="39" y="0" type="curve"/>
      <point x="85" y="0"/>
      <point x="39" y="0"/>
      <point x="85" y="0" type="curve"/>
      <point x="420" y="0"/>
      <point x="307" y="0"/>
      <point x="419" y="0" type="curve"/>
      <point x="419" y="98"/>
      <point x="419" y="0"/>
      <point x="419" y="98" type="curve"/>
      <point x="307" y="98"/>
      <point x="196" y="99"/>
      <point x="85" y="99" type="curve"/>
      <point x="94" y="91"/>
      <point x="108" y="92"/>
      <point x="117" y="85" type="curve"/>
      <point x="128" y="75"/>
      <point x="127" y="58"/>
      <point x="137" y="48" type="curve"/>
      <point x="144" y="57"/>
      <point x="159" y="49"/>
      <point x="167" y="57" type="curve"/>
      <point x="416" y="435" type="line"/>
      <point x="416" y="485"/>
      <point x="416" y="435"/>
      <point x="416" y="485" type="curve"/>
      <point x="416" y="533"/>
      <point x="416" y="485"/>
      <point x="416" y="533" type="curve"/>
      <point x="366" y="533"/>
      <point x="416" y="533"/>
      <point x="366" y="533" type="curve"/>
      <point x="260" y="533"/>
      <point x="156" y="533"/>
      <point x="51" y="533" type="curve"/>
      <point x="51" y="435"/>
      <point x="51" y="533"/>
    </contour>
    <contour>
      <point x="51" y="484" type="curve"/>
      <point x="51" y="364"/>
      <point x="51" y="485"/>
      <point x="51" y="365" type="curve"/>
      <point x="150" y="365"/>
      <point x="51" y="365"/>
      <point x="150" y="365" type="curve"/>
      <point x="150" y="485"/>
      <point x="150" y="364"/>
      <point x="150" y="484" type="curve"/>
      <point x="51" y="484"/>
      <point x="150" y="484"/>
    </contour>
    <contour>
      <point x="419" y="49" type="curve"/>
      <point x="419" y="169"/>
      <point x="419" y="48"/>
      <point x="419" y="168" type="curve"/>
      <point x="319" y="168"/>
      <point x="419" y="168"/>
      <point x="319" y="168" type="curve"/>
      <point x="319" y="48"/>
      <point x="319" y="169"/>
      <point x="319" y="49" type="curve"/>
      <point x="419" y="49"/>
      <point x="319" y="49"/>
    </contour>
    <contour>
      <point x="236" y="618" type="move" name="top"/>
    </contour>
  </outline>
</glyph>
<glyph name="braceleft" format="1">
  <advance width="252"/>
  <unicode hex="007B"/>
  <outline>
    <contour>
      <point x="206" y="-12" type="curve"/>
      <point x="173" y="-12"/>
      <point x="178" y="24"/>
      <point x="178" y="61" type="curve"/>
      <point x="178" y="113"/>
      <point x="178" y="165"/>
      <point x="178" y="217" type="curve"/>
      <point x="178" y="318"/>
      <point x="129" y="393"/>
      <point x="34" y="393" type="curve"/>
      <point x="34" y="289"/>
      <point x="34" y="393"/>
      <point x="34" y="289" type="curve"/>
      <point x="62" y="289"/>
      <point x="62" y="259"/>
      <point x="62" y="227" type="curve"/>
      <point x="62" y="173"/>
      <point x="62" y="119"/>
      <point x="62" y="66" type="curve"/>
      <point x="62" y="-37"/>
      <point x="110" y="-110"/>
      <point x="206" y="-110" type="curve"/>
      <point x="206" y="-12"/>
      <point x="206" y="-110"/>
    </contour>
    <contour>
      <point x="206" y="791" type="curve"/>
      <point x="110" y="791"/>
      <point x="62" y="720"/>
      <point x="62" y="619" type="curve"/>
      <point x="62" y="563"/>
      <point x="62" y="507"/>
      <point x="62" y="452" type="curve"/>
      <point x="62" y="420"/>
      <point x="61" y="393"/>
      <point x="34" y="393" type="curve"/>
      <point x="34" y="289"/>
      <point x="34" y="393"/>
      <point x="34" y="289" type="curve"/>
      <point x="130" y="289"/>
      <point x="178" y="363"/>
      <point x="178" y="467" type="curve"/>
      <point x="178" y="517"/>
      <point x="178" y="568"/>
      <point x="178" y="619" type="curve"/>
      <point x="178" y="657"/>
      <point x="172" y="692"/>
      <point x="206" y="692" type="curve"/>
      <point x="206" y="791"/>
      <point x="206" y="692"/>
    </contour>
  </outline>
</glyph>
<glyph name="asciitilde" format="1">
  <advance width="583"/>
  <unicode hex="007E"/>
  <outline>
    <contour>
      <point x="424" y="375" type="curve"/>
      <point x="414" y="338"/>
      <point x="401" y="301"/>
      <point x="378" y="301" type="curve"/>
      <point x="358" y="301"/>
      <point x="347" y="310"/>
      <point x="334" y="324" type="curve"/>
      <point x="295" y="365"/>
      <point x="266" y="387"/>
      <point x="209" y="387" type="curve"/>
      <point x="119" y="387"/>
      <point x="79" y="331"/>
      <point x="58" y="240" type="curve"/>
      <point x="100" y="226"/>
      <point x="119" y="219"/>
      <point x="161" y="205" type="curve"/>
      <point x="169" y="245"/>
      <point x="182" y="281"/>
      <point x="207" y="281" type="curve"/>
      <point x="228" y="281"/>
      <point x="238" y="273"/>
      <point x="253" y="258" type="curve"/>
      <point x="293" y="217"/>
      <point x="322" y="197"/>
      <point x="379" y="196" type="curve"/>
      <point x="468" y="196"/>
      <point x="500" y="255"/>
      <point x="525" y="343" type="curve"/>
      <point x="484" y="356"/>
      <point x="465" y="363"/>
    </contour>
  </outline>
</glyph>
<glyph name="exclamdown" format="1">
  <advance width="257"/>
  <unicode hex="00A1"/>
  <outline>
    <contour>
      <point x="66" y="300" type="line"/>
      <point x="56" y="-193" type="line"/>
      <point x="201" y="-194" type="line"/>
      <point x="194" y="299" type="line"/>
    </contour>
    <contour>
      <point x="65" y="474" type="curve"/>
      <point x="64" y="431"/>
      <point x="93" y="409"/>
      <point x="131" y="408" type="curve"/>
      <point x="171" y="408"/>
      <point x="197" y="432"/>
      <point x="197" y="473" type="curve"/>
      <point x="65" y="474"/>
      <point x="197" y="473"/>
      <point x="65" y="474" type="curve"/>
      <point x="65" y="518"/>
      <point x="93" y="538"/>
      <point x="132" y="537" type="curve"/>
      <point x="173" y="537"/>
      <point x="198" y="515"/>
      <point x="197" y="473" type="curve"/>
      <point x="65" y="474"/>
      <point x="197" y="473"/>
    </contour>
  </outline>
</glyph>
<glyph name="cent" format="1">
  <advance width="556"/>
  <unicode hex="00A2"/>
  <outline>
    <contour>
      <point x="360" y="-53" type="curve"/>
      <point x="360" y="-13"/>
      <point x="360" y="27"/>
      <point x="360" y="67" type="curve"/>
      <point x="232" y="67"/>
      <point x="360" y="67"/>
      <point x="232" y="67" type="curve"/>
      <point x="232" y="27"/>
      <point x="232" y="-13"/>
      <point x="232" y="-53" type="curve"/>
      <point x="360" y="-53"/>
      <point x="232" y="-53"/>
    </contour>
    <contour>
      <point x="248" y="778" type="curve"/>
      <point x="248" y="742"/>
      <point x="248" y="706"/>
      <point x="248" y="670" type="curve"/>
      <point x="376" y="670"/>
      <point x="248" y="670"/>
      <point x="376" y="670" type="curve"/>
      <point x="376" y="706"/>
      <point x="376" y="742"/>
      <point x="376" y="778" type="curve"/>
      <point x="248" y="778"/>
      <point x="376" y="778"/>
    </contour>
    <contour>
      <point x="506" y="609" type="curve"/>
      <point x="447" y="665"/>
      <point x="395" y="686"/>
      <point x="320" y="686" type="curve"/>
      <point x="142" y="686"/>
      <point x="46" y="552"/>
      <point x="46" y="363" type="curve"/>
      <point x="46" y="182"/>
      <point x="123" y="46"/>
      <point x="290" y="46" type="curve"/>
      <point x="380" y="46"/>
      <point x="443" y="73"/>
      <point x="503" y="146" type="curve"/>
      <point x="426" y="220"/>
      <point x="503" y="146"/>
      <point x="426" y="220" type="curve"/>
      <point x="387" y="180"/>
      <point x="357" y="150"/>
      <point x="302" y="150" type="curve"/>
      <point x="204" y="150"/>
      <point x="173" y="250"/>
      <point x="173" y="369" type="curve"/>
      <point x="173" y="486"/>
      <point x="214" y="582"/>
      <point x="308" y="582" type="curve"/>
      <point x="360" y="582"/>
      <point x="395" y="564"/>
      <point x="434" y="528" type="curve"/>
      <point x="506" y="609"/>
      <point x="434" y="528"/>
    </contour>
    <contour>
      <point x="406" y="609" type="curve"/>
      <point x="406" y="489"/>
      <point x="406" y="592"/>
      <point x="406" y="472" type="curve"/>
      <point x="506" y="472"/>
      <point x="406" y="472"/>
      <point x="506" y="472" type="curve"/>
      <point x="506" y="592"/>
      <point x="506" y="489"/>
      <point x="506" y="609" type="curve"/>
      <point x="406" y="609"/>
      <point x="506" y="609"/>
    </contour>
  </outline>
</glyph>
<glyph name="sterling" format="1">
  <advance width="418"/>
  <unicode hex="00A3"/>
  <outline>
    <contour>
      <point x="353" y="99" type="curve"/>
      <point x="253" y="99"/>
      <point x="146" y="99"/>
      <point x="46" y="99" type="curve"/>
      <point x="46" y="0"/>
      <point x="46" y="99"/>
      <point x="46" y="0" type="curve"/>
      <point x="146" y="0"/>
      <point x="253" y="0"/>
      <point x="353" y="0" type="curve"/>
      <point x="353" y="99"/>
      <point x="353" y="0"/>
    </contour>
    <contour>
      <point x="311" y="424" type="curve"/>
      <point x="231" y="424"/>
      <point x="142" y="424"/>
      <point x="63" y="424" type="curve"/>
      <point x="63" y="326"/>
      <point x="63" y="424"/>
      <point x="63" y="326" type="curve"/>
      <point x="142" y="326"/>
      <point x="231" y="326"/>
      <point x="311" y="326" type="curve"/>
      <point x="311" y="424"/>
      <point x="311" y="326"/>
    </contour>
    <contour>
      <point x="381" y="662" type="curve"/>
      <point x="342" y="707"/>
      <point x="307" y="721"/>
      <point x="256" y="721" type="curve"/>
      <point x="99" y="721"/>
      <point x="69" y="558"/>
      <point x="102" y="364" type="curve"/>
      <point x="125" y="229"/>
      <point x="126" y="99"/>
      <point x="46" y="99" type="curve"/>
      <point x="46" y="0"/>
      <point x="46" y="99"/>
      <point x="46" y="0" type="curve"/>
      <point x="219" y="0"/>
      <point x="249" y="178"/>
      <point x="215" y="385" type="curve"/>
      <point x="194" y="508"/>
      <point x="185" y="627"/>
      <point x="250" y="627" type="curve"/>
      <point x="279" y="627"/>
      <point x="295" y="610"/>
      <point x="316" y="590" type="curve"/>
      <point x="381" y="662"/>
      <point x="316" y="590"/>
    </contour>
  </outline>
</glyph>
<glyph name="yen" format="1">
  <advance width="620"/>
  <unicode hex="00A5"/>
  <outline>
    <contour>
      <point x="469" y="414" type="curve"/>
      <point x="416" y="414"/>
      <point x="364" y="414"/>
      <point x="312" y="414" type="curve"/>
      <point x="312" y="304"/>
      <point x="312" y="414"/>
      <point x="312" y="304" type="curve"/>
      <point x="364" y="304"/>
      <point x="416" y="304"/>
      <point x="469" y="304" type="curve"/>
      <point x="469" y="414"/>
      <point x="469" y="304"/>
    </contour>
    <contour>
      <point x="290" y="414" type="curve"/>
      <point x="239" y="414"/>
      <point x="187" y="414"/>
      <point x="137" y="414" type="curve"/>
      <point x="137" y="304"/>
      <point x="137" y="414"/>
      <point x="137" y="304" type="curve"/>
      <point x="187" y="304"/>
      <point x="239" y="304"/>
      <point x="290" y="304" type="curve"/>
      <point x="290" y="414"/>
      <point x="290" y="304"/>
    </contour>
    <contour>
      <point x="469" y="273" type="curve"/>
      <point x="358" y="273"/>
      <point x="247" y="273"/>
      <point x="137" y="273" type="curve"/>
      <point x="137" y="165"/>
      <point x="137" y="273"/>
      <point x="137" y="165" type="curve"/>
      <point x="247" y="165"/>
      <point x="358" y="165"/>
      <point x="469" y="165" type="curve"/>
      <point x="469" y="273"/>
      <point x="469" y="165"/>
    </contour>
    <contour>
      <point x="302" y="98" type="curve"/>
      <point x="167" y="98"/>
      <point x="304" y="98"/>
      <point x="169" y="98" type="curve"/>
      <point x="169" y="0"/>
      <point x="169" y="98"/>
      <point x="169" y="0" type="curve"/>
      <point x="213" y="0"/>
      <point x="257" y="0"/>
      <point x="302" y="0" type="curve"/>
      <point x="302" y="98"/>
      <point x="302" y="0"/>
    </contour>
    <contour>
      <point x="302" y="0" type="curve"/>
      <point x="348" y="0"/>
      <point x="392" y="0"/>
      <point x="436" y="0" type="curve"/>
      <point x="436" y="98"/>
      <point x="436" y="0"/>
      <point x="436" y="98" type="curve"/>
      <point x="301" y="98"/>
      <point x="437" y="98"/>
      <point x="302" y="98" type="curve"/>
      <point x="302" y="0"/>
      <point x="302" y="98"/>
    </contour>
    <contour>
      <point x="460" y="722" type="curve"/>
      <point x="418" y="722"/>
      <point x="377" y="722"/>
      <point x="335" y="722" type="curve"/>
      <point x="335" y="624"/>
      <point x="335" y="722"/>
      <point x="335" y="624" type="curve"/>
      <point x="462" y="624"/>
      <point x="334" y="624"/>
      <point x="460" y="624" type="curve"/>
      <point x="460" y="722"/>
      <point x="460" y="624"/>
    </contour>
    <contour>
      <point x="137" y="722" type="curve"/>
      <point x="102" y="722"/>
      <point x="69" y="722"/>
      <point x="35" y="722" type="curve"/>
      <point x="34" y="624"/>
      <point x="35" y="722"/>
      <point x="34" y="624" type="curve"/>
      <point x="138" y="624"/>
      <point x="33" y="624"/>
      <point x="137" y="624" type="curve"/>
      <point x="137" y="722"/>
      <point x="137" y="624"/>
    </contour>
    <contour>
      <point x="154" y="624" type="curve"/>
      <point x="280" y="624"/>
      <point x="153" y="624"/>
      <point x="279" y="624" type="curve"/>
      <point x="279" y="722"/>
      <point x="279" y="624"/>
      <point x="279" y="722" type="curve"/>
      <point x="237" y="722"/>
      <point x="196" y="722"/>
      <point x="154" y="722" type="curve"/>
      <point x="154" y="624"/>
      <point x="154" y="722"/>
    </contour>
    <contour>
      <point x="478" y="624" type="curve"/>
      <point x="587" y="624"/>
      <point x="477" y="624"/>
      <point x="585" y="624" type="curve"/>
      <point x="585" y="722"/>
      <point x="585" y="624"/>
      <point x="585" y="722" type="curve"/>
      <point x="550" y="722"/>
      <point x="514" y="722"/>
      <point x="478" y="722" type="curve"/>
      <point x="478" y="624"/>
      <point x="478" y="722"/>
    </contour>
    <contour>
      <point x="63" y="722" type="curve"/>
      <point x="121" y="594"/>
      <point x="176" y="468"/>
      <point x="233" y="337" type="curve"/>
      <point x="362" y="337"/>
      <point x="214" y="337"/>
      <point x="343" y="337" type="curve"/>
      <point x="293" y="469"/>
      <point x="245" y="591"/>
      <point x="192" y="722" type="curve"/>
      <point x="63" y="722"/>
      <point x="192" y="722"/>
    </contour>
    <contour>
      <point x="422" y="722" type="curve"/>
      <point x="364" y="590"/>
      <point x="313" y="468"/>
      <point x="253" y="337" type="curve"/>
      <point x="382" y="337"/>
      <point x="242" y="337"/>
      <point x="372" y="337" type="curve"/>
      <point x="432" y="468"/>
      <point x="490" y="594"/>
      <point x="552" y="722" type="curve"/>
      <point x="422" y="722"/>
      <point x="552" y="722"/>
    </contour>
    <contour>
      <point x="372" y="0" type="curve"/>
      <point x="372" y="115"/>
      <point x="372" y="223"/>
      <point x="372" y="338" type="curve"/>
      <point x="233" y="338"/>
      <point x="372" y="338"/>
      <point x="233" y="338" type="curve"/>
      <point x="233" y="223"/>
      <point x="233" y="115"/>
      <point x="233" y="0" type="curve"/>
      <point x="372" y="0"/>
      <point x="233" y="0"/>
    </contour>
  </outline>
</glyph>
<glyph name="section" format="1">
  <advance width="469"/>
  <unicode hex="00A7"/>
  <outline>
    <contour>
      <point x="370" y="699" type="curve"/>
      <point x="325" y="733"/>
      <point x="291" y="749"/>
      <point x="239" y="749" type="curve"/>
      <point x="139" y="749"/>
      <point x="76" y="691"/>
      <point x="76" y="598" type="curve"/>
      <point x="76" y="517"/>
      <point x="119" y="466"/>
      <point x="195" y="434" type="curve"/>
      <point x="242" y="413"/>
      <point x="294" y="404"/>
      <point x="294" y="361" type="curve"/>
      <point x="294" y="315"/>
      <point x="269" y="285"/>
      <point x="223" y="275" type="curve"/>
      <point x="299" y="195"/>
      <point x="223" y="275"/>
      <point x="299" y="195" type="curve"/>
      <point x="380" y="218"/>
      <point x="421" y="277"/>
      <point x="421" y="361" type="curve"/>
      <point x="420" y="454"/>
      <point x="348" y="493"/>
      <point x="258" y="528" type="curve"/>
      <point x="225" y="541"/>
      <point x="195" y="562"/>
      <point x="195" y="598" type="curve"/>
      <point x="195" y="625"/>
      <point x="210" y="650"/>
      <point x="240" y="650" type="curve"/>
      <point x="273" y="650"/>
      <point x="287" y="639"/>
      <point x="310" y="621" type="curve"/>
      <point x="370" y="699"/>
      <point x="310" y="621"/>
    </contour>
    <contour>
      <point x="171" y="526" type="curve"/>
      <point x="94" y="497"/>
      <point x="50" y="447"/>
      <point x="50" y="366" type="curve"/>
      <point x="50" y="277"/>
      <point x="108" y="230"/>
      <point x="194" y="197" type="curve"/>
      <point x="234" y="181"/>
      <point x="276" y="170"/>
      <point x="276" y="129" type="curve"/>
      <point x="276" y="98"/>
      <point x="261" y="72"/>
      <point x="234" y="72" type="curve"/>
      <point x="198" y="72"/>
      <point x="179" y="88"/>
      <point x="152" y="111" type="curve"/>
      <point x="82" y="41"/>
      <point x="152" y="111"/>
      <point x="82" y="41" type="curve"/>
      <point x="129" y="-8"/>
      <point x="171" y="-27"/>
      <point x="232" y="-27" type="curve"/>
      <point x="332" y="-27"/>
      <point x="399" y="30"/>
      <point x="399" y="129" type="curve"/>
      <point x="398" y="211"/>
      <point x="353" y="261"/>
      <point x="275" y="291" type="curve"/>
      <point x="227" y="311"/>
      <point x="177" y="322"/>
      <point x="177" y="366" type="curve"/>
      <point x="177" y="408"/>
      <point x="196" y="437"/>
      <point x="234" y="452" type="curve"/>
      <point x="171" y="526"/>
      <point x="234" y="452"/>
    </contour>
    <contour>
      <point x="182" y="41" type="curve"/>
      <point x="182" y="161"/>
      <point x="182" y="37"/>
      <point x="182" y="157" type="curve"/>
      <point x="82" y="157"/>
      <point x="182" y="157"/>
      <point x="82" y="157" type="curve"/>
      <point x="82" y="37"/>
      <point x="82" y="161"/>
      <point x="82" y="41" type="curve"/>
      <point x="182" y="41"/>
      <point x="82" y="41"/>
    </contour>
    <contour>
      <point x="370" y="584" type="curve"/>
      <point x="370" y="704"/>
      <point x="370" y="579"/>
      <point x="370" y="699" type="curve"/>
      <point x="270" y="699"/>
      <point x="370" y="699"/>
      <point x="270" y="699" type="curve"/>
      <point x="270" y="579"/>
      <point x="270" y="704"/>
      <point x="270" y="584" type="curve"/>
      <point x="370" y="584"/>
      <point x="270" y="584"/>
    </contour>
  </outline>
</glyph>
<glyph name="dieresis" format="1">
  <advance width="372"/>
  <unicode hex="00A8"/>
  <outline>
    <contour>
      <point x="160" y="670" type="curve"/>
      <point x="160" y="713"/>
      <point x="131" y="735"/>
      <point x="92" y="735" type="curve"/>
      <point x="52" y="735"/>
      <point x="26" y="711"/>
      <point x="26" y="670" type="curve"/>
      <point x="160" y="670"/>
      <point x="26" y="670"/>
      <point x="160" y="670" type="curve"/>
      <point x="160" y="626"/>
      <point x="132" y="606"/>
      <point x="92" y="606" type="curve"/>
      <point x="52" y="606"/>
      <point x="26" y="628"/>
      <point x="26" y="670" type="curve"/>
      <point x="160" y="670"/>
      <point x="26" y="670"/>
    </contour>
    <contour>
      <point x="344" y="670" type="curve"/>
      <point x="344" y="713"/>
      <point x="316" y="735"/>
      <point x="277" y="735" type="curve"/>
      <point x="237" y="735"/>
      <point x="211" y="711"/>
      <point x="211" y="670" type="curve"/>
      <point x="344" y="670"/>
      <point x="211" y="670"/>
      <point x="344" y="670" type="curve"/>
      <point x="344" y="626"/>
      <point x="316" y="606"/>
      <point x="277" y="606" type="curve"/>
      <point x="236" y="606"/>
      <point x="211" y="628"/>
      <point x="211" y="670" type="curve"/>
      <point x="344" y="670"/>
      <point x="211" y="670"/>
    </contour>
    <contour>
      <point x="185" y="612" type="move" name="_top"/>
    </contour>
  </outline>
</glyph>
<glyph name="copyright" format="1">
  <advance width="655"/>
  <unicode hex="00A9"/>
  <outline>
    <contour>
      <point x="152" y="323" type="curve"/>
      <point x="152" y="456"/>
      <point x="211" y="565"/>
      <point x="331" y="565" type="curve"/>
      <point x="449" y="565"/>
      <point x="505" y="454"/>
      <point x="505" y="321" type="curve"/>
      <point x="505" y="194"/>
      <point x="451" y="84"/>
      <point x="337" y="84" type="curve"/>
      <point x="218" y="84"/>
      <point x="152" y="191"/>
      <point x="152" y="323" type="curve"/>
      <point x="48" y="323"/>
      <point x="155" y="323"/>
      <point x="52" y="323" type="curve"/>
      <point x="52" y="142"/>
      <point x="158" y="5"/>
      <point x="333" y="5" type="curve"/>
      <point x="503" y="5"/>
      <point x="604" y="144"/>
      <point x="604" y="325" type="curve"/>
      <point x="604" y="506"/>
      <point x="501" y="645"/>
      <point x="331" y="645" type="curve"/>
      <point x="157" y="645"/>
      <point x="52" y="506"/>
      <point x="52" y="323" type="curve"/>
      <point x="155" y="323"/>
      <point x="48" y="323"/>
    </contour>
    <contour>
      <point x="364" y="422" type="curve"/>
      <point x="364" y="410"/>
      <point x="364" y="386"/>
      <point x="364" y="370" type="curve"/>
      <point x="458" y="370"/>
      <point x="364" y="370"/>
      <point x="458" y="370" type="curve"/>
      <point x="458" y="400"/>
      <point x="458" y="439"/>
      <point x="458" y="462" type="curve"/>
      <point x="364" y="422"/>
      <point x="458" y="462"/>
    </contour>
    <contour>
      <point x="458" y="462" type="curve"/>
      <point x="425" y="498"/>
      <point x="385" y="511"/>
      <point x="337" y="511" type="curve"/>
      <point x="230" y="511"/>
      <point x="179" y="433"/>
      <point x="179" y="322" type="curve"/>
      <point x="179" y="215"/>
      <point x="223" y="139"/>
      <point x="324" y="139" type="curve"/>
      <point x="378" y="139"/>
      <point x="417" y="150"/>
      <point x="454" y="204" type="curve"/>
      <point x="390" y="250"/>
      <point x="454" y="204"/>
      <point x="390" y="250" type="curve"/>
      <point x="371" y="231"/>
      <point x="356" y="219"/>
      <point x="328" y="219" type="curve"/>
      <point x="280" y="219"/>
      <point x="274" y="269"/>
      <point x="274" y="326" type="curve"/>
      <point x="274" y="383"/>
      <point x="283" y="431"/>
      <point x="333" y="431" type="curve"/>
      <point x="346" y="431"/>
      <point x="356" y="429"/>
      <point x="364" y="422" type="curve"/>
      <point x="458" y="462"/>
      <point x="364" y="422"/>
    </contour>
  </outline>
</glyph>
<glyph name="ordfeminine" format="1">
  <advance width="383"/>
  <unicode hex="00AA"/>
  <outline>
    <contour>
      <point x="64" y="721" type="curve"/>
      <point x="64" y="655"/>
      <point x="64" y="716"/>
      <point x="64" y="651" type="curve"/>
      <point x="129" y="651"/>
      <point x="66" y="651"/>
      <point x="130" y="651" type="curve"/>
      <point x="130" y="716"/>
      <point x="130" y="655"/>
      <point x="130" y="721" type="curve"/>
      <point x="66" y="721"/>
      <point x="129" y="721"/>
    </contour>
    <contour>
      <point x="298" y="425" type="curve"/>
      <point x="298" y="506"/>
      <point x="298" y="584"/>
      <point x="298" y="665" type="curve"/>
      <point x="298" y="737"/>
      <point x="250" y="769"/>
      <point x="179" y="769" type="curve"/>
      <point x="127" y="769"/>
      <point x="91" y="749"/>
      <point x="64" y="721" type="curve"/>
      <point x="95" y="668"/>
      <point x="65" y="719"/>
      <point x="97" y="666" type="curve"/>
      <point x="113" y="684"/>
      <point x="134" y="702"/>
      <point x="167" y="702" type="curve"/>
      <point x="198" y="702"/>
      <point x="215" y="685"/>
      <point x="215" y="654" type="curve"/>
      <point x="215" y="576"/>
      <point x="215" y="502"/>
      <point x="215" y="425" type="curve"/>
      <point x="296" y="425"/>
      <point x="217" y="425"/>
    </contour>
    <contour>
      <point x="258" y="425" type="curve"/>
      <point x="282" y="425"/>
      <point x="308" y="425"/>
      <point x="333" y="425" type="curve"/>
      <point x="333" y="487"/>
      <point x="333" y="427"/>
      <point x="333" y="489" type="curve"/>
      <point x="261" y="489"/>
      <point x="329" y="489"/>
      <point x="258" y="489" type="curve"/>
      <point x="258" y="427"/>
      <point x="258" y="487"/>
    </contour>
    <contour>
      <point x="255" y="647" type="curve"/>
      <point x="218" y="642"/>
      <point x="196" y="639"/>
      <point x="160" y="633" type="curve"/>
      <point x="92" y="623"/>
      <point x="47" y="594"/>
      <point x="47" y="529" type="curve"/>
      <point x="47" y="462"/>
      <point x="83" y="422"/>
      <point x="149" y="422" type="curve"/>
      <point x="214" y="422"/>
      <point x="240" y="475"/>
      <point x="277" y="521" type="curve"/>
      <point x="236" y="555"/>
      <point x="276" y="522"/>
      <point x="235" y="556" type="curve"/>
      <point x="219" y="519"/>
      <point x="206" y="487"/>
      <point x="169" y="487" type="curve"/>
      <point x="140" y="487"/>
      <point x="127" y="504"/>
      <point x="127" y="532" type="curve"/>
      <point x="127" y="555"/>
      <point x="142" y="573"/>
      <point x="162" y="576" type="curve"/>
      <point x="201" y="582"/>
      <point x="219" y="585"/>
      <point x="258" y="592" type="curve"/>
      <point x="255" y="645"/>
      <point x="257" y="594"/>
    </contour>
  </outline>
</glyph>
<glyph name="guillemotleft" format="1">
  <advance width="456"/>
  <unicode hex="00AB"/>
  <outline>
    <contour>
      <point x="208" y="477" type="curve"/>
      <point x="171" y="447"/>
      <point x="84" y="379"/>
      <point x="46" y="349" type="curve"/>
      <point x="46" y="240"/>
      <point x="46" y="331"/>
      <point x="46" y="222" type="curve"/>
      <point x="84" y="253"/>
      <point x="171" y="330"/>
      <point x="208" y="360" type="curve"/>
      <point x="208" y="469"/>
      <point x="208" y="369"/>
    </contour>
    <contour>
      <point x="208" y="213" type="curve"/>
      <point x="171" y="244"/>
      <point x="84" y="318"/>
      <point x="46" y="349" type="curve"/>
      <point x="46" y="240"/>
      <point x="46" y="331"/>
      <point x="46" y="222" type="curve"/>
      <point x="84" y="192"/>
      <point x="171" y="126"/>
      <point x="208" y="97" type="curve"/>
      <point x="208" y="205"/>
      <point x="208" y="105"/>
    </contour>
    <contour>
      <point x="387" y="477" type="curve"/>
      <point x="350" y="447"/>
      <point x="263" y="379"/>
      <point x="225" y="349" type="curve"/>
      <point x="225" y="240"/>
      <point x="225" y="331"/>
      <point x="225" y="222" type="curve"/>
      <point x="263" y="253"/>
      <point x="350" y="330"/>
      <point x="387" y="360" type="curve"/>
      <point x="387" y="469"/>
      <point x="387" y="369"/>
    </contour>
    <contour>
      <point x="387" y="213" type="curve"/>
      <point x="350" y="244"/>
      <point x="263" y="318"/>
      <point x="225" y="349" type="curve"/>
      <point x="225" y="240"/>
      <point x="225" y="331"/>
      <point x="225" y="222" type="curve"/>
      <point x="263" y="192"/>
      <point x="350" y="126"/>
      <point x="387" y="97" type="curve"/>
      <point x="387" y="205"/>
      <point x="387" y="105"/>
    </contour>
  </outline>
</glyph>
<glyph name="logicalnot" format="1">
  <advance width="528"/>
  <unicode hex="00AC"/>
  <outline>
    <contour>
      <point x="73" y="261" type="curve"/>
      <point x="461" y="261" type="line"/>
      <point x="461" y="369"/>
      <point x="461" y="261"/>
      <point x="461" y="369" type="curve"/>
      <point x="73" y="369" type="line"/>
      <point x="73" y="261"/>
      <point x="73" y="369"/>
    </contour>
    <contour>
      <point x="461" y="140" type="curve"/>
      <point x="461" y="369" type="line"/>
      <point x="333" y="369"/>
      <point x="461" y="369"/>
      <point x="334" y="369" type="curve"/>
      <point x="334" y="140" type="line"/>
      <point x="461" y="140"/>
      <point x="333" y="140"/>
    </contour>
  </outline>
</glyph>
<glyph name="registered" format="1">
  <advance width="674"/>
  <unicode hex="00AE"/>
  <outline>
    <contour>
      <point x="138" y="322" type="curve"/>
      <point x="138" y="467"/>
      <point x="205" y="572"/>
      <point x="340" y="572" type="curve"/>
      <point x="474" y="572"/>
      <point x="537" y="465"/>
      <point x="537" y="320" type="curve"/>
      <point x="537" y="179"/>
      <point x="476" y="73"/>
      <point x="347" y="73" type="curve"/>
      <point x="211" y="73"/>
      <point x="138" y="177"/>
      <point x="138" y="322" type="curve"/>
      <point x="104" y="322"/>
      <point x="86" y="322"/>
      <point x="52" y="322" type="curve"/>
      <point x="52" y="132"/>
      <point x="158" y="3"/>
      <point x="342" y="3" type="curve"/>
      <point x="523" y="3"/>
      <point x="622" y="135"/>
      <point x="622" y="323" type="curve"/>
      <point x="622" y="512"/>
      <point x="521" y="643"/>
      <point x="340" y="643" type="curve"/>
      <point x="156" y="643"/>
      <point x="52" y="512"/>
      <point x="52" y="322" type="curve"/>
      <point x="86" y="322"/>
      <point x="104" y="322"/>
    </contour>
    <contour>
      <point x="402" y="142" type="curve"/>
      <point x="433" y="142"/>
      <point x="440" y="142"/>
      <point x="471" y="142" type="curve"/>
      <point x="471" y="221"/>
      <point x="471" y="142"/>
      <point x="471" y="221" type="curve"/>
      <point x="464" y="221"/>
      <point x="462" y="221"/>
      <point x="455" y="221" type="curve"/>
      <point x="381" y="142"/>
      <point x="476" y="221"/>
    </contour>
    <contour>
      <point x="334" y="507" type="curve"/>
      <point x="294" y="507"/>
      <point x="255" y="507"/>
      <point x="215" y="507" type="curve"/>
      <point x="215" y="426"/>
      <point x="215" y="507"/>
      <point x="215" y="426" type="curve"/>
      <point x="220" y="426"/>
      <point x="226" y="426"/>
      <point x="232" y="426" type="curve"/>
      <point x="334" y="507"/>
      <point x="232" y="426"/>
    </contour>
    <contour>
      <point x="334" y="221" type="curve"/>
      <point x="294" y="221"/>
      <point x="255" y="221"/>
      <point x="215" y="221" type="curve"/>
      <point x="215" y="142"/>
      <point x="215" y="221"/>
      <point x="215" y="142" type="curve"/>
      <point x="220" y="142"/>
      <point x="226" y="142"/>
      <point x="232" y="142" type="curve"/>
      <point x="334" y="221"/>
      <point x="232" y="142"/>
    </contour>
    <contour>
      <point x="232" y="142" type="curve"/>
      <point x="269" y="142"/>
      <point x="305" y="142"/>
      <point x="343" y="142" type="curve"/>
      <point x="343" y="221"/>
      <point x="343" y="142"/>
      <point x="343" y="221" type="curve"/>
      <point x="340" y="221"/>
      <point x="337" y="221"/>
      <point x="334" y="221" type="curve"/>
      <point x="232" y="142"/>
      <point x="334" y="221"/>
    </contour>
    <contour>
      <point x="313" y="319" type="curve"/>
      <point x="316" y="312"/>
      <point x="399" y="149"/>
      <point x="402" y="142" type="curve"/>
      <point x="476" y="221"/>
      <point x="381" y="142"/>
      <point x="455" y="221" type="curve"/>
      <point x="453" y="227"/>
      <point x="410" y="306"/>
      <point x="407" y="313" type="curve"/>
      <point x="281" y="312"/>
      <point x="439" y="320"/>
    </contour>
    <contour>
      <point x="323" y="221" type="curve"/>
      <point x="323" y="316"/>
      <point x="323" y="412"/>
      <point x="323" y="507" type="curve"/>
      <point x="221" y="426"/>
      <point x="334" y="507"/>
      <point x="232" y="426" type="curve"/>
      <point x="232" y="332"/>
      <point x="232" y="237"/>
      <point x="232" y="142" type="curve"/>
      <point x="334" y="221"/>
      <point x="221" y="142"/>
    </contour>
    <contour>
      <point x="285" y="272" type="curve"/>
      <point x="298" y="272"/>
      <point x="312" y="272"/>
      <point x="325" y="272" type="curve"/>
      <point x="406" y="272"/>
      <point x="459" y="310"/>
      <point x="459" y="392" type="curve"/>
      <point x="459" y="462"/>
      <point x="414" y="507"/>
      <point x="345" y="507" type="curve"/>
      <point x="342" y="507"/>
      <point x="337" y="507"/>
      <point x="334" y="507" type="curve"/>
      <point x="232" y="426"/>
      <point x="334" y="507"/>
      <point x="232" y="426" type="curve"/>
      <point x="263" y="426"/>
      <point x="295" y="426"/>
      <point x="326" y="426" type="curve"/>
      <point x="352" y="426"/>
      <point x="369" y="413"/>
      <point x="369" y="388" type="curve"/>
      <point x="369" y="367"/>
      <point x="359" y="352"/>
      <point x="339" y="352" type="curve"/>
      <point x="321" y="352"/>
      <point x="302" y="352"/>
      <point x="285" y="352" type="curve"/>
      <point x="285" y="272"/>
      <point x="285" y="352"/>
    </contour>
  </outline>
</glyph>
<glyph name="macron" format="1">
  <advance width="245"/>
  <unicode hex="00AF"/>
  <outline>
    <contour>
      <point x="198" y="684" type="curve"/>
      <point x="143" y="684"/>
      <point x="86" y="684"/>
      <point x="31" y="684" type="curve"/>
      <point x="31" y="586"/>
      <point x="31" y="684"/>
      <point x="31" y="586" type="curve"/>
      <point x="86" y="586"/>
      <point x="143" y="586"/>
      <point x="198" y="586" type="curve"/>
      <point x="198" y="684"/>
      <point x="198" y="586"/>
    </contour>
    <contour>
      <point x="115" y="586" type="move" name="_top"/>
    </contour>
  </outline>
</glyph>
<glyph name="plusminus" format="1">
  <advance width="628"/>
  <unicode hex="00B1"/>
  <outline>
    <contour>
      <point x="56" y="52" type="line"/>
      <point x="572" y="52" type="line"/>
      <point x="572" y="160" type="line"/>
      <point x="56" y="160" type="line"/>
    </contour>
    <contour>
      <point x="56" y="261" type="curve"/>
      <point x="572" y="261" type="line"/>
      <point x="572" y="369"/>
      <point x="572" y="261"/>
      <point x="572" y="369" type="curve"/>
      <point x="56" y="369" type="line"/>
      <point x="56" y="261"/>
      <point x="56" y="369"/>
    </contour>
    <contour>
      <point x="373" y="53" type="curve"/>
      <point x="373" y="579" type="line"/>
      <point x="246" y="579"/>
      <point x="382" y="579"/>
      <point x="255" y="579" type="curve"/>
      <point x="255" y="53" type="line"/>
      <point x="382" y="53"/>
      <point x="246" y="53"/>
    </contour>
  </outline>
</glyph>
<glyph name="threesuperior" format="1">
  <advance width="365"/>
  <unicode hex="00B3"/>
  <outline>
    <contour>
      <point x="111" y="700" type="curve"/>
      <point x="124" y="715"/>
      <point x="138" y="729"/>
      <point x="158" y="729" type="curve"/>
      <point x="184" y="729"/>
      <point x="199" y="710"/>
      <point x="199" y="681" type="curve"/>
      <point x="199" y="647"/>
      <point x="166" y="633"/>
      <point x="128" y="630" type="curve"/>
      <point x="128" y="562"/>
      <point x="128" y="630"/>
      <point x="128" y="562" type="curve"/>
      <point x="224" y="565"/>
      <point x="301" y="602"/>
      <point x="301" y="688" type="curve"/>
      <point x="301" y="767"/>
      <point x="248" y="809"/>
      <point x="168" y="809" type="curve"/>
      <point x="121" y="809"/>
      <point x="77" y="787"/>
      <point x="51" y="751" type="curve"/>
      <point x="111" y="700"/>
      <point x="51" y="751"/>
    </contour>
    <contour>
      <point x="50" y="412" type="curve"/>
      <point x="81" y="389"/>
      <point x="113" y="376"/>
      <point x="151" y="376" type="curve"/>
      <point x="248" y="375"/>
      <point x="313" y="418"/>
      <point x="313" y="508" type="curve"/>
      <point x="313" y="595"/>
      <point x="227" y="617"/>
      <point x="128" y="621" type="curve"/>
      <point x="128" y="562"/>
      <point x="128" y="621"/>
      <point x="128" y="562" type="curve"/>
      <point x="174" y="559"/>
      <point x="210" y="541"/>
      <point x="210" y="503" type="curve"/>
      <point x="210" y="473"/>
      <point x="191" y="454"/>
      <point x="160" y="455" type="curve"/>
      <point x="139" y="455"/>
      <point x="119" y="460"/>
      <point x="101" y="472" type="curve"/>
      <point x="50" y="412"/>
      <point x="101" y="472"/>
    </contour>
    <contour>
      <point x="177" y="809" type="move" name="_top"/>
    </contour>
    <contour>
      <point x="176" y="377" type="move" name="_bottom"/>
    </contour>
  </outline>
</glyph>
<glyph name="paragraph" format="1">
  <advance width="702"/>
  <unicode hex="00B6"/>
  <outline>
    <contour>
      <point x="368" y="624" type="curve"/>
      <point x="504" y="624"/>
      <point x="368" y="624"/>
      <point x="504" y="624" type="curve"/>
      <point x="504" y="722"/>
      <point x="504" y="624"/>
      <point x="504" y="722" type="curve"/>
      <point x="459" y="722"/>
      <point x="413" y="722"/>
      <point x="368" y="722" type="curve"/>
      <point x="368" y="624"/>
      <point x="368" y="722"/>
    </contour>
    <contour>
      <point x="368" y="0" type="curve"/>
      <point x="413" y="0"/>
      <point x="459" y="0"/>
      <point x="504" y="0" type="curve"/>
      <point x="504" y="98"/>
      <point x="504" y="0"/>
      <point x="504" y="98" type="curve"/>
      <point x="368" y="98"/>
      <point x="504" y="98"/>
      <point x="368" y="98" type="curve"/>
      <point x="368" y="0"/>
      <point x="368" y="98"/>
    </contour>
    <contour>
      <point x="368" y="98" type="curve"/>
      <point x="235" y="98"/>
      <point x="368" y="98"/>
      <point x="235" y="98" type="curve"/>
      <point x="235" y="0"/>
      <point x="235" y="98"/>
      <point x="235" y="0" type="curve"/>
      <point x="368" y="0"/>
      <point x="324" y="0"/>
      <point x="368" y="0" type="curve"/>
      <point x="368" y="98"/>
      <point x="368" y="0"/>
    </contour>
    <contour>
      <point x="346" y="383" type="curve"/>
      <point x="312" y="363"/>
      <point x="286" y="350"/>
      <point x="246" y="350" type="curve"/>
      <point x="185" y="350"/>
      <point x="163" y="406"/>
      <point x="163" y="477" type="curve"/>
      <point x="163" y="559"/>
      <point x="203" y="624"/>
      <point x="280" y="624" type="curve"/>
      <point x="309" y="624"/>
      <point x="337" y="624"/>
      <point x="365" y="624" type="curve"/>
      <point x="365" y="722"/>
      <point x="365" y="624"/>
      <point x="365" y="722" type="curve"/>
      <point x="332" y="722"/>
      <point x="297" y="722"/>
      <point x="263" y="722" type="curve"/>
      <point x="122" y="722"/>
      <point x="35" y="624"/>
      <point x="35" y="481" type="curve"/>
      <point x="35" y="343"/>
      <point x="121" y="258"/>
      <point x="257" y="256" type="curve"/>
      <point x="306" y="256"/>
      <point x="346" y="277"/>
      <point x="387" y="302" type="curve"/>
      <point x="346" y="383"/>
      <point x="386" y="304"/>
    </contour>
    <contour>
      <point x="432" y="0" type="curve"/>
      <point x="432" y="241"/>
      <point x="432" y="481"/>
      <point x="432" y="722" type="curve"/>
      <point x="305" y="722"/>
      <point x="432" y="722"/>
      <point x="305" y="722" type="curve"/>
      <point x="305" y="481"/>
      <point x="305" y="241"/>
      <point x="305" y="0" type="curve"/>
      <point x="432" y="0"/>
      <point x="305" y="0"/>
    </contour>
    <contour>
      <point x="626" y="0" type="curve"/>
      <point x="626" y="241"/>
      <point x="626" y="481"/>
      <point x="626" y="722" type="curve"/>
      <point x="499" y="722"/>
      <point x="626" y="722"/>
      <point x="499" y="722" type="curve"/>
      <point x="499" y="481"/>
      <point x="499" y="241"/>
      <point x="499" y="0" type="curve"/>
      <point x="626" y="0"/>
      <point x="499" y="0"/>
    </contour>
  </outline>
</glyph>
<glyph name="periodcentered" format="1">
  <advance width="243"/>
  <unicode hex="00B7"/>
  <outline>
    <contour>
      <point x="188" y="440" type="curve"/>
      <point x="188" y="483"/>
      <point x="160" y="505"/>
      <point x="120" y="505" type="curve"/>
      <point x="81" y="505"/>
      <point x="55" y="481"/>
      <point x="55" y="440" type="curve"/>
      <point x="188" y="440"/>
      <point x="55" y="440"/>
      <point x="188" y="440" type="curve"/>
      <point x="188" y="396"/>
      <point x="161" y="376"/>
      <point x="120" y="376" type="curve"/>
      <point x="81" y="376"/>
      <point x="55" y="398"/>
      <point x="55" y="440" type="curve"/>
      <point x="188" y="440"/>
      <point x="55" y="440"/>
    </contour>
  </outline>
</glyph>
<glyph name="cedilla" format="1">
  <advance width="341"/>
  <unicode hex="00B8"/>
  <outline>
    <contour>
      <point x="120" y="146" type="curve"/>
      <point x="110" y="125"/>
      <point x="74" y="38"/>
      <point x="64" y="15" type="curve"/>
      <point x="151" y="-64"/>
      <point x="64" y="15"/>
      <point x="151" y="-64" type="curve"/>
      <point x="163" y="-37"/>
      <point x="206" y="51"/>
      <point x="218" y="78" type="curve"/>
      <point x="120" y="146"/>
      <point x="218" y="78"/>
    </contour>
    <contour>
      <point x="151" y="-64" type="curve"/>
      <point x="157" y="-59"/>
      <point x="161" y="-55"/>
      <point x="168" y="-55" type="curve"/>
      <point x="178" y="-55"/>
      <point x="183" y="-61"/>
      <point x="183" y="-73" type="curve"/>
      <point x="183" y="-88"/>
      <point x="170" y="-95"/>
      <point x="153" y="-95" type="curve"/>
      <point x="135" y="-95"/>
      <point x="120" y="-91"/>
      <point x="104" y="-81" type="curve"/>
      <point x="56" y="-152"/>
      <point x="104" y="-81"/>
      <point x="56" y="-152" type="curve"/>
      <point x="84" y="-172"/>
      <point x="112" y="-179"/>
      <point x="147" y="-179" type="curve"/>
      <point x="214" y="-179"/>
      <point x="260" y="-141"/>
      <point x="260" y="-71" type="curve"/>
      <point x="260" y="-5"/>
      <point x="219" y="38"/>
      <point x="154" y="38" type="curve"/>
      <point x="120" y="38"/>
      <point x="95" y="33"/>
      <point x="64" y="15" type="curve"/>
      <point x="151" y="-64"/>
      <point x="64" y="15"/>
    </contour>
    <contour>
      <point x="211" y="78" type="move" name="_bottom"/>
    </contour>
  </outline>
</glyph>
<glyph name="onesuperior" format="1">
  <advance width="332"/>
  <unicode hex="00B9"/>
  <outline>
    <contour>
      <point x="131" y="384" type="curve"/>
      <point x="176" y="384"/>
      <point x="235" y="384"/>
      <point x="280" y="384" type="curve"/>
      <point x="280" y="464"/>
      <point x="280" y="384"/>
      <point x="280" y="464" type="curve"/>
      <point x="269" y="464"/>
      <point x="244" y="464"/>
      <point x="233" y="464" type="curve"/>
      <point x="131" y="384"/>
      <point x="233" y="464"/>
    </contour>
    <contour>
      <point x="233" y="464" type="curve"/>
      <point x="188" y="464"/>
      <point x="128" y="464"/>
      <point x="82" y="464" type="curve"/>
      <point x="82" y="384"/>
      <point x="82" y="464"/>
      <point x="82" y="384" type="curve"/>
      <point x="94" y="384"/>
      <point x="119" y="384"/>
      <point x="131" y="384" type="curve"/>
      <point x="233" y="464"/>
      <point x="131" y="384"/>
    </contour>
    <contour>
      <point x="98" y="655" type="line"/>
      <point x="233" y="802" type="line"/>
      <point x="131" y="803" type="line"/>
      <point x="40" y="714" type="line"/>
    </contour>
    <contour>
      <point x="233" y="464" type="curve"/>
      <point x="233" y="803" type="line"/>
      <point x="131" y="803" type="line"/>
      <point x="131" y="384" type="line"/>
      <point x="233" y="464"/>
      <point x="131" y="384"/>
    </contour>
    <contour>
      <point x="171" y="803" type="move" name="_top"/>
    </contour>
    <contour>
      <point x="181" y="384" type="move" name="_bottom"/>
    </contour>
  </outline>
</glyph>
<glyph name="ordmasculine" format="1">
  <advance width="371"/>
  <unicode hex="00BA"/>
  <outline>
    <contour>
      <point x="120" y="595" type="curve"/>
      <point x="120" y="649"/>
      <point x="132" y="701"/>
      <point x="183" y="701" type="curve"/>
      <point x="232" y="701"/>
      <point x="245" y="651"/>
      <point x="245" y="594" type="curve"/>
      <point x="245" y="536"/>
      <point x="235" y="488"/>
      <point x="188" y="488" type="curve"/>
      <point x="131" y="488"/>
      <point x="120" y="536"/>
      <point x="120" y="595" type="curve"/>
      <point x="117" y="595"/>
      <point x="46" y="595"/>
      <point x="43" y="595" type="curve"/>
      <point x="43" y="492"/>
      <point x="89" y="421"/>
      <point x="185" y="421" type="curve"/>
      <point x="280" y="421"/>
      <point x="328" y="491"/>
      <point x="328" y="594" type="curve"/>
      <point x="328" y="697"/>
      <point x="282" y="768"/>
      <point x="186" y="768" type="curve"/>
      <point x="89" y="768"/>
      <point x="43" y="697"/>
      <point x="43" y="595" type="curve"/>
      <point x="46" y="595"/>
      <point x="117" y="595"/>
    </contour>
  </outline>
</glyph>
<glyph name="onequarter" format="1">
  <advance width="841"/>
  <unicode hex="00BC"/>
  <outline>
    <contour>
      <point x="318" y="-43" type="line"/>
      <point x="636" y="714" type="line"/>
      <point x="519" y="714" type="line"/>
      <point x="202" y="-43" type="line"/>
    </contour>
    <contour>
      <point x="122" y="294" type="curve"/>
      <point x="167" y="294"/>
      <point x="226" y="294"/>
      <point x="271" y="294" type="curve"/>
      <point x="271" y="374"/>
      <point x="271" y="294"/>
      <point x="271" y="374" type="curve"/>
      <point x="260" y="374"/>
      <point x="236" y="374"/>
      <point x="224" y="374" type="curve"/>
      <point x="122" y="294"/>
      <point x="224" y="374"/>
    </contour>
    <contour>
      <point x="224" y="374" type="curve"/>
      <point x="179" y="374"/>
      <point x="120" y="374"/>
      <point x="73" y="374" type="curve"/>
      <point x="73" y="294"/>
      <point x="73" y="374"/>
      <point x="73" y="294" type="curve"/>
      <point x="86" y="294"/>
      <point x="110" y="294"/>
      <point x="122" y="294" type="curve"/>
      <point x="224" y="374"/>
      <point x="122" y="294"/>
    </contour>
    <contour>
      <point x="90" y="565" type="line"/>
      <point x="224" y="711" type="line"/>
      <point x="122" y="713" type="line"/>
      <point x="32" y="624" type="line"/>
    </contour>
    <contour>
      <point x="224" y="374" type="curve"/>
      <point x="224" y="713" type="line"/>
      <point x="122" y="713" type="line"/>
      <point x="122" y="294" type="line"/>
      <point x="224" y="374"/>
      <point x="122" y="294"/>
    </contour>
    <contour>
      <point x="803" y="150" type="line"/>
      <point x="494" y="150" type="line"/>
      <point x="494" y="71" type="line"/>
      <point x="803" y="71" type="line"/>
    </contour>
    <contour>
      <point x="533" y="76" type="line"/>
      <point x="718" y="377" type="line"/>
      <point x="645" y="393" type="line"/>
      <point x="494" y="150" type="line"/>
    </contour>
    <contour>
      <point x="747" y="-36" type="line"/>
      <point x="747" y="393" type="line"/>
      <point x="645" y="393" type="line"/>
      <point x="645" y="-36" type="line"/>
    </contour>
    <contour>
      <point x="696" y="33" type="line"/>
      <point x="602" y="33" type="line"/>
      <point x="602" y="-37" type="line"/>
      <point x="696" y="-37" type="line"/>
    </contour>
    <contour>
      <point x="696" y="-37" type="line"/>
      <point x="789" y="-37" type="line"/>
      <point x="789" y="33" type="line"/>
      <point x="696" y="33" type="line"/>
    </contour>
  </outline>
</glyph>
<glyph name="threequarters" format="1">
  <advance width="876"/>
  <unicode hex="00BE"/>
  <outline>
    <contour>
      <point x="358" y="-43" type="line"/>
      <point x="676" y="714" type="line"/>
      <point x="559" y="714" type="line"/>
      <point x="242" y="-43" type="line"/>
    </contour>
    <contour>
      <point x="99" y="603" type="curve"/>
      <point x="112" y="618"/>
      <point x="125" y="632"/>
      <point x="145" y="632" type="curve"/>
      <point x="172" y="632"/>
      <point x="186" y="613"/>
      <point x="186" y="584" type="curve"/>
      <point x="186" y="550"/>
      <point x="153" y="536"/>
      <point x="115" y="533" type="curve"/>
      <point x="115" y="465"/>
      <point x="115" y="533"/>
      <point x="115" y="465" type="curve"/>
      <point x="212" y="468"/>
      <point x="288" y="504"/>
      <point x="288" y="591" type="curve"/>
      <point x="288" y="669"/>
      <point x="235" y="712"/>
      <point x="155" y="712" type="curve"/>
      <point x="108" y="712"/>
      <point x="65" y="690"/>
      <point x="38" y="654" type="curve"/>
      <point x="99" y="603"/>
      <point x="38" y="654"/>
    </contour>
    <contour>
      <point x="38" y="315" type="curve"/>
      <point x="69" y="292"/>
      <point x="101" y="279"/>
      <point x="139" y="279" type="curve"/>
      <point x="235" y="278"/>
      <point x="300" y="320"/>
      <point x="300" y="410" type="curve"/>
      <point x="300" y="498"/>
      <point x="215" y="520"/>
      <point x="115" y="524" type="curve"/>
      <point x="115" y="465"/>
      <point x="115" y="524"/>
      <point x="115" y="465" type="curve"/>
      <point x="161" y="461"/>
      <point x="197" y="444"/>
      <point x="197" y="406" type="curve"/>
      <point x="197" y="376"/>
      <point x="178" y="357"/>
      <point x="148" y="358" type="curve"/>
      <point x="127" y="358"/>
      <point x="106" y="363"/>
      <point x="89" y="375" type="curve"/>
      <point x="38" y="315"/>
      <point x="89" y="375"/>
    </contour>
    <contour>
      <point x="843" y="150" type="line"/>
      <point x="534" y="150" type="line"/>
      <point x="534" y="71" type="line"/>
      <point x="843" y="71" type="line"/>
    </contour>
    <contour>
      <point x="574" y="76" type="line"/>
      <point x="758" y="377" type="line"/>
      <point x="685" y="393" type="line"/>
      <point x="534" y="150" type="line"/>
    </contour>
    <contour>
      <point x="787" y="-36" type="line"/>
      <point x="787" y="393" type="line"/>
      <point x="685" y="393" type="line"/>
      <point x="685" y="-36" type="line"/>
    </contour>
    <contour>
      <point x="736" y="33" type="line"/>
      <point x="642" y="33" type="line"/>
      <point x="642" y="-37" type="line"/>
      <point x="736" y="-37" type="line"/>
    </contour>
    <contour>
      <point x="736" y="-37" type="line"/>
      <point x="829" y="-37" type="line"/>
      <point x="829" y="33" type="line"/>
      <point x="736" y="33" type="line"/>
    </contour>
  </outline>
</glyph>
<glyph name="questiondown" format="1">
  <advance width="471"/>
  <unicode hex="00BF"/>
  <outline>
    <contour>
      <point x="306" y="366" type="curve"/>
      <point x="306" y="403"/>
      <point x="306" y="482"/>
      <point x="306" y="519" type="curve"/>
      <point x="190" y="519"/>
      <point x="306" y="519"/>
      <point x="190" y="519" type="curve"/>
      <point x="190" y="482"/>
      <point x="190" y="403"/>
      <point x="190" y="366" type="curve"/>
      <point x="306" y="366"/>
      <point x="190" y="366"/>
    </contour>
    <contour>
      <point x="370" y="154" type="line"/>
      <point x="339" y="120"/>
      <point x="311" y="99"/>
      <point x="266" y="99" type="curve"/>
      <point x="199" y="99"/>
      <point x="166" y="152"/>
      <point x="166" y="222" type="curve"/>
      <point x="166" y="306"/>
      <point x="211" y="366"/>
      <point x="293" y="366" type="curve"/>
      <point x="293" y="403"/>
      <point x="294" y="424"/>
      <point x="294" y="461" type="curve"/>
      <point x="141" y="461"/>
      <point x="44" y="368"/>
      <point x="44" y="222" type="curve"/>
      <point x="44" y="81"/>
      <point x="129" y="-6"/>
      <point x="260" y="-6" type="curve"/>
      <point x="338" y="-6"/>
      <point x="395" y="20"/>
      <point x="437" y="73" type="curve"/>
    </contour>
    <contour>
      <point x="181" y="685" type="curve"/>
      <point x="181" y="642"/>
      <point x="209" y="620"/>
      <point x="248" y="620" type="curve"/>
      <point x="288" y="620"/>
      <point x="314" y="643"/>
      <point x="314" y="685" type="curve"/>
      <point x="181" y="685"/>
      <point x="314" y="685"/>
      <point x="181" y="685" type="curve"/>
      <point x="181" y="729"/>
      <point x="208" y="749"/>
      <point x="248" y="749" type="curve"/>
      <point x="288" y="749"/>
      <point x="314" y="727"/>
      <point x="314" y="685" type="curve"/>
      <point x="181" y="685"/>
      <point x="314" y="685"/>
    </contour>
  </outline>
</glyph>
<glyph name="AE" format="1">
  <advance width="810"/>
  <unicode hex="00C6"/>
  <outline>
    <contour>
      <point x="106" y="98" type="curve"/>
      <point x="-2" y="98"/>
      <point x="107" y="98"/>
      <point x="-1" y="98" type="curve"/>
      <point x="-1" y="0"/>
      <point x="-1" y="98"/>
      <point x="-1" y="0" type="curve"/>
      <point x="35" y="0"/>
      <point x="70" y="0"/>
      <point x="105" y="0" type="curve"/>
      <point x="106" y="98"/>
      <point x="105" y="0"/>
    </contour>
    <contour>
      <point x="106" y="0" type="curve"/>
      <point x="158" y="0"/>
      <point x="104" y="0"/>
      <point x="262" y="0" type="curve"/>
      <point x="262" y="98"/>
      <point x="262" y="0"/>
      <point x="262" y="98" type="curve"/>
      <point x="104" y="98"/>
      <point x="263" y="98"/>
      <point x="106" y="98" type="curve"/>
      <point x="106" y="0"/>
      <point x="106" y="98"/>
    </contour>
    <contour>
      <point x="425" y="277" type="curve"/>
      <point x="352" y="277"/>
      <point x="285" y="277"/>
      <point x="212" y="277" type="curve"/>
      <point x="159" y="172"/>
      <point x="212" y="277"/>
      <point x="159" y="172" type="curve"/>
      <point x="264" y="172"/>
      <point x="362" y="172"/>
      <point x="466" y="172" type="curve"/>
      <point x="425" y="277"/>
      <point x="466" y="172"/>
    </contour>
    <contour>
      <point x="167" y="0" type="curve"/>
      <point x="527" y="722" type="line"/>
      <point x="411" y="722"/>
      <point x="527" y="722"/>
      <point x="411" y="722" type="curve"/>
      <point x="28" y="0" type="line"/>
      <point x="167" y="0"/>
      <point x="28" y="0"/>
    </contour>
    <contour>
      <point x="772" y="49" type="curve"/>
      <point x="772" y="169"/>
      <point x="772" y="48"/>
      <point x="772" y="168" type="curve"/>
      <point x="672" y="168"/>
      <point x="772" y="168"/>
      <point x="672" y="168" type="curve"/>
      <point x="672" y="48"/>
      <point x="672" y="169"/>
      <point x="672" y="49" type="curve"/>
      <point x="772" y="49"/>
      <point x="672" y="49"/>
    </contour>
    <contour>
      <point x="647" y="673" type="curve"/>
      <point x="647" y="553"/>
      <point x="647" y="674"/>
      <point x="647" y="554" type="curve"/>
      <point x="747" y="554"/>
      <point x="647" y="554"/>
      <point x="747" y="554" type="curve"/>
      <point x="747" y="674"/>
      <point x="747" y="553"/>
      <point x="747" y="673" type="curve"/>
      <point x="647" y="673"/>
      <point x="747" y="673"/>
    </contour>
    <contour>
      <point x="453" y="98" type="curve"/>
      <point x="317" y="98"/>
      <point x="456" y="98"/>
      <point x="320" y="98" type="curve"/>
      <point x="320" y="0"/>
      <point x="320" y="98"/>
      <point x="320" y="0" type="curve"/>
      <point x="366" y="0"/>
      <point x="409" y="0"/>
      <point x="453" y="0" type="curve"/>
      <point x="453" y="98"/>
      <point x="453" y="0"/>
    </contour>
    <contour>
      <point x="453" y="722" type="curve"/>
      <point x="409" y="722"/>
      <point x="366" y="722"/>
      <point x="320" y="722" type="curve"/>
      <point x="320" y="624"/>
      <point x="320" y="722"/>
      <point x="320" y="624" type="curve"/>
      <point x="456" y="624"/>
      <point x="317" y="624"/>
      <point x="453" y="624" type="curve"/>
      <point x="453" y="722"/>
      <point x="453" y="624"/>
    </contour>
    <contour>
      <point x="456" y="323" type="curve"/>
      <point x="537" y="323"/>
      <point x="619" y="323"/>
      <point x="700" y="323" type="curve"/>
      <point x="700" y="422"/>
      <point x="700" y="323"/>
      <point x="700" y="422" type="curve"/>
      <point x="619" y="422"/>
      <point x="537" y="422"/>
      <point x="456" y="422" type="curve"/>
      <point x="456" y="323"/>
      <point x="456" y="422"/>
    </contour>
    <contour>
      <point x="445" y="624" type="curve"/>
      <point x="546" y="624"/>
      <point x="646" y="624"/>
      <point x="747" y="624" type="curve"/>
      <point x="747" y="722"/>
      <point x="747" y="624"/>
      <point x="747" y="722" type="curve"/>
      <point x="646" y="722"/>
      <point x="546" y="722"/>
      <point x="445" y="722" type="curve"/>
      <point x="445" y="624"/>
      <point x="445" y="722"/>
    </contour>
    <contour>
      <point x="517" y="0" type="curve"/>
      <point x="517" y="722" type="line"/>
      <point x="389" y="722"/>
      <point x="517" y="722"/>
      <point x="389" y="722" type="curve"/>
      <point x="389" y="481"/>
      <point x="389" y="241"/>
      <point x="389" y="0" type="curve"/>
      <point x="517" y="0"/>
      <point x="389" y="0"/>
    </contour>
    <contour>
      <point x="445" y="0" type="curve"/>
      <point x="554" y="0"/>
      <point x="663" y="0"/>
      <point x="772" y="0" type="curve"/>
      <point x="772" y="98"/>
      <point x="772" y="0"/>
      <point x="772" y="98" type="curve"/>
      <point x="663" y="98"/>
      <point x="554" y="98"/>
      <point x="445" y="98" type="curve"/>
      <point x="445" y="0"/>
      <point x="445" y="98"/>
    </contour>
  </outline>
</glyph>
<glyph name="Ccedilla" format="1">
  <advance width="598"/>
  <unicode hex="00C7"/>
  <outline>
    <contour>
      <point x="441" y="654" type="curve"/>
      <point x="441" y="534"/>
      <point x="441" y="654"/>
      <point x="441" y="534" type="curve"/>
      <point x="541" y="534"/>
      <point x="441" y="534"/>
      <point x="541" y="534" type="curve"/>
      <point x="541" y="654"/>
      <point x="541" y="534"/>
      <point x="541" y="654" type="curve"/>
      <point x="441" y="654"/>
      <point x="541" y="654"/>
    </contour>
    <contour>
      <point x="541" y="654" type="curve"/>
      <point x="485" y="697"/>
      <point x="417" y="727"/>
      <point x="339" y="727" type="curve"/>
      <point x="139" y="727"/>
      <point x="50" y="569"/>
      <point x="50" y="345" type="curve"/>
      <point x="50" y="139"/>
      <point x="136" y="-5"/>
      <point x="325" y="-5" type="curve"/>
      <point x="426" y="-5"/>
      <point x="493" y="30"/>
      <point x="553" y="99" type="curve"/>
      <point x="479" y="172"/>
      <point x="553" y="99"/>
      <point x="479" y="172" type="curve"/>
      <point x="435" y="127"/>
      <point x="395" y="98"/>
      <point x="331" y="98" type="curve"/>
      <point x="209" y="98"/>
      <point x="177" y="209"/>
      <point x="177" y="349" type="curve"/>
      <point x="177" y="502"/>
      <point x="207" y="624"/>
      <point x="335" y="624" type="curve"/>
      <point x="388" y="624"/>
      <point x="434" y="605"/>
      <point x="472" y="576" type="curve"/>
      <point x="541" y="654"/>
      <point x="472" y="576"/>
    </contour>
    <contour>
      <point x="272" y="72" type="curve"/>
      <point x="262" y="51"/>
      <point x="226" y="-36"/>
      <point x="216" y="-59" type="curve"/>
      <point x="303" y="-137"/>
      <point x="216" y="-59"/>
      <point x="303" y="-137" type="curve"/>
      <point x="315" y="-111"/>
      <point x="358" y="-22"/>
      <point x="370" y="4" type="curve"/>
      <point x="272" y="72"/>
      <point x="370" y="4"/>
    </contour>
    <contour>
      <point x="303" y="-137" type="curve"/>
      <point x="308" y="-133"/>
      <point x="313" y="-129"/>
      <point x="320" y="-129" type="curve"/>
      <point x="329" y="-129"/>
      <point x="334" y="-135"/>
      <point x="334" y="-147" type="curve"/>
      <point x="334" y="-162"/>
      <point x="321" y="-169"/>
      <point x="305" y="-169" type="curve"/>
      <point x="286" y="-169"/>
      <point x="272" y="-165"/>
      <point x="256" y="-154" type="curve"/>
      <point x="208" y="-226"/>
      <point x="256" y="-154"/>
      <point x="208" y="-226" type="curve"/>
      <point x="236" y="-245"/>
      <point x="263" y="-253"/>
      <point x="298" y="-253" type="curve"/>
      <point x="366" y="-253"/>
      <point x="412" y="-215"/>
      <point x="412" y="-145" type="curve"/>
      <point x="412" y="-78"/>
      <point x="371" y="-36"/>
      <point x="306" y="-36" type="curve"/>
      <point x="271" y="-36"/>
      <point x="246" y="-41"/>
      <point x="216" y="-59" type="curve"/>
      <point x="303" y="-137"/>
      <point x="216" y="-59"/>
    </contour>
  </outline>
</glyph>
<glyph name="Edieresis" format="1">
  <advance width="550"/>
  <unicode hex="00CB"/>
  <outline>
    <contour>
      <point x="512" y="49" type="curve"/>
      <point x="512" y="169"/>
      <point x="512" y="48"/>
      <point x="512" y="168" type="curve"/>
      <point x="412" y="168"/>
      <point x="512" y="168"/>
      <point x="412" y="168" type="curve"/>
      <point x="412" y="48"/>
      <point x="412" y="169"/>
      <point x="412" y="49" type="curve"/>
      <point x="512" y="49"/>
      <point x="412" y="49"/>
    </contour>
    <contour>
      <point x="387" y="673" type="curve"/>
      <point x="387" y="553"/>
      <point x="387" y="674"/>
      <point x="387" y="554" type="curve"/>
      <point x="487" y="554"/>
      <point x="387" y="554"/>
      <point x="487" y="554" type="curve"/>
      <point x="487" y="674"/>
      <point x="487" y="553"/>
      <point x="487" y="673" type="curve"/>
      <point x="387" y="673"/>
      <point x="487" y="673"/>
    </contour>
    <contour>
      <point x="194" y="98" type="curve"/>
      <point x="57" y="98"/>
      <point x="196" y="98"/>
      <point x="60" y="98" type="curve"/>
      <point x="60" y="0"/>
      <point x="60" y="98"/>
      <point x="60" y="0" type="curve"/>
      <point x="106" y="0"/>
      <point x="149" y="0"/>
      <point x="194" y="0" type="curve"/>
      <point x="194" y="98"/>
      <point x="194" y="0"/>
    </contour>
    <contour>
      <point x="194" y="722" type="curve"/>
      <point x="149" y="722"/>
      <point x="106" y="722"/>
      <point x="60" y="722" type="curve"/>
      <point x="60" y="624"/>
      <point x="60" y="722"/>
      <point x="60" y="624" type="curve"/>
      <point x="196" y="624"/>
      <point x="57" y="624"/>
      <point x="194" y="624" type="curve"/>
      <point x="194" y="722"/>
      <point x="194" y="624"/>
    </contour>
    <contour>
      <point x="197" y="323" type="curve"/>
      <point x="277" y="323"/>
      <point x="359" y="323"/>
      <point x="440" y="323" type="curve"/>
      <point x="440" y="422"/>
      <point x="440" y="323"/>
      <point x="440" y="422" type="curve"/>
      <point x="359" y="422"/>
      <point x="277" y="422"/>
      <point x="197" y="422" type="curve"/>
      <point x="197" y="323"/>
      <point x="197" y="422"/>
    </contour>
    <contour>
      <point x="185" y="624" type="curve"/>
      <point x="286" y="624"/>
      <point x="386" y="624"/>
      <point x="487" y="624" type="curve"/>
      <point x="487" y="722"/>
      <point x="487" y="624"/>
      <point x="487" y="722" type="curve"/>
      <point x="386" y="722"/>
      <point x="286" y="722"/>
      <point x="185" y="722" type="curve"/>
      <point x="185" y="624"/>
      <point x="185" y="722"/>
    </contour>
    <contour>
      <point x="257" y="0" type="curve"/>
      <point x="257" y="722" type="line"/>
      <point x="130" y="722"/>
      <point x="257" y="722"/>
      <point x="130" y="722" type="curve"/>
      <point x="130" y="481"/>
      <point x="130" y="241"/>
      <point x="130" y="0" type="curve"/>
      <point x="257" y="0"/>
      <point x="130" y="0"/>
    </contour>
    <contour>
      <point x="185" y="0" type="curve"/>
      <point x="294" y="0"/>
      <point x="403" y="0"/>
      <point x="512" y="0" type="curve"/>
      <point x="512" y="98"/>
      <point x="512" y="0"/>
      <point x="512" y="98" type="curve"/>
      <point x="403" y="98"/>
      <point x="294" y="98"/>
      <point x="185" y="98" type="curve"/>
      <point x="185" y="0"/>
      <point x="185" y="98"/>
    </contour>
    <contour>
      <point x="270" y="844" type="curve"/>
      <point x="270" y="887"/>
      <point x="242" y="909"/>
      <point x="203" y="909" type="curve"/>
      <point x="163" y="909"/>
      <point x="137" y="885"/>
      <point x="137" y="844" type="curve"/>
      <point x="270" y="844"/>
      <point x="137" y="844"/>
      <point x="270" y="844" type="curve"/>
      <point x="270" y="800"/>
      <point x="243" y="780"/>
      <point x="203" y="780" type="curve"/>
      <point x="162" y="780"/>
      <point x="137" y="802"/>
      <point x="137" y="844" type="curve"/>
      <point x="270" y="844"/>
      <point x="137" y="844"/>
    </contour>
    <contour>
      <point x="455" y="844" type="curve"/>
      <point x="455" y="887"/>
      <point x="426" y="909"/>
      <point x="388" y="909" type="curve"/>
      <point x="348" y="909"/>
      <point x="322" y="885"/>
      <point x="322" y="844" type="curve"/>
      <point x="455" y="844"/>
      <point x="322" y="844"/>
      <point x="455" y="844" type="curve"/>
      <point x="455" y="800"/>
      <point x="427" y="780"/>
      <point x="388" y="780" type="curve"/>
      <point x="347" y="780"/>
      <point x="322" y="802"/>
      <point x="322" y="844" type="curve"/>
      <point x="455" y="844"/>
      <point x="322" y="844"/>
    </contour>
  </outline>
</glyph>
<glyph name="Igrave" format="1">
  <advance width="341"/>
  <unicode hex="00CC"/>
  <outline>
    <contour>
      <point x="170" y="722" type="curve"/>
      <point x="124" y="722"/>
      <point x="81" y="722"/>
      <point x="35" y="722" type="curve"/>
      <point x="35" y="624"/>
      <point x="35" y="722"/>
      <point x="35" y="624" type="curve"/>
      <point x="172" y="624"/>
      <point x="32" y="624"/>
      <point x="170" y="624" type="curve"/>
      <point x="170" y="722"/>
      <point x="170" y="624"/>
    </contour>
    <contour>
      <point x="170" y="624" type="curve"/>
      <point x="306" y="624"/>
      <point x="167" y="624"/>
      <point x="304" y="624" type="curve"/>
      <point x="304" y="722"/>
      <point x="304" y="624"/>
      <point x="304" y="722" type="curve"/>
      <point x="258" y="722"/>
      <point x="215" y="722"/>
      <point x="170" y="722" type="curve"/>
      <point x="170" y="624"/>
      <point x="170" y="722"/>
    </contour>
    <contour>
      <point x="170" y="0" type="curve"/>
      <point x="215" y="0"/>
      <point x="258" y="0"/>
      <point x="304" y="0" type="curve"/>
      <point x="304" y="98"/>
      <point x="304" y="0"/>
      <point x="304" y="98" type="curve"/>
      <point x="167" y="98"/>
      <point x="306" y="98"/>
      <point x="170" y="98" type="curve"/>
      <point x="170" y="0"/>
      <point x="170" y="98"/>
    </contour>
    <contour>
      <point x="170" y="98" type="curve"/>
      <point x="32" y="98"/>
      <point x="172" y="98"/>
      <point x="35" y="98" type="curve"/>
      <point x="35" y="0"/>
      <point x="35" y="98"/>
      <point x="35" y="0" type="curve"/>
      <point x="81" y="0"/>
      <point x="124" y="0"/>
      <point x="170" y="0" type="curve"/>
      <point x="170" y="98"/>
      <point x="170" y="0"/>
    </contour>
    <contour>
      <point x="232" y="0" type="curve"/>
      <point x="232" y="241"/>
      <point x="232" y="481"/>
      <point x="232" y="722" type="curve"/>
      <point x="105" y="722"/>
      <point x="232" y="722"/>
      <point x="105" y="722" type="curve"/>
      <point x="105" y="481"/>
      <point x="105" y="241"/>
      <point x="105" y="0" type="curve"/>
      <point x="232" y="0"/>
      <point x="105" y="0"/>
    </contour>
    <contour>
      <point x="232" y="787" type="line"/>
      <point x="150" y="953" type="line"/>
      <point x="-6" y="953" type="line"/>
      <point x="111" y="787" type="line"/>
    </contour>
  </outline>
</glyph>
<glyph name="Icircumflex" format="1">
  <advance width="385"/>
  <unicode hex="00CE"/>
  <outline>
    <contour>
      <point x="169" y="722" type="curve"/>
      <point x="123" y="722"/>
      <point x="80" y="722"/>
      <point x="34" y="722" type="curve"/>
      <point x="34" y="624"/>
      <point x="34" y="722"/>
      <point x="34" y="624" type="curve"/>
      <point x="172" y="624"/>
      <point x="32" y="624"/>
      <point x="169" y="624" type="curve"/>
      <point x="169" y="722"/>
      <point x="169" y="624"/>
    </contour>
    <contour>
      <point x="169" y="624" type="curve"/>
      <point x="305" y="624"/>
      <point x="166" y="624"/>
      <point x="303" y="624" type="curve"/>
      <point x="303" y="722"/>
      <point x="303" y="624"/>
      <point x="303" y="722" type="curve"/>
      <point x="257" y="722"/>
      <point x="214" y="722"/>
      <point x="169" y="722" type="curve"/>
      <point x="169" y="624"/>
      <point x="169" y="722"/>
    </contour>
    <contour>
      <point x="169" y="0" type="curve"/>
      <point x="214" y="0"/>
      <point x="257" y="0"/>
      <point x="303" y="0" type="curve"/>
      <point x="303" y="98"/>
      <point x="303" y="0"/>
      <point x="303" y="98" type="curve"/>
      <point x="166" y="98"/>
      <point x="305" y="98"/>
      <point x="169" y="98" type="curve"/>
      <point x="169" y="0"/>
      <point x="169" y="98"/>
    </contour>
    <contour>
      <point x="169" y="98" type="curve"/>
      <point x="32" y="98"/>
      <point x="172" y="98"/>
      <point x="34" y="98" type="curve"/>
      <point x="34" y="0"/>
      <point x="34" y="98"/>
      <point x="34" y="0" type="curve"/>
      <point x="80" y="0"/>
      <point x="123" y="0"/>
      <point x="169" y="0" type="curve"/>
      <point x="169" y="98"/>
      <point x="169" y="0"/>
    </contour>
    <contour>
      <point x="231" y="0" type="curve"/>
      <point x="231" y="241"/>
      <point x="231" y="481"/>
      <point x="231" y="722" type="curve"/>
      <point x="104" y="722"/>
      <point x="231" y="722"/>
      <point x="104" y="722" type="curve"/>
      <point x="104" y="481"/>
      <point x="104" y="241"/>
      <point x="104" y="0" type="curve"/>
      <point x="231" y="0"/>
      <point x="104" y="0"/>
    </contour>
    <contour>
      <point x="106" y="786" type="line"/>
      <point x="223" y="952" type="line"/>
      <point x="67" y="952" type="line"/>
      <point x="-14" y="786" type="line"/>
    </contour>
    <contour>
      <point x="354" y="786" type="line"/>
      <point x="272" y="952" type="line"/>
      <point x="116" y="952" type="line"/>
      <point x="234" y="786" type="line"/>
    </contour>
  </outline>
</glyph>
<glyph name="Idieresis" format="1">
  <advance width="347"/>
  <unicode hex="00CF"/>
  <outline>
    <contour>
      <point x="175" y="722" type="curve"/>
      <point x="129" y="722"/>
      <point x="86" y="722"/>
      <point x="40" y="722" type="curve"/>
      <point x="40" y="624"/>
      <point x="40" y="722"/>
      <point x="40" y="624" type="curve"/>
      <point x="177" y="624"/>
      <point x="37" y="624"/>
      <point x="175" y="624" type="curve"/>
      <point x="175" y="722"/>
      <point x="175" y="624"/>
    </contour>
    <contour>
      <point x="175" y="624" type="curve"/>
      <point x="311" y="624"/>
      <point x="172" y="624"/>
      <point x="308" y="624" type="curve"/>
      <point x="308" y="722"/>
      <point x="308" y="624"/>
      <point x="308" y="722" type="curve"/>
      <point x="263" y="722"/>
      <point x="219" y="722"/>
      <point x="175" y="722" type="curve"/>
      <point x="175" y="624"/>
      <point x="175" y="722"/>
    </contour>
    <contour>
      <point x="175" y="0" type="curve"/>
      <point x="219" y="0"/>
      <point x="263" y="0"/>
      <point x="308" y="0" type="curve"/>
      <point x="308" y="98"/>
      <point x="308" y="0"/>
      <point x="308" y="98" type="curve"/>
      <point x="172" y="98"/>
      <point x="311" y="98"/>
      <point x="175" y="98" type="curve"/>
      <point x="175" y="0"/>
      <point x="175" y="98"/>
    </contour>
    <contour>
      <point x="175" y="98" type="curve"/>
      <point x="37" y="98"/>
      <point x="177" y="98"/>
      <point x="40" y="98" type="curve"/>
      <point x="40" y="0"/>
      <point x="40" y="98"/>
      <point x="40" y="0" type="curve"/>
      <point x="86" y="0"/>
      <point x="129" y="0"/>
      <point x="175" y="0" type="curve"/>
      <point x="175" y="98"/>
      <point x="175" y="0"/>
    </contour>
    <contour>
      <point x="237" y="0" type="curve"/>
      <point x="237" y="241"/>
      <point x="237" y="481"/>
      <point x="237" y="722" type="curve"/>
      <point x="110" y="722"/>
      <point x="237" y="722"/>
      <point x="110" y="722" type="curve"/>
      <point x="110" y="481"/>
      <point x="110" y="241"/>
      <point x="110" y="0" type="curve"/>
      <point x="237" y="0"/>
      <point x="110" y="0"/>
    </contour>
    <contour>
      <point x="151" y="844" type="curve"/>
      <point x="151" y="887"/>
      <point x="122" y="909"/>
      <point x="83" y="909" type="curve"/>
      <point x="43" y="909"/>
      <point x="17" y="885"/>
      <point x="17" y="844" type="curve"/>
      <point x="151" y="844"/>
      <point x="17" y="844"/>
      <point x="151" y="844" type="curve"/>
      <point x="151" y="800"/>
      <point x="123" y="780"/>
      <point x="83" y="780" type="curve"/>
      <point x="43" y="780"/>
      <point x="17" y="802"/>
      <point x="17" y="844" type="curve"/>
      <point x="151" y="844"/>
      <point x="17" y="844"/>
    </contour>
    <contour>
      <point x="335" y="844" type="curve"/>
      <point x="335" y="887"/>
      <point x="307" y="909"/>
      <point x="268" y="909" type="curve"/>
      <point x="228" y="909"/>
      <point x="202" y="885"/>
      <point x="202" y="844" type="curve"/>
      <point x="335" y="844"/>
      <point x="202" y="844"/>
      <point x="335" y="844" type="curve"/>
      <point x="335" y="800"/>
      <point x="307" y="780"/>
      <point x="268" y="780" type="curve"/>
      <point x="227" y="780"/>
      <point x="202" y="802"/>
      <point x="202" y="844" type="curve"/>
      <point x="335" y="844"/>
      <point x="202" y="844"/>
    </contour>
  </outline>
</glyph>
